{"glyphs":{"0":{"ha":713,"x_min":26,"x_max":719,"o":"m 26 553 q 101 864 26 740 l 103 865 q 208 963 142 925 q 361 1000 275 1000 q 522 954 447 1000 q 636 835 596 908 q 719 524 719 686 l 719 474 q 639 138 719 294 q 531 10 600 60 q 376 -39 463 -39 q 142 64 226 -39 q 67 177 93 107 q 38 295 42 247 q 30 447 33 343 q 26 553 26 550 m 679 482 l 678 518 q 679 580 679 531 q 662 701 679 629 q 608 838 644 772 q 507 945 572 904 q 361 986 442 986 q 215 951 281 986 q 114 858 149 915 q 40 553 40 742 q 92 147 40 240 q 150 75 111 111 q 358 1 229 1 q 506 47 442 1 q 606 164 569 92 q 679 482 679 310 m 321 235 q 263 319 279 242 q 246 475 246 397 q 249 600 246 553 q 264 688 253 647 q 353 767 286 767 q 447 515 447 767 q 436 315 447 364 q 353 229 413 231 q 321 235 332 229 m 324 249 q 354 242 331 242 q 432 435 432 242 q 433 515 433 457 q 401 719 433 654 q 374 724 389 724 q 351 722 358 724 q 329 708 343 721 q 308 668 315 694 q 289 481 289 594 q 308 296 289 367 l 307 297 l 321 249 l 324 249 m 129 838 l 131 838 l 129 836 l 129 838 z "},"1":{"ha":508,"x_min":-11,"x_max":492,"o":"m 492 725 l 476 94 q 478 -3 476 29 q 392 -42 478 -42 q 229 -29 307 -42 l 229 -6 q 201 -1 218 -6 l 201 146 q 208 392 201 232 q 217 594 215 551 q 193 586 208 586 q 97 612 178 586 q 17 653 17 638 q 18 658 17 657 q -11 681 -11 672 q 71 852 -7 721 q 165 1000 149 983 q 284 1006 190 1006 q 456 999 378 1006 l 456 983 q 458 975 456 975 l 472 971 l 483 971 q 492 725 492 851 m 435 122 l 450 753 q 443 986 450 888 q 317 992 376 992 q 171 989 257 992 q 81 846 154 972 q 3 679 7 719 q 78 648 3 668 q 170 628 153 628 q 206 666 188 628 q 231 704 224 704 q 232 692 232 701 l 232 679 q 224 413 232 589 q 215 146 215 236 l 215 10 q 351 0 303 0 q 436 25 436 0 q 435 74 435 40 l 435 122 z "},"2":{"ha":692,"x_min":28,"x_max":699,"o":"m 679 101 l 678 57 l 678 8 q 681 -17 678 -10 q 676 -35 681 -35 q 669 -36 671 -36 l 661 -36 l 133 -43 l 65 -43 q 56 -25 56 -33 l 56 -15 l 38 -15 q 28 3 28 -6 q 31 116 31 33 q 42 253 32 199 q 82 358 51 308 q 251 490 135 418 q 378 571 367 563 q 422 657 422 604 q 389 717 422 710 q 299 547 310 717 q 163 536 229 536 q 67 544 96 536 q 64 555 65 551 q 62 561 63 558 q 59 565 61 564 q 55 566 57 565 q 48 569 53 567 q 39 572 43 571 q 29 674 29 621 q 110 914 29 825 l 110 913 q 364 1001 178 1001 q 607 913 517 1001 q 697 678 697 824 l 699 604 q 671 488 699 538 q 599 408 643 438 q 507 356 554 378 q 339 247 378 294 l 325 211 l 375 211 l 636 215 q 644 188 643 200 l 664 188 q 679 101 679 146 m 626 201 l 365 197 q 349 197 363 197 q 325 197 335 196 q 303 197 315 197 q 278 210 278 200 q 331 311 278 271 q 432 372 371 340 l 508 411 q 657 628 657 485 q 647 767 657 710 q 607 879 636 825 q 375 988 549 988 q 122 905 201 988 q 43 674 43 822 q 51 583 43 629 l 53 581 q 126 576 83 576 q 258 588 169 576 l 260 590 q 289 719 265 685 q 363 758 315 758 q 416 725 397 753 q 435 658 435 697 q 386 560 435 590 q 248 469 354 533 q 90 347 142 404 q 55 251 64 303 q 45 117 46 199 q 43 18 44 36 q 43 -1 42 0 l 633 -1 q 639 7 636 3 q 635 38 635 22 l 638 125 q 626 201 638 176 z "},"3":{"ha":683,"x_min":22,"x_max":675,"o":"m 675 554 l 668 240 q 364 -43 656 -43 q 186 -15 272 -43 l 186 -17 q 115 24 143 -4 q 42 131 57 82 q 28 319 28 179 q 58 318 39 318 l 193 331 q 208 331 201 331 q 247 301 229 331 q 271 285 264 301 q 282 265 278 269 q 344 242 310 242 q 399 269 378 242 q 410 311 410 289 q 324 367 410 367 q 257 357 303 367 q 244 388 250 371 q 237 386 242 386 q 229 385 232 386 q 211 467 211 415 l 215 565 q 214 603 215 588 q 291 613 238 611 q 376 628 344 615 q 408 675 408 640 q 400 715 408 710 q 368 719 392 719 q 308 695 344 719 q 260 639 271 671 q 138 635 236 635 l 71 635 l 53 638 l 53 663 l 25 665 l 22 751 q 32 814 22 793 l 31 813 q 146 951 57 903 q 340 999 235 999 q 527 955 444 999 q 651 844 610 911 q 672 738 672 808 l 675 554 m 57 303 l 42 304 l 39 303 q 44 233 42 281 q 50 164 47 185 q 97 61 58 100 q 180 21 111 43 q 336 -1 249 -1 q 604 144 539 -1 q 621 206 618 174 q 625 266 624 238 q 630 360 626 294 q 633 533 633 426 q 631 765 633 640 l 631 779 q 547 931 631 876 q 343 985 464 985 q 129 924 222 985 q 36 750 36 863 l 39 679 l 39 676 l 83 678 l 182 678 q 222 679 215 678 q 273 737 233 713 q 351 761 313 761 q 422 679 422 761 q 390 615 422 631 q 307 600 358 600 l 293 601 q 229 594 246 601 l 229 593 q 231 568 231 583 l 226 465 q 236 401 226 418 q 306 407 260 407 q 388 383 351 407 q 424 314 424 358 q 399 249 424 269 q 342 228 375 228 q 272 254 308 228 q 225 315 236 281 l 222 317 l 204 317 l 57 303 z "},"4":{"ha":651,"x_min":4,"x_max":669,"o":"m 317 989 l 501 993 q 558 990 544 993 l 558 986 l 557 965 q 586 963 564 965 l 586 956 l 585 924 q 575 474 575 726 l 575 472 l 642 469 l 640 442 l 650 440 l 669 442 l 661 217 q 615 208 636 208 l 589 210 q 557 206 578 210 l 561 206 q 575 193 575 206 q 556 -31 563 4 q 426 -46 543 -46 l 338 -46 q 332 -18 332 -40 l 310 -18 q 303 37 303 -11 q 313 204 303 85 l 314 224 l 215 224 q 49 235 56 224 q 43 254 46 249 q 13 293 21 257 q 4 386 4 329 q 6 453 4 443 q 8 469 7 463 q 15 488 10 476 q 23 504 19 499 q 36 528 26 510 q 317 989 165 767 m 561 460 q 535 457 551 460 q 533 503 533 463 l 544 978 l 542 978 q 501 979 535 979 q 394 978 467 979 l 324 975 l 322 974 q 64 547 181 763 q 19 471 32 488 q 18 429 18 456 q 33 269 18 310 q 176 267 36 267 q 331 263 317 267 l 314 3 l 314 -3 q 329 -4 314 -4 q 420 -4 383 -4 q 475 -3 457 -4 q 515 6 510 -3 q 535 250 517 10 q 553 251 539 251 l 590 250 q 619 254 606 250 l 628 456 l 561 460 m 368 454 q 336 453 361 453 l 268 453 q 210 454 226 453 l 185 456 q 277 615 194 478 q 371 753 360 753 q 372 751 372 753 l 368 454 m 347 465 l 354 467 l 357 672 q 247 467 285 547 l 324 467 q 347 465 333 467 z "},"5":{"ha":699,"x_min":36,"x_max":703,"o":"m 690 897 l 681 756 l 681 729 q 414 719 613 719 q 419 718 415 718 q 631 572 558 694 q 703 281 703 449 q 694 156 703 217 q 576 2 672 58 q 353 -54 479 -54 q 132 20 226 -54 q 38 217 38 94 q 47 314 38 265 l 271 319 l 271 290 l 299 290 l 300 272 q 326 231 303 231 q 400 266 374 231 q 426 349 426 301 q 379 444 426 425 q 308 450 351 450 l 126 443 q 67 447 93 443 l 67 471 q 39 475 40 475 l 36 894 l 38 981 q 150 983 42 981 q 594 990 421 990 l 624 992 q 631 991 628 992 q 640 990 633 990 q 649 985 647 989 q 655 976 651 982 q 660 963 658 971 q 685 946 681 958 q 690 897 690 933 m 94 485 l 276 490 q 356 486 318 490 q 417 435 394 474 q 440 346 440 396 q 410 256 440 296 q 326 217 381 217 q 278 240 299 217 q 257 306 257 263 l 257 307 l 60 307 l 60 297 q 51 213 51 250 q 133 45 51 103 q 330 -12 214 -12 q 539 41 446 -12 q 653 186 632 94 q 661 319 661 246 q 645 460 661 392 q 596 587 629 529 q 501 677 563 644 q 356 710 439 710 q 272 701 317 710 l 268 704 q 263 728 264 711 q 258 760 261 740 l 296 760 q 639 769 561 760 l 639 785 q 644 921 644 828 l 644 958 q 640 976 644 975 q 634 977 636 976 q 628 978 632 978 l 604 976 q 560 976 596 976 q 394 974 524 976 q 159 969 264 972 q 51 967 54 967 l 50 967 l 53 615 l 53 488 q 94 485 53 485 z "},"6":{"ha":699,"x_min":31,"x_max":711,"o":"m 710 256 l 711 231 q 610 26 711 97 q 368 -46 508 -46 q 156 38 228 -46 q 31 474 31 143 l 42 719 q 58 818 42 783 q 194 950 96 903 q 408 997 292 997 q 606 908 524 997 q 689 711 689 819 q 678 633 689 681 q 467 624 615 624 l 464 651 l 439 651 q 401 740 439 740 q 338 699 358 740 q 318 604 318 658 q 325 488 318 550 q 476 513 389 513 q 628 444 563 513 q 707 289 694 375 l 710 256 m 283 469 l 276 625 q 299 735 276 690 q 372 781 322 781 q 453 665 443 781 l 456 664 q 539 667 471 665 q 639 674 607 668 q 647 739 647 707 q 579 911 647 839 q 402 983 511 983 q 188 931 293 983 q 64 793 82 879 q 53 679 53 757 q 44 475 44 581 q 56 291 44 369 q 97 142 68 213 q 336 -6 160 -6 q 573 60 476 -6 q 669 250 669 125 q 668 282 669 271 l 665 315 q 605 447 657 394 q 460 499 553 499 q 283 451 367 499 l 283 469 m 503 283 l 503 265 q 471 224 497 240 q 415 208 444 208 q 364 226 385 208 q 343 274 343 243 q 376 326 343 306 q 439 347 408 347 q 486 330 469 347 q 503 283 503 313 m 489 283 q 485 304 489 294 l 469 304 q 413 288 442 304 q 385 243 385 271 q 410 221 385 221 q 458 234 436 221 q 489 265 481 247 l 489 283 z "},"7":{"ha":661,"x_min":3,"x_max":685,"o":"m 113 751 l 61 750 l 44 765 q 46 778 44 775 l 33 778 l 17 793 q 24 996 24 840 q 388 1003 228 1003 q 657 990 549 1003 q 654 965 654 982 q 685 963 665 965 q 682 897 682 921 l 685 754 q 458 313 615 594 q 269 -32 301 32 l 117 -39 q 31 -28 64 -39 l 39 -7 q 3 0 17 -4 q 165 338 39 78 q 356 742 292 599 q 113 751 171 751 m 643 785 l 640 922 q 642 978 640 957 l 642 979 q 379 989 533 989 q 38 982 225 989 l 38 981 q 31 792 33 817 l 33 792 l 85 793 q 388 779 92 793 q 196 371 325 636 q 22 10 67 106 q 89 3 44 3 l 233 10 q 428 365 276 93 q 643 785 579 638 z "},"8":{"ha":681,"x_min":19,"x_max":685,"o":"m 682 726 l 685 699 l 685 660 q 678 613 685 632 l 679 614 q 586 451 656 514 l 590 447 q 681 239 681 369 q 599 25 681 108 q 364 -58 518 -58 q 115 37 210 -58 q 19 267 19 132 q 101 489 19 403 q 32 690 32 571 q 99 901 32 810 q 278 997 167 992 q 365 999 311 999 q 539 963 475 999 l 558 950 q 568 943 567 944 q 576 936 569 942 q 588 927 583 931 q 599 915 592 924 q 613 899 607 907 q 628 881 618 892 q 682 726 667 828 m 643 688 l 643 726 q 532 951 643 867 q 365 985 474 985 q 278 983 311 985 q 109 891 172 978 q 46 686 46 804 q 121 489 46 568 q 33 271 33 401 q 115 62 33 140 q 341 -17 196 -17 q 563 63 486 -17 q 639 273 639 142 q 536 479 639 404 l 536 481 q 643 688 643 568 m 338 240 q 258 303 258 240 q 278 360 258 335 q 331 385 299 385 q 391 364 363 385 q 419 311 419 343 l 419 304 q 386 250 419 268 q 338 240 368 240 m 269 689 l 271 700 l 271 703 l 272 704 q 342 738 285 738 q 388 719 372 738 q 404 675 404 701 q 388 628 404 649 q 339 607 371 607 q 288 632 307 607 q 269 689 269 657 m 404 297 q 406 304 406 301 q 356 343 406 343 q 340 342 344 343 l 342 343 q 311 317 322 336 q 300 283 300 297 q 301 264 300 268 q 306 258 303 260 q 318 253 310 253 q 386 264 372 253 q 394 276 388 265 q 404 294 401 286 l 404 297 m 311 650 q 340 621 317 621 q 376 637 363 621 q 390 670 390 653 q 385 691 390 688 q 355 694 381 694 q 325 682 329 694 q 319 678 325 681 l 311 650 z "},"9":{"ha":713,"x_min":25,"x_max":708,"o":"m 435 688 q 392 721 435 721 q 344 708 367 721 q 321 672 321 694 q 322 640 321 650 q 360 617 328 617 q 405 628 392 617 q 435 675 418 640 l 435 688 m 703 421 l 708 303 q 626 35 708 153 q 402 -47 557 -47 q 136 40 247 -47 q 25 254 25 126 q 28 304 25 294 l 28 322 l 199 329 q 271 324 236 329 q 299 296 278 296 q 340 260 310 260 q 407 361 399 260 q 346 356 379 356 q 118 456 211 356 q 25 699 25 556 q 128 931 25 863 q 356 999 222 993 q 547 975 497 999 q 650 886 611 946 l 650 888 q 697 725 690 822 q 700 626 699 689 l 703 421 m 365 603 q 289 647 310 603 l 289 649 q 279 699 279 669 q 307 745 279 728 q 367 763 335 763 q 424 741 400 763 q 449 696 449 719 q 443 660 449 672 q 431 637 438 649 q 408 614 425 625 q 365 603 390 603 m 665 325 l 661 449 l 658 654 q 644 824 656 772 q 615 902 632 876 q 578 942 597 928 q 542 965 560 957 q 497 976 525 972 q 453 982 468 981 q 356 985 421 985 q 139 919 228 979 q 39 708 39 851 q 119 481 39 564 q 318 397 200 397 q 419 418 369 397 l 421 417 l 422 388 q 339 246 422 246 q 288 264 310 246 q 260 311 267 282 q 194 315 229 315 l 42 308 l 42 301 q 38 253 38 276 q 135 64 38 133 q 378 -6 233 -6 q 593 79 522 -6 q 665 325 665 182 z "}," ":{"ha":278,"x_min":0,"x_max":0,"o":""},"!":{"ha":301,"x_min":46,"x_max":286,"o":"m 258 -40 l 231 -39 l 203 -39 l 99 -40 q 81 -12 83 -40 l 71 -12 q 53 31 53 -12 l 61 174 q 132 188 92 188 q 258 182 132 188 l 257 154 l 286 154 l 282 -40 l 258 -40 m 49 319 l 46 715 q 54 989 46 856 l 69 989 q 188 999 147 999 q 256 989 229 999 l 254 968 q 283 961 274 965 l 278 546 q 286 203 278 364 q 76 194 215 194 l 76 222 l 49 222 l 49 319 m 60 713 l 63 331 l 63 236 l 64 236 q 243 243 217 240 q 236 588 236 375 q 242 978 236 800 q 183 985 219 985 q 71 975 146 985 l 67 975 q 60 713 60 864 m 75 164 l 67 22 q 71 1 67 1 l 175 3 l 178 3 l 231 1 l 240 1 q 244 168 240 14 l 133 174 q 75 165 94 174 l 75 164 z "},"\"":{"ha":525,"x_min":36,"x_max":518,"o":"m 38 626 l 36 765 l 36 817 q 40 992 36 888 l 56 992 l 81 994 q 160 1000 110 1000 q 219 985 210 1000 l 219 969 q 247 957 240 968 l 250 597 l 183 597 l 121 596 q 65 599 75 596 l 65 624 q 38 626 57 624 m 306 626 l 304 765 l 304 817 q 308 992 304 888 l 324 992 l 349 994 q 428 1000 378 1000 q 488 985 478 1000 l 488 969 q 515 957 508 968 l 518 597 l 451 597 l 389 596 q 333 599 343 596 l 333 624 q 306 626 325 624 m 440 988 l 324 978 l 322 978 l 322 975 q 318 835 318 915 l 319 639 l 360 638 l 457 639 l 476 639 l 476 694 l 474 981 q 440 988 469 988 m 172 988 l 56 978 l 54 978 l 54 975 q 50 835 50 915 l 51 639 l 92 638 l 189 639 l 208 639 l 208 694 l 206 981 q 172 988 201 988 z "},"#":{"ha":929,"x_min":21,"x_max":940,"o":"m 910 338 q 922 260 922 308 q 925 179 922 213 q 835 172 883 172 l 768 174 q 676 172 733 174 q 660 124 675 169 q 593 -40 624 17 l 581 -40 q 521 -43 561 -43 q 406 -40 481 -43 l 411 -14 q 378 -12 400 -12 q 411 94 389 31 q 439 178 433 157 l 431 178 q 342 176 385 178 q 313 106 328 139 q 279 18 299 74 l 281 19 q 235 -42 264 -42 q 186 -39 213 -39 q 143 -40 160 -39 q 103 -42 126 -40 q 69 -43 81 -43 q 75 -14 74 -18 q 42 -15 51 -14 q 99 171 54 58 q 78 169 94 169 q 58 175 61 169 q 51 199 54 181 q 26 200 36 199 q 21 397 21 264 q 125 369 49 369 q 179 371 156 369 q 183 388 181 374 q 215 490 197 440 l 67 489 l 67 517 l 39 517 l 38 699 q 140 686 58 686 q 249 688 221 686 l 263 688 l 276 686 q 312 768 286 686 q 347 903 338 850 q 538 893 369 899 q 535 867 538 886 l 565 865 q 518 689 565 838 l 621 689 q 690 904 636 718 q 747 897 718 897 l 806 899 q 821 899 808 899 q 840 899 833 900 q 854 897 846 899 q 871 869 871 892 q 885 869 878 869 q 899 847 899 869 q 854 683 899 824 l 901 683 l 901 656 l 929 656 l 929 638 l 940 494 l 786 490 q 774 452 782 478 q 761 413 767 426 l 747 371 q 882 365 788 371 q 887 352 885 360 q 890 342 889 344 q 910 338 893 338 m 142 1 l 208 0 q 222 7 215 0 q 230 21 228 14 q 235 39 232 28 q 246 69 239 50 q 263 113 253 89 q 278 146 274 138 q 304 218 288 164 q 382 219 336 219 l 432 219 q 457 218 454 219 l 467 218 q 433 117 458 188 q 396 1 407 46 q 469 0 433 0 l 522 0 q 558 3 550 0 q 610 128 582 46 q 640 214 638 210 l 644 214 q 735 215 682 215 l 796 215 q 882 219 853 215 l 882 222 q 879 283 879 256 q 872 351 879 336 q 744 357 789 357 l 692 357 q 721 444 703 388 q 750 532 739 501 l 897 536 l 888 664 l 888 669 q 843 670 872 669 q 800 671 814 671 q 857 874 857 869 q 811 886 857 886 l 744 883 q 700 888 722 883 l 697 888 q 628 675 651 711 l 463 675 q 524 879 524 878 q 358 886 364 885 l 358 885 q 326 770 350 847 q 292 674 301 693 l 278 672 l 249 674 q 148 672 221 672 q 50 681 75 672 l 53 531 l 217 532 l 244 532 q 203 400 214 442 l 194 371 q 156 354 192 354 l 125 356 q 35 364 38 356 q 39 213 35 279 l 51 213 q 90 214 63 213 q 131 215 117 215 q 111 165 126 204 q 89 108 96 125 q 60 0 71 56 q 142 1 92 1 m 526 358 l 353 357 q 383 447 364 388 q 413 535 403 506 l 415 536 q 581 533 461 536 l 583 532 q 556 449 576 504 q 528 363 535 393 l 526 358 m 544 457 l 558 493 l 449 493 q 410 371 431 442 l 515 372 q 544 457 517 375 z "},"$":{"ha":618,"x_min":14,"x_max":633,"o":"m 550 572 l 472 569 q 394 606 411 569 q 357 682 357 621 l 353 682 q 318 667 335 682 q 301 631 301 653 q 324 581 301 608 q 369 536 346 553 q 432 494 392 519 q 481 463 472 468 q 588 341 547 414 q 628 199 628 268 q 585 70 628 129 q 458 -29 543 11 l 457 -69 l 457 -124 q 390 -175 457 -175 l 363 -175 l 332 -176 l 293 -176 q 233 -144 246 -176 q 201 -87 201 -133 l 203 -51 q 200 -26 203 -33 l 199 -26 q 83 46 117 0 q 27 131 40 81 q 14 250 14 181 q 25 335 14 319 q 92 350 36 350 l 175 344 q 251 313 243 344 q 283 258 283 301 l 283 236 q 283 224 283 233 q 283 213 282 215 q 285 206 283 210 q 303 196 288 196 q 335 206 319 196 q 351 232 351 217 q 305 329 351 278 q 191 433 258 381 q 104 508 124 486 q 25 704 25 601 q 76 834 25 776 q 204 914 126 892 l 204 921 q 197 1024 204 921 q 221 1056 197 1050 q 276 1060 240 1060 l 310 1060 q 425 1036 396 1060 l 425 1004 l 449 1003 l 453 1003 l 453 904 q 548 843 501 889 q 614 756 594 797 q 633 631 633 714 l 633 622 q 572 572 633 572 l 550 572 m 415 -40 l 417 8 q 460 31 422 8 q 504 61 497 54 q 586 222 586 128 q 555 348 586 283 q 472 451 524 413 q 325 558 364 524 q 273 615 286 592 q 260 661 260 638 q 281 704 260 685 q 325 724 303 724 q 374 667 378 724 q 388 628 372 646 q 444 611 404 611 l 522 614 l 544 614 q 583 624 574 614 q 592 687 592 635 q 572 779 592 739 q 515 855 553 819 q 429 894 476 890 q 411 914 411 896 l 411 1028 q 306 1046 404 1046 l 261 1046 q 211 1024 211 1046 l 218 921 l 219 908 q 153 872 204 901 q 89 829 103 843 q 39 704 39 779 q 114 518 39 603 q 210 436 139 490 q 323 333 281 382 q 365 232 365 285 q 345 197 365 211 q 305 182 325 182 q 273 188 285 182 q 255 201 261 194 q 244 222 249 207 q 242 268 240 244 l 242 286 q 232 316 242 306 q 212 328 222 326 q 178 331 201 331 l 92 336 q 38 324 47 336 q 28 265 28 311 q 55 102 28 158 q 175 15 82 46 q 218 -49 218 1 l 217 -87 q 226 -123 217 -111 q 265 -135 236 -135 l 304 -135 q 394 -128 372 -135 q 415 -96 415 -122 l 415 -40 m 206 910 l 206 913 q 204 910 204 911 l 206 910 z "},"%":{"ha":839,"x_min":11,"x_max":856,"o":"m 165 -14 l 153 -15 q 165 99 117 -15 l 176 129 l 175 129 q 221 253 204 214 l 219 251 q 296 463 242 318 q 217 433 261 433 q 146 445 174 433 q 108 467 118 457 q 81 496 97 476 q 37 550 44 526 q 26 583 29 574 q 19 626 24 593 q 13 674 15 658 l 11 713 l 14 750 q 19 790 15 760 q 26 833 24 819 q 61 904 35 875 q 181 963 115 963 q 294 917 246 963 q 379 708 379 838 l 379 694 l 386 715 l 385 715 q 408 777 388 725 q 474 1001 428 829 q 531 996 497 996 l 594 997 q 686 979 649 997 l 683 974 q 679 964 683 972 q 714 951 697 958 q 703 920 703 929 q 639 715 703 911 l 618 657 q 558 485 589 578 q 663 522 603 522 q 769 478 722 522 q 856 268 856 397 q 822 92 856 175 q 769 20 806 47 q 691 -7 733 -7 q 620 6 649 -7 q 583 26 592 18 q 557 56 575 35 q 513 110 521 86 q 503 143 506 133 q 496 185 500 153 q 489 233 492 218 l 488 274 q 472 233 486 272 q 451 176 458 194 l 372 -22 q 315 -44 367 -44 l 229 -42 q 181 -43 207 -42 q 165 -21 165 -43 l 165 -14 m 606 983 l 525 981 q 485 985 501 981 q 439 829 458 885 q 417 769 419 774 q 275 360 306 438 q 233 247 235 258 q 189 125 213 200 q 149 8 149 18 q 153 -1 149 -1 l 154 -1 q 231 0 186 0 l 279 0 q 332 10 328 0 l 411 210 q 561 635 475 372 q 654 926 647 899 q 668 974 664 965 q 606 983 651 983 m 503 236 q 508 192 503 214 q 517 148 513 171 q 526 117 521 125 q 539 92 531 110 q 558 68 547 75 q 582 51 568 61 q 658 35 606 35 q 747 74 711 35 q 814 269 814 143 l 814 297 q 749 472 814 414 q 660 508 710 508 q 582 489 611 507 q 539 438 553 471 q 504 307 514 383 l 501 272 l 503 238 l 503 236 m 26 676 q 31 633 26 656 q 40 588 36 611 q 49 558 44 565 q 63 533 54 550 q 81 508 71 515 q 106 492 92 501 q 182 475 129 475 q 272 514 235 475 q 338 710 338 583 l 338 738 q 272 914 338 854 q 184 948 233 949 q 106 929 135 947 q 61 878 76 911 q 28 747 38 824 l 25 713 l 26 678 l 26 676 m 701 236 q 653 143 701 143 q 630 152 638 143 q 621 171 622 161 q 619 199 619 181 q 618 225 619 218 l 611 326 l 611 328 l 610 344 q 624 387 610 369 q 657 404 638 404 q 701 267 701 404 l 701 236 m 225 675 q 176 583 225 583 q 153 592 161 583 q 144 611 146 601 q 143 640 143 621 q 142 665 143 658 l 135 767 l 135 768 l 133 785 q 147 827 133 810 q 181 844 161 844 q 225 707 225 844 l 225 675 m 183 638 l 185 611 l 185 599 q 207 636 199 603 q 208 642 208 639 l 208 649 l 211 707 q 201 801 211 757 q 182 786 189 797 l 182 788 q 176 740 176 778 l 183 638 m 660 197 l 661 171 l 661 158 q 685 201 685 165 l 685 208 l 688 267 q 678 361 688 317 q 658 346 665 357 l 658 347 q 653 300 653 338 l 660 197 z "},"&":{"ha":785,"x_min":11,"x_max":810,"o":"m 339 815 q 307 776 307 808 q 315 714 307 744 q 339 815 336 733 m 354 210 l 383 214 l 385 214 l 392 290 q 390 324 392 313 q 375 347 388 335 q 336 358 363 358 q 276 267 276 358 q 278 238 276 247 q 291 217 279 228 q 319 207 303 207 q 354 210 335 207 m 689 -43 l 682 -43 q 621 -42 638 -43 q 529 7 576 -37 q 332 -43 456 -36 q 101 64 192 -43 q 11 306 11 171 q 50 446 11 374 q 144 571 89 518 q 43 802 43 707 q 130 963 43 897 q 328 1029 217 1029 q 523 949 440 1029 q 606 776 606 868 q 593 711 606 746 q 572 661 581 676 q 538 604 563 646 l 529 592 q 489 518 489 532 q 506 460 489 490 q 510 478 507 464 l 514 494 q 523 522 517 515 q 537 536 529 529 q 553 546 544 543 q 601 553 574 553 l 700 553 q 761 519 749 553 q 793 456 793 508 q 756 318 793 404 q 747 297 751 308 q 733 264 740 272 q 718 235 726 249 q 704 200 704 208 q 746 150 704 192 q 810 35 800 85 l 810 17 q 781 -26 804 -14 q 740 -41 758 -39 q 689 -43 721 -43 m 326 193 q 256 224 276 193 q 235 299 235 254 q 257 372 235 343 q 314 400 279 400 q 406 289 406 400 q 404 236 406 249 q 364 197 401 208 q 326 193 335 193 m 325 858 q 353 829 353 858 q 308 696 353 703 l 308 697 q 280 734 294 697 q 265 801 265 771 q 325 858 265 858 m 683 197 q 677 203 683 197 q 667 217 672 210 q 663 230 663 224 q 678 268 663 236 q 700 311 693 300 q 711 339 706 325 q 751 476 751 433 q 739 528 751 518 q 700 539 726 539 l 601 539 q 540 520 557 539 q 519 467 524 501 q 507 419 514 432 q 447 547 447 494 q 476 608 447 565 q 535 703 506 650 q 564 804 564 757 q 497 953 564 890 q 326 1015 429 1015 q 140 953 222 1015 q 57 802 57 892 q 164 569 57 713 q 25 312 25 439 q 100 92 25 185 q 304 -1 175 -1 q 503 53 433 6 q 570 8 542 17 q 654 -1 599 -1 l 661 -1 q 767 40 756 -1 l 768 47 l 768 60 q 699 179 760 103 l 699 178 q 683 197 693 185 z "},"'":{"ha":257,"x_min":36,"x_max":250,"o":"m 38 626 l 36 765 l 36 817 q 40 992 36 888 l 56 992 l 81 994 q 160 1000 110 1000 q 219 985 210 1000 l 219 969 q 247 957 240 968 l 250 597 l 183 597 l 121 596 q 65 599 75 596 l 65 624 q 38 626 57 624 m 172 988 l 56 978 l 54 978 l 54 975 q 50 835 50 915 l 51 639 l 92 638 l 189 639 l 208 639 l 208 694 l 206 981 q 172 988 201 988 z "},"(":{"ha":436,"x_min":31,"x_max":444,"o":"m 31 281 l 39 550 l 39 617 q 40 677 40 635 q 42 746 40 719 q 168 967 50 899 q 279 1001 226 1001 q 410 990 332 1001 q 413 967 410 975 l 438 963 q 442 890 442 933 l 439 768 q 326 692 356 743 q 288 521 296 642 q 286 497 288 503 l 286 438 l 285 386 q 300 258 285 311 l 299 260 q 344 210 310 228 q 417 193 379 193 l 417 171 l 415 168 q 444 165 422 165 l 444 143 q 442 60 442 115 q 440 -19 442 6 q 396 -42 429 -42 q 344 -42 369 -42 q 169 18 250 -42 q 79 115 117 54 l 79 114 q 31 281 39 185 m 317 0 l 357 0 q 397 21 392 0 q 402 62 404 39 q 400 119 400 85 q 403 172 400 154 l 401 179 q 319 209 360 181 q 258 282 278 238 q 243 381 243 335 l 243 514 q 269 696 243 625 q 397 807 283 774 q 400 920 400 876 q 397 978 400 964 l 396 979 q 294 988 350 985 q 122 913 190 985 q 53 700 53 842 q 53 658 54 700 l 53 617 l 53 553 q 44 282 53 460 q 92 121 51 193 q 150 57 110 83 q 317 0 232 0 z "},")":{"ha":435,"x_min":18,"x_max":433,"o":"m 425 522 l 433 253 q 385 86 426 164 q 322 18 361 46 q 147 -42 242 -42 q 97 -42 122 -42 q 50 -11 50 -42 q 18 82 18 0 l 19 154 q 19 171 19 165 l 21 193 q 106 221 65 194 q 165 288 147 247 l 164 286 q 179 414 179 339 q 178 465 179 414 l 178 525 q 169 611 178 528 q 140 726 160 694 q 53 768 113 749 q 46 788 53 785 q 33 793 39 792 q 25 796 28 794 l 22 918 q 28 992 22 964 q 142 1001 76 999 q 283 956 217 999 q 390 842 350 914 q 424 667 424 782 q 425 589 424 610 l 425 522 m 192 528 l 193 418 q 178 282 193 335 q 117 209 158 238 q 35 179 76 181 l 33 172 q 36 91 36 147 q 38 13 36 35 q 78 0 49 0 l 119 0 q 288 58 204 0 q 392 282 372 117 q 383 553 383 460 l 383 617 q 374 799 383 761 q 350 863 365 836 q 142 988 286 988 q 40 979 104 988 l 39 978 q 35 929 35 947 q 39 807 35 911 q 150 728 122 783 q 192 528 178 674 z "},"*":{"ha":510,"x_min":10,"x_max":525,"o":"m 524 607 l 525 599 q 500 557 525 579 q 493 550 494 551 l 479 536 l 374 456 q 347 485 365 467 l 346 483 q 276 554 281 549 q 246 525 269 549 q 169 468 192 468 q 38 588 124 513 q 39 590 39 589 l 10 615 q 108 729 51 672 q 60 785 104 736 q 10 858 17 835 q 76 918 24 865 q 146 983 129 971 q 201 942 157 981 q 258 888 244 904 q 363 983 285 906 l 521 825 q 476 758 517 799 q 431 711 435 718 q 479 656 443 701 q 524 607 515 611 m 483 622 l 483 625 q 435 681 481 626 q 386 735 390 735 q 433 790 392 749 q 478 849 475 831 l 418 907 q 361 965 372 950 l 258 871 q 226 900 253 875 q 149 968 154 967 l 85 906 q 26 851 33 854 q 77 788 31 840 q 124 728 124 735 l 124 726 q 89 689 113 714 q 28 619 39 636 q 147 510 53 599 q 199 552 157 510 q 249 597 242 594 q 292 561 258 593 l 350 501 q 353 503 351 501 l 443 575 l 464 594 q 483 622 483 613 m 111 725 q 110 726 110 725 q 111 725 110 725 z "},"+":{"ha":618,"x_min":13,"x_max":629,"o":"m 392 114 l 293 117 q 211 108 231 117 l 210 133 q 208 140 208 135 q 183 136 188 139 l 182 161 q 178 211 178 189 l 179 236 l 179 290 q 44 314 61 301 l 46 332 q 17 342 22 336 l 18 383 q 15 483 18 424 q 13 553 13 542 q 77 551 15 551 q 189 560 139 551 q 201 754 189 654 q 278 735 232 735 l 386 738 q 431 735 411 738 l 431 708 q 458 707 451 708 l 458 593 l 457 561 l 492 563 q 601 557 569 563 l 600 532 q 629 529 610 532 q 628 471 628 511 l 629 408 q 622 307 629 340 q 535 298 607 299 q 460 296 464 297 l 449 133 q 392 114 449 114 m 194 267 l 193 208 q 196 163 193 175 l 196 160 l 197 158 l 210 158 l 356 156 q 407 161 407 156 l 407 164 l 417 317 l 417 333 q 502 340 426 339 q 582 343 578 340 q 586 447 586 381 q 588 544 586 513 q 504 549 567 549 l 458 549 l 432 547 q 417 578 417 547 l 417 722 l 397 722 l 281 721 q 215 728 228 721 q 203 547 203 660 q 126 539 197 544 q 32 533 54 533 l 26 533 l 33 378 l 32 349 q 92 336 32 340 q 188 332 151 332 l 190 332 q 194 267 194 328 z "},",":{"ha":261,"x_min":29,"x_max":261,"o":"m 250 -26 l 233 -118 l 219 -187 q 165 -178 199 -178 l 107 -178 q 99 -150 99 -169 l 79 -150 q 72 -130 72 -143 q 92 -39 72 -117 q 81 -37 86 -36 q 57 -24 65 -42 l 57 -10 l 47 -10 q 29 14 29 -10 q 36 176 29 72 q 97 188 67 188 q 233 178 126 188 l 232 151 l 261 150 l 250 -26 m 203 -29 l 208 1 l 210 6 l 213 6 l 213 165 q 101 174 131 174 q 50 167 71 174 l 49 165 q 43 11 43 74 l 43 6 q 47 4 44 4 l 113 -1 l 83 -133 q 110 -137 83 -137 q 153 -137 136 -137 q 181 -139 169 -136 q 186 -111 183 -129 q 192 -85 189 -93 l 203 -29 z "},"-":{"ha":724,"x_min":36,"x_max":715,"o":"m 36 281 l 40 517 l 683 517 l 683 489 l 711 489 l 708 339 q 715 229 708 278 l 78 239 l 64 253 l 64 267 l 50 267 l 36 281 m 54 503 l 50 281 q 169 278 57 281 q 618 271 449 271 l 674 271 q 667 364 667 311 l 669 503 l 54 503 z "},".":{"ha":263,"x_min":29,"x_max":260,"o":"m 244 149 q 260 119 260 149 q 249 -42 260 42 l 63 -40 q 58 -12 58 -28 l 35 -12 q 29 72 29 22 l 32 171 q 133 188 71 188 q 229 171 194 188 l 232 151 q 244 149 232 151 m 46 163 l 43 65 q 47 1 43 17 l 51 0 l 211 0 l 211 3 q 217 131 211 24 l 219 165 q 135 174 201 174 q 46 163 69 174 z "},"/":{"ha":572,"x_min":26,"x_max":592,"o":"m 592 951 q 581 920 581 929 q 517 715 581 911 l 496 657 q 430 464 474 594 q 361 264 386 333 q 329 176 336 194 l 250 -22 q 193 -44 244 -44 l 107 -42 q 58 -43 85 -42 q 43 -21 43 -43 l 43 -14 l 31 -15 q 43 99 -6 -15 l 54 129 l 53 129 q 99 253 81 214 l 97 251 q 169 451 101 274 q 264 715 236 629 l 263 715 q 285 777 265 725 q 351 1001 306 829 q 408 996 375 996 q 472 997 408 996 q 564 979 526 997 l 561 974 q 557 964 561 972 q 592 951 575 958 m 483 983 l 403 981 q 363 985 379 981 q 317 829 336 885 q 294 769 297 774 q 153 360 183 438 q 111 247 113 258 q 67 125 90 200 q 26 8 26 18 q 31 -1 26 -1 l 32 -1 q 108 0 64 0 l 157 0 q 210 10 206 0 l 289 210 q 439 635 353 372 q 532 926 525 899 q 546 974 542 965 q 483 983 529 983 z "},":":{"ha":285,"x_min":40,"x_max":271,"o":"m 256 615 q 271 586 271 615 q 260 425 271 508 l 74 426 q 69 454 69 439 l 46 454 q 40 539 40 489 l 43 638 q 144 654 82 654 q 240 638 206 654 l 243 618 q 256 615 243 618 m 256 149 q 271 119 271 149 q 260 -42 271 42 l 74 -40 q 69 -12 69 -28 l 46 -12 q 40 72 40 22 l 43 171 q 144 188 82 188 q 240 171 206 188 l 243 151 l 256 149 m 57 629 l 54 532 q 58 468 54 483 l 63 468 l 219 467 l 222 467 l 222 469 q 228 597 222 490 l 231 632 q 147 640 213 640 q 57 629 81 640 m 57 163 l 54 65 q 58 1 54 17 l 63 0 l 222 0 l 222 3 q 228 131 222 24 l 231 165 q 146 174 211 174 q 57 163 81 174 z "},";":{"ha":285,"x_min":40,"x_max":274,"o":"m 263 -26 l 246 -118 l 232 -187 q 178 -178 211 -178 l 119 -178 q 113 -157 113 -171 l 113 -150 l 92 -150 q 85 -130 85 -143 q 104 -39 85 -117 q 93 -37 99 -36 q 69 -24 78 -42 l 69 -10 l 58 -10 q 42 14 42 -10 q 49 176 42 72 q 109 188 79 188 q 246 178 139 188 l 244 151 l 274 150 l 263 -26 m 271 586 l 260 425 l 74 426 q 69 454 69 439 l 46 454 q 40 539 40 489 l 43 638 q 144 654 82 654 q 240 638 206 654 l 243 618 l 256 615 q 271 586 271 615 m 215 -29 l 221 1 l 222 6 l 225 6 l 225 165 q 113 174 143 174 q 63 167 83 174 l 61 165 q 56 11 56 74 l 56 6 q 60 4 57 4 l 125 -1 l 96 -133 q 122 -137 96 -137 q 165 -137 149 -137 q 193 -139 182 -136 q 199 -111 196 -129 q 204 -85 201 -93 l 215 -29 m 57 629 l 54 532 q 58 468 54 483 l 219 468 l 222 467 l 222 469 q 228 597 222 490 l 231 632 q 147 640 213 640 q 57 629 81 640 z "},"<":{"ha":504,"x_min":0,"x_max":525,"o":"m 494 126 l 525 101 l 499 78 l 476 56 q 393 -19 443 22 l 365 8 q 363 11 363 8 q 249 112 335 38 q 106 245 163 186 q 0 375 50 304 q 153 544 63 454 l 276 668 q 357 751 300 694 q 426 690 376 740 l 444 672 q 483 640 464 653 q 481 636 481 638 q 511 613 496 621 q 385 473 469 561 q 268 346 300 385 q 497 129 439 175 l 494 126 m 461 115 l 476 129 q 343 253 428 168 q 219 371 258 338 q 347 510 256 417 q 464 638 438 604 q 413 685 449 647 q 358 733 376 724 q 213 582 267 636 l 143 511 q 18 375 58 426 q 211 172 79 292 q 368 26 328 67 q 421 75 396 50 l 461 115 z "},"=":{"ha":647,"x_min":43,"x_max":633,"o":"m 43 453 l 47 657 l 601 657 l 601 629 l 629 629 l 626 507 q 633 403 626 465 l 85 411 l 71 425 l 71 439 l 57 439 l 43 453 m 43 165 l 47 369 l 601 369 l 601 342 l 629 342 l 626 219 q 633 115 626 178 l 85 124 l 71 138 l 71 151 l 57 151 l 43 165 m 61 356 l 57 165 l 543 157 l 592 157 q 586 238 586 192 l 588 356 l 61 356 m 61 643 l 57 453 l 543 444 l 592 444 q 586 525 586 479 l 588 643 l 61 643 z "},">":{"ha":504,"x_min":7,"x_max":532,"o":"m 33 106 l 7 131 q 142 255 56 171 q 265 372 228 339 q 156 489 246 394 q 21 640 65 583 q 83 694 44 654 q 147 750 121 735 l 175 722 q 214 683 186 711 q 258 637 242 654 q 350 544 275 619 q 442 447 379 511 q 532 347 504 382 q 323 128 463 256 q 164 -21 183 0 q 71 63 78 53 q 58 79 64 74 l 33 106 m 28 129 l 65 93 q 136 26 103 56 q 294 174 164 54 q 486 375 424 293 q 361 511 446 426 l 292 582 q 146 733 238 636 q 92 685 129 724 q 40 638 54 647 q 158 508 68 601 q 285 371 249 414 q 161 253 246 338 q 28 129 76 168 z "},"?":{"ha":626,"x_min":8,"x_max":640,"o":"m 38 678 q 8 681 17 678 q 95 895 14 800 q 294 996 176 990 q 324 997 304 997 q 544 908 447 997 q 640 706 640 819 q 569 524 640 615 q 526 473 556 506 q 488 431 496 440 q 417 238 417 322 q 421 210 417 226 q 331 204 378 204 l 225 204 q 211 232 214 215 l 197 232 q 183 276 183 246 l 186 332 q 219 454 197 401 q 289 569 242 507 q 312 599 301 582 q 331 629 322 615 q 344 650 340 643 q 353 668 349 657 q 363 704 363 689 q 321 731 363 731 q 271 694 296 731 q 221 647 246 657 q 155 644 185 644 q 36 653 125 644 q 38 678 36 668 m 22 692 l 144 686 q 192 689 158 686 q 235 735 208 696 q 295 774 261 774 q 352 751 329 774 q 375 703 375 729 q 352 638 375 676 q 297 556 329 599 q 254 494 264 513 q 200 329 218 442 l 197 276 l 197 260 q 203 246 197 251 l 204 246 q 242 247 217 247 l 319 246 q 375 249 363 246 l 375 250 q 374 266 374 253 q 381 297 374 279 q 449 467 400 399 q 494 520 461 483 q 546 581 526 557 q 582 649 565 606 q 599 739 599 692 q 519 913 599 842 q 318 983 439 983 q 113 898 197 983 q 22 693 28 813 l 22 692 m 214 -40 q 210 -12 214 -29 l 186 -12 q 181 72 181 22 l 183 171 q 283 188 222 188 q 381 171 344 188 l 383 151 l 394 149 q 411 119 411 149 q 400 -42 411 42 l 214 -40 m 197 163 l 194 65 q 199 1 194 17 l 203 0 l 363 0 l 363 3 q 369 131 363 24 l 371 165 q 287 174 353 174 q 197 163 221 174 z "},"@":{"ha":783,"x_min":32,"x_max":782,"o":"m 782 500 l 782 425 q 765 269 782 324 q 692 190 747 215 l 707 156 q 713 160 708 158 q 719 163 717 161 l 782 26 q 431 -74 628 -74 q 153 24 233 -74 q 88 101 106 58 q 62 165 71 143 q 47 227 53 188 q 38 286 42 267 q 33 352 35 306 q 32 411 32 399 l 32 564 q 104 828 32 735 q 192 894 142 874 q 290 922 243 915 q 389 929 336 929 q 663 846 571 929 l 690 818 q 765 684 747 764 q 782 500 782 604 m 560 515 l 563 600 q 544 644 563 632 q 463 665 513 665 q 286 591 344 665 q 228 426 228 517 q 265 279 228 336 q 378 222 303 222 q 499 260 453 222 l 513 242 l 524 232 q 581 214 554 214 q 708 273 676 214 q 740 453 740 332 l 740 528 q 735 642 740 594 q 709 744 729 689 q 652 835 689 800 q 549 892 615 869 q 389 915 482 915 q 117 822 189 915 q 46 564 46 729 l 46 522 q 56 271 46 403 q 79 169 58 229 q 125 74 100 108 q 239 -10 171 13 q 407 -32 307 -32 q 738 58 596 -32 l 685 172 q 538 118 619 140 q 406 96 457 96 q 221 177 267 96 q 175 454 175 258 l 175 485 q 225 726 175 656 q 283 776 244 756 q 388 797 322 797 q 511 771 454 797 q 610 567 601 718 l 610 528 l 611 471 q 589 329 611 346 q 560 474 560 335 l 560 515 m 583 628 q 586 624 583 625 q 589 619 589 622 q 533 731 576 699 q 410 756 476 756 q 306 732 344 756 q 249 664 267 708 q 217 475 217 588 q 275 601 226 547 l 275 600 q 353 656 300 632 q 462 679 407 679 q 551 656 517 679 l 556 656 q 579 628 574 631 l 583 628 m 406 110 l 429 111 l 444 111 q 564 138 492 114 q 692 190 636 161 q 606 172 657 172 q 524 213 556 172 q 407 181 479 181 q 285 235 335 181 l 257 263 q 218 350 226 296 q 275 133 229 154 l 275 135 q 406 110 315 110 m 346 397 l 346 401 q 426 532 346 532 q 449 531 439 532 q 449 508 449 528 q 447 468 449 489 q 442 417 446 447 q 385 353 431 353 q 357 365 368 353 q 346 397 346 378 m 388 379 l 388 367 q 415 381 406 367 q 426 410 425 394 q 429 450 428 425 q 432 486 431 475 q 388 379 388 471 z "},"A":{"ha":603,"x_min":-12,"x_max":651,"o":"m 407 964 l 428 967 q 544 463 428 963 l 651 -39 q 547 -49 596 -49 q 438 -35 499 -49 q 434 -26 436 -29 q 431 -19 432 -22 q 428 -15 431 -17 q 426 -12 426 -14 q 423 -10 425 -11 q 419 -8 421 -10 q 410 -7 415 -7 q 384 85 397 31 q 363 167 371 140 q 344 193 354 193 l 306 192 q 283 87 299 172 q 243 -40 267 1 q 213 -43 243 -40 q 89 -40 208 -43 l 15 -39 l 19 -11 l -12 -11 l 7 92 q 207 985 103 638 q 247 988 221 988 l 267 986 q 400 994 307 986 q 407 964 406 969 m 268 233 l 308 235 l 326 235 q 354 232 329 235 q 389 117 368 203 q 419 6 410 32 l 421 6 q 522 -7 475 -7 q 607 0 569 -7 l 607 1 l 503 488 q 389 979 490 540 q 268 974 328 974 l 239 974 q 218 972 222 974 q 110 544 160 775 q 33 160 60 314 q 6 3 7 6 q 8 1 7 1 l 42 1 l 185 -1 q 207 1 199 -1 q 241 120 225 33 q 268 233 257 207 m 361 397 l 292 396 q 274 397 285 396 q 258 397 264 397 q 270 488 264 435 q 281 569 276 540 q 289 631 285 599 q 308 688 299 688 q 361 397 325 688 m 326 569 q 304 411 325 560 l 344 411 q 334 502 340 449 q 326 569 328 556 z "},"B":{"ha":663,"x_min":42,"x_max":689,"o":"m 42 326 l 44 785 l 44 974 q 272 1007 158 1007 q 542 924 432 1007 q 651 678 651 840 q 582 454 651 575 l 582 451 q 588 442 582 447 l 588 440 q 639 376 622 399 q 672 310 656 353 q 689 212 689 268 q 668 106 689 156 q 615 26 647 56 q 533 -19 582 -3 q 204 -43 413 -64 q 121 -39 132 -39 l 100 -39 q 74 -11 74 -39 q 47 -4 51 -6 q 42 326 42 142 m 92 3 l 310 -7 q 575 64 496 -7 q 647 251 647 128 q 631 333 647 293 q 598 396 614 374 q 560 444 582 418 q 538 477 538 471 q 542 489 538 483 q 610 693 610 603 q 582 841 610 783 q 506 931 554 899 q 272 993 411 993 q 58 963 169 993 l 57 961 q 58 768 58 896 l 56 324 q 61 6 56 149 q 75 3 72 3 l 92 3 m 311 193 l 261 194 l 258 196 q 239 283 239 222 q 254 390 239 344 q 290 388 264 389 q 330 385 315 386 q 367 377 344 383 q 401 361 389 371 q 432 291 432 335 q 418 229 432 247 q 311 193 389 193 m 247 654 l 250 738 l 250 756 q 310 765 268 765 q 393 747 351 765 q 435 682 435 728 q 417 625 435 653 q 315 579 392 579 q 256 583 283 579 q 247 654 247 611 m 293 347 q 281 263 281 285 l 281 231 q 283 216 281 218 q 289 211 286 214 q 313 207 294 207 q 407 238 381 207 q 410 326 426 265 q 349 344 393 343 q 293 347 304 346 m 289 601 l 290 593 l 315 593 q 404 632 383 593 q 421 682 421 658 q 329 724 421 724 q 293 719 304 724 l 293 706 l 289 601 z "},"C":{"ha":678,"x_min":29,"x_max":697,"o":"m 32 744 l 31 760 q 49 843 31 806 q 315 1022 113 1022 q 580 911 463 1022 q 697 660 697 800 q 675 544 697 606 q 581 535 635 535 q 450 550 526 535 l 447 572 q 438 574 442 574 q 431 576 435 575 q 426 579 428 578 q 424 584 425 581 q 422 590 422 588 q 420 598 421 592 q 419 608 419 604 q 417 622 418 613 q 417 639 417 632 q 416 665 417 646 q 413 692 415 683 q 407 711 411 700 q 362 733 400 733 q 306 715 324 733 q 297 626 301 711 q 292 494 292 542 l 292 371 q 296 293 292 310 q 304 260 300 276 q 347 224 313 228 q 400 241 382 224 q 422 280 418 258 q 429 344 425 301 q 439 413 433 386 q 496 408 468 408 l 561 410 q 646 401 614 410 q 649 390 647 397 q 653 378 650 382 l 674 374 q 693 263 693 319 q 594 27 693 115 q 339 -61 496 -61 q 137 1 226 -61 q 36 168 47 64 q 29 413 29 307 q 32 744 29 519 m 564 396 l 490 394 q 450 397 475 394 q 442 338 444 378 q 435 274 439 297 q 408 230 431 250 q 349 210 386 210 q 290 232 311 210 q 260 300 268 254 q 249 468 249 361 q 253 640 249 575 q 268 753 260 744 q 331 775 290 775 q 390 764 372 775 q 416 730 408 753 q 426 687 424 707 q 431 636 429 667 q 435 590 432 606 q 547 576 496 576 q 638 585 597 576 q 656 688 656 633 q 553 914 656 819 q 315 1008 451 1008 q 61 839 121 1008 q 44 774 44 799 q 46 746 44 750 q 43 415 43 521 q 50 169 43 308 q 135 28 58 75 q 311 -19 211 -19 q 556 65 460 -19 q 651 290 651 150 q 636 389 651 343 q 564 396 610 396 z "},"D":{"ha":669,"x_min":40,"x_max":683,"o":"m 89 -11 l 65 -12 q 40 453 40 169 l 43 819 q 42 933 43 910 q 43 960 42 957 q 53 972 44 964 q 213 989 113 989 l 342 986 q 396 988 378 986 q 506 927 451 971 q 586 836 560 883 l 585 836 q 671 628 644 746 l 669 629 q 683 536 681 596 q 681 454 682 511 q 664 278 675 336 q 479 -35 613 132 q 93 -40 433 -36 l 89 -11 m 394 974 l 354 972 l 217 975 q 60 960 121 975 q 56 954 56 956 q 57 821 57 910 l 54 447 q 78 1 54 160 l 79 3 q 444 7 322 3 q 621 301 578 175 l 622 304 q 638 457 635 369 q 642 565 640 544 q 546 857 633 721 q 480 931 521 899 q 394 974 439 963 m 253 407 l 256 583 q 253 668 256 615 l 253 674 l 257 674 q 310 678 282 678 q 402 643 367 678 q 447 567 438 608 q 457 470 457 526 q 418 353 457 414 q 353 300 382 300 l 350 300 q 298 296 326 296 q 256 308 269 296 q 253 407 253 372 m 293 332 l 294 310 l 301 310 q 329 312 306 310 q 353 313 353 314 q 356 313 353 313 q 369 321 358 313 l 368 321 q 407 361 389 333 l 407 360 q 443 484 443 414 q 401 626 443 554 l 388 633 q 340 636 354 636 q 294 633 325 636 q 297 546 297 581 l 293 332 z "},"E":{"ha":668,"x_min":40,"x_max":688,"o":"m 657 188 l 658 175 q 685 176 675 175 l 685 160 q 688 74 688 118 q 671 -37 688 29 l 307 -42 q 76 -33 183 -42 l 76 -7 q 49 -6 76 -7 l 40 610 q 51 971 40 785 q 538 983 311 983 q 653 967 647 983 q 667 947 653 953 q 681 939 681 940 q 686 867 686 907 l 681 728 q 501 711 610 711 l 451 711 l 397 713 q 311 708 356 713 l 307 608 l 307 596 l 332 594 l 386 596 q 456 592 393 596 q 468 565 456 565 l 483 564 q 490 479 490 528 l 488 347 q 387 335 449 336 q 318 333 325 335 q 314 270 314 313 q 315 210 314 228 q 547 201 482 201 q 657 204 613 201 l 657 188 m 264 0 l 632 4 q 646 101 646 58 q 643 186 646 144 l 643 189 q 583 188 622 188 l 279 196 l 278 197 q 272 287 272 232 q 278 371 272 342 q 352 378 286 378 q 446 386 418 378 l 447 507 q 443 579 447 556 l 443 581 q 272 585 347 581 l 271 586 q 265 639 265 607 l 269 749 q 368 753 286 753 l 478 753 q 639 767 579 753 l 639 768 l 643 900 q 639 965 643 932 q 480 969 639 969 q 64 957 321 969 q 56 624 56 822 l 63 7 q 264 0 144 0 z "},"F":{"ha":686,"x_min":43,"x_max":725,"o":"m 506 578 l 526 581 q 536 517 536 551 l 533 403 l 536 338 q 408 307 536 317 l 351 303 q 342 17 342 163 l 342 -39 q 185 -46 281 -46 q 71 -32 90 -46 l 71 -14 q 43 -4 49 -10 l 46 957 q 386 982 178 982 q 694 958 594 982 l 694 936 q 722 931 700 933 l 725 796 q 721 701 725 764 q 560 693 704 700 q 347 679 415 686 q 339 638 339 649 q 338 622 339 628 q 338 613 338 615 q 340 608 339 611 q 358 601 343 601 q 499 608 444 601 q 506 578 503 599 m 313 342 l 490 363 q 494 365 494 363 q 492 417 492 396 l 494 542 q 490 593 494 581 q 428 589 467 589 q 372 589 390 589 q 341 590 353 589 q 317 597 329 590 q 301 618 304 604 q 297 663 297 632 q 310 719 297 693 q 681 742 378 726 q 682 786 682 754 l 682 843 l 681 947 q 390 968 597 968 q 60 944 183 968 l 60 746 l 57 158 l 58 1 q 159 -4 68 -4 q 300 1 250 -4 q 311 342 303 247 l 313 342 z "},"G":{"ha":668,"x_min":24,"x_max":679,"o":"m 319 410 l 321 443 q 319 496 321 469 l 324 496 q 328 493 328 496 q 443 511 346 511 l 622 503 l 639 501 q 642 475 639 494 l 667 474 q 679 265 679 333 q 668 144 679 196 q 340 -64 646 -64 q 120 35 203 -64 q 38 278 38 133 q 24 537 24 394 q 33 736 24 679 q 332 989 72 989 q 572 904 474 989 q 669 685 669 819 l 669 661 q 663 625 669 629 q 650 618 656 621 q 625 613 642 613 l 572 613 q 465 618 503 613 q 463 628 464 619 q 456 640 461 638 q 438 646 451 643 q 403 718 418 710 q 358 733 375 733 l 333 733 q 324 732 326 733 q 317 729 321 731 q 313 726 314 728 q 308 720 311 724 q 304 713 306 717 q 296 689 299 696 q 269 433 269 601 l 269 351 q 297 203 269 249 l 313 199 q 342 197 318 197 q 388 208 365 197 q 419 233 411 218 q 435 289 428 247 l 408 289 q 354 296 374 289 q 347 316 353 313 q 335 321 342 319 q 326 324 329 322 q 319 410 319 372 m 440 497 q 333 481 358 497 l 333 479 q 336 424 336 464 l 336 385 q 339 333 336 347 q 367 331 343 331 l 422 332 q 435 332 428 332 q 447 307 447 332 q 415 207 447 231 q 344 183 383 183 q 286 194 304 183 q 257 226 268 204 q 239 267 246 249 q 226 392 226 306 l 228 461 q 239 651 228 563 q 268 757 250 739 q 319 775 286 775 l 354 774 q 449 658 415 774 q 556 653 492 653 q 624 660 619 653 q 628 713 628 685 q 544 906 628 838 q 331 975 461 975 q 135 919 201 975 q 64 815 85 885 q 40 689 43 743 q 36 583 36 614 l 38 503 l 38 425 q 54 225 38 301 q 84 123 71 149 q 118 66 97 97 q 167 18 139 35 q 313 -22 232 -22 q 626 174 604 -22 q 638 301 638 225 q 626 488 638 376 l 622 489 l 440 497 z "},"H":{"ha":693,"x_min":40,"x_max":693,"o":"m 693 -32 q 471 -43 639 -43 l 467 -14 q 443 -15 450 -14 q 431 179 433 56 q 424 347 428 303 q 369 350 393 350 q 313 343 346 350 q 311 275 311 322 l 314 110 q 304 -26 314 22 q 236 -42 279 -42 l 142 -36 q 90 -50 117 -36 q 88 -11 88 -39 q 63 -22 75 -14 q 40 821 40 242 q 42 983 40 939 l 63 985 q 100 981 81 981 l 192 986 q 208 986 201 986 q 222 985 215 986 q 233 983 229 985 q 240 978 236 981 q 251 956 249 971 q 276 950 274 950 q 285 791 281 908 q 303 610 290 674 l 318 610 q 396 615 361 610 l 406 615 q 414 818 414 715 q 410 976 414 921 q 543 996 476 996 q 628 993 610 996 l 628 967 q 656 965 644 967 l 693 -32 m 271 129 l 268 292 q 272 382 268 336 q 349 392 310 392 q 433 385 389 392 l 435 383 q 444 195 442 326 q 456 0 446 64 l 457 0 q 497 1 468 1 l 547 1 q 651 8 611 1 l 614 981 q 540 982 599 982 q 424 965 481 982 q 428 796 428 882 q 418 603 428 710 l 417 603 q 328 596 368 596 q 267 601 288 596 l 265 601 q 248 788 253 665 q 236 967 243 911 q 186 972 218 972 q 149 971 186 972 l 103 968 l 90 967 q 60 971 75 967 l 56 969 q 54 821 54 925 q 75 1 54 251 q 106 7 85 7 l 211 0 q 264 10 249 0 q 271 129 271 58 z "},"I":{"ha":361,"x_min":39,"x_max":350,"o":"m 78 997 l 242 990 l 322 990 l 322 963 l 350 963 l 350 943 l 340 269 q 349 -26 340 117 q 247 -49 326 -49 l 126 -46 q 67 -53 96 -46 q 67 -36 67 -47 q 68 -19 68 -25 q 39 -25 44 -22 q 49 236 49 118 l 39 715 q 53 994 39 851 q 78 997 72 997 m 299 310 l 308 971 l 308 976 l 243 976 l 71 983 l 65 983 l 65 981 q 53 717 53 868 l 63 228 q 54 -6 63 111 q 86 -3 74 -3 l 225 -8 q 307 7 292 -8 q 299 310 299 157 z "},"J":{"ha":643,"x_min":-10,"x_max":639,"o":"m 368 772 l 374 976 l 374 1000 l 604 1003 l 604 975 l 632 975 l 632 892 l 639 508 q 636 372 639 508 q 610 142 632 199 q 541 24 576 53 q 468 -18 506 -4 q 310 -53 404 -53 q 153 -17 217 -53 q 56 79 89 18 q -10 358 -10 196 l -8 411 q 101 421 24 421 q 235 408 179 421 l 235 385 q 263 381 247 381 l 263 361 q 267 309 263 336 q 276 275 272 282 q 285 258 279 268 q 318 243 294 243 q 375 328 367 243 q 369 617 369 490 q 368 772 368 743 m 596 528 l 589 919 q 590 989 589 965 l 388 986 l 388 976 q 383 673 383 847 q 389 328 383 499 q 367 258 385 286 q 318 229 350 229 q 221 389 231 229 l 221 397 q 99 407 156 407 q 6 400 43 407 q 4 357 4 385 q 43 129 4 231 q 175 0 82 28 q 299 -11 231 -11 q 435 22 367 -11 q 542 111 511 51 q 568 171 557 143 q 584 244 579 199 q 591 315 589 289 q 594 390 593 340 q 596 457 594 440 l 596 528 z "},"K":{"ha":638,"x_min":40,"x_max":690,"o":"m 472 982 l 564 983 q 660 976 613 983 q 656 965 658 972 q 651 953 653 958 q 688 949 663 951 q 563 683 656 846 q 449 472 469 519 l 690 -32 q 594 -43 646 -43 l 471 -39 q 449 -11 463 -31 l 443 -11 q 299 253 372 64 l 304 -32 q 197 -44 263 -44 q 74 -32 131 -44 q 61 -6 71 -10 q 55 -6 60 -6 q 46 -4 50 -6 q 40 278 40 117 l 49 985 l 82 985 l 263 982 l 263 954 l 290 954 q 292 774 292 900 l 292 717 q 333 794 306 742 q 446 983 394 913 l 472 982 m 263 7 l 257 297 q 258 365 257 343 q 336 201 269 346 q 450 3 403 56 q 582 -1 554 -1 q 643 6 610 -1 l 406 499 q 524 718 431 558 q 642 965 617 878 q 574 969 608 969 l 489 968 q 453 969 464 968 q 359 808 418 919 q 258 643 300 696 l 251 635 q 250 738 250 668 l 250 865 q 249 968 250 935 l 89 971 q 65 966 68 971 q 62 950 61 961 q 63 936 63 939 l 54 279 q 60 7 54 128 q 167 -3 106 -3 q 263 7 229 -3 z "},"L":{"ha":640,"x_min":36,"x_max":679,"o":"m 675 114 l 676 100 l 676 99 q 679 12 679 32 q 674 -23 679 -8 q 662 -40 669 -37 q 643 -42 654 -42 q 625 -42 633 -42 q 601 -40 625 -42 l 311 -44 q 64 -43 158 -44 l 64 -15 l 36 -15 l 36 24 q 46 501 46 219 q 40 986 46 782 q 160 1003 81 1003 q 290 981 240 1003 l 289 963 q 318 953 308 958 q 315 788 315 853 l 319 292 l 319 236 q 565 225 508 225 q 651 228 621 225 l 651 197 l 679 200 l 675 114 m 635 126 l 633 140 q 635 176 633 153 q 638 211 638 200 q 617 210 635 210 l 319 222 q 278 219 297 222 l 278 221 l 279 329 l 274 806 q 276 972 274 864 q 161 989 236 989 q 54 976 86 989 q 60 460 60 700 q 50 24 60 219 l 50 -1 q 315 -4 253 -4 q 440 -3 378 -4 q 535 0 503 -1 q 578 1 568 1 l 608 0 q 632 8 626 0 q 638 38 638 17 q 635 126 638 60 z "},"M":{"ha":696,"x_min":43,"x_max":682,"o":"m 679 835 l 682 542 q 679 413 682 442 l 675 -44 q 586 -39 636 -39 l 464 -42 q 463 -12 463 -32 l 436 -14 q 431 210 432 60 q 429 406 431 360 q 417 372 419 382 q 410 353 414 363 q 403 337 406 343 q 397 324 400 331 q 390 312 393 317 q 383 303 388 307 q 369 296 376 296 q 342 324 358 296 q 292 394 321 325 q 290 268 290 361 q 304 -36 290 175 q 189 -44 250 -44 l 147 -46 q 74 -14 74 -46 l 67 -14 q 49 0 56 -14 q 43 310 43 14 q 47 963 43 606 q 132 975 85 975 l 217 972 q 257 974 242 972 q 276 944 267 960 l 285 946 q 319 888 306 922 q 342 825 332 854 q 356 786 351 796 q 428 978 386 921 q 461 975 447 975 l 653 982 l 651 954 l 681 954 q 679 835 679 919 m 450 0 l 538 1 l 588 1 q 633 -1 603 1 l 638 442 q 640 578 640 472 l 638 863 q 639 968 638 933 l 456 961 q 433 963 436 961 q 384 840 413 935 q 351 746 356 744 q 323 792 342 746 q 283 892 304 838 q 251 960 263 946 l 250 960 q 201 958 235 958 l 151 960 l 129 960 q 61 953 83 960 q 57 299 57 597 q 67 0 57 0 l 171 -1 q 261 4 224 -1 q 249 311 249 194 q 257 531 249 428 l 261 517 q 273 483 264 510 q 290 435 282 457 q 308 389 299 414 q 343 338 332 338 q 388 431 353 338 q 431 540 422 525 q 445 237 442 449 q 450 0 449 25 z "},"N":{"ha":692,"x_min":40,"x_max":676,"o":"m 675 56 l 676 0 l 675 -39 q 664 -42 672 -39 q 617 -49 640 -49 l 481 -42 q 468 -14 472 -28 l 453 -14 q 396 108 432 32 q 292 346 315 278 q 294 -39 292 31 q 219 -49 265 -49 l 72 -40 l 72 -12 l 44 -12 l 44 99 l 40 600 q 54 983 40 818 q 123 992 88 992 q 207 984 158 992 q 258 965 256 976 q 274 945 261 951 q 286 938 286 939 q 429 624 324 847 l 429 653 l 425 854 q 425 871 425 861 l 428 960 l 428 990 q 534 1000 476 1000 q 647 989 592 1000 l 647 965 q 675 961 664 961 l 675 503 l 676 265 l 675 186 l 675 56 m 461 0 l 589 -7 q 635 0 614 -7 l 635 28 l 633 139 l 635 293 l 635 413 q 633 531 635 492 l 633 978 q 542 986 594 986 q 442 978 489 986 q 439 854 439 886 l 443 653 q 433 576 443 583 q 378 681 431 576 q 317 808 326 785 q 292 860 307 832 q 278 890 278 889 l 263 922 q 244 964 258 931 q 200 974 244 969 q 123 978 156 978 q 67 972 90 978 q 54 600 54 821 l 58 99 l 58 1 l 192 -7 q 253 0 226 -7 q 251 53 251 15 l 251 115 q 261 468 251 468 q 279 426 265 468 l 293 385 q 385 168 328 292 q 461 0 442 44 z "},"O":{"ha":671,"x_min":25,"x_max":675,"o":"m 442 583 q 431 683 442 646 q 406 731 419 721 q 372 740 392 740 q 293 707 329 740 q 244 621 257 674 q 233 407 225 542 q 244 317 238 386 q 263 206 251 233 q 335 189 289 189 q 417 226 382 189 q 441 281 438 254 q 444 417 444 307 l 444 483 l 442 578 l 442 583 m 338 -61 q 71 74 136 -61 l 71 72 q 36 190 43 117 q 32 322 32 242 q 25 576 25 440 q 40 783 25 713 q 142 944 67 901 q 317 988 229 988 q 582 892 503 988 q 651 793 628 846 q 675 621 675 740 q 667 285 672 342 l 663 239 q 607 44 651 111 q 492 -35 568 -10 q 338 -61 417 -61 m 458 417 q 450 260 458 283 q 326 175 422 175 q 222 236 247 175 q 199 347 204 282 q 192 446 194 413 q 189 503 189 479 q 343 782 189 782 q 456 578 456 782 l 458 483 l 458 417 m 333 972 q 117 907 182 972 q 63 806 76 861 q 53 770 57 783 q 46 730 49 757 q 42 692 43 703 q 40 652 40 682 q 39 617 39 622 l 39 544 q 50 233 39 511 q 119 35 53 90 q 310 -19 185 -19 q 459 6 386 -19 q 568 81 532 31 q 621 268 611 147 l 625 314 q 632 649 632 393 q 607 822 632 771 q 504 935 581 897 q 333 972 428 972 z "},"P":{"ha":690,"x_min":38,"x_max":714,"o":"m 75 -32 q 60 -4 75 -4 l 47 -4 q 42 471 42 131 l 42 639 q 38 976 42 872 q 256 1006 143 1006 q 468 970 369 1006 q 637 853 567 935 q 714 654 707 771 l 714 653 q 609 419 714 518 q 369 319 504 319 q 335 321 346 319 l 335 263 q 339 -26 335 129 q 282 -33 333 -26 q 182 -39 231 -39 q 75 -32 133 -39 m 61 8 q 188 3 99 3 q 297 17 276 3 q 293 272 293 151 l 293 326 q 292 365 293 353 q 342 361 317 361 q 568 450 464 361 q 672 661 672 539 l 672 682 q 631 828 668 765 q 532 925 593 890 q 253 992 411 992 q 51 965 154 992 q 57 472 57 810 l 57 228 q 61 8 57 111 m 256 671 l 256 724 q 254 771 256 747 q 322 779 263 779 q 429 740 382 779 q 472 660 472 714 q 397 572 472 590 q 271 563 353 563 l 267 563 q 256 671 256 596 m 444 615 q 458 667 458 633 q 422 719 458 701 q 350 738 386 738 q 296 732 314 738 q 297 672 297 711 l 297 632 q 300 578 297 589 l 307 578 q 444 615 418 578 z "},"Q":{"ha":688,"x_min":28,"x_max":692,"o":"m 685 293 q 639 83 685 179 q 663 33 663 60 q 626 -23 663 7 q 551 -53 589 -53 q 499 -15 531 -53 q 361 -51 443 -51 q 228 -24 279 -51 q 119 60 176 4 q 45 184 63 117 q 28 350 28 251 l 28 543 q 58 863 28 751 q 160 965 78 925 q 339 1006 242 1006 q 483 993 436 1006 q 567 935 529 981 q 692 483 692 839 l 685 293 m 650 511 q 610 836 650 710 q 514 965 567 939 q 354 992 461 992 q 169 954 247 992 q 72 858 92 917 q 42 529 42 749 l 42 326 q 67 165 42 238 q 162 42 93 93 q 336 -10 231 -10 q 417 3 376 -10 q 472 33 457 15 q 499 4 482 19 q 524 -11 515 -11 q 588 15 554 -11 q 621 67 621 42 q 594 108 621 76 q 633 229 628 188 q 643 306 642 260 q 647 387 644 351 q 650 511 650 422 m 427 310 q 423 316 427 310 q 408 322 418 322 q 390 317 399 322 q 373 304 382 313 q 359 292 364 296 q 340 281 354 289 q 319 267 325 274 q 314 249 314 261 q 374 161 314 221 q 361 160 371 160 l 349 160 q 242 206 272 160 q 211 376 211 253 q 219 660 211 569 q 248 767 228 750 q 338 785 268 785 q 435 756 408 785 q 467 672 461 728 q 478 417 478 525 q 464 253 478 310 q 445 281 454 263 q 427 310 436 299 m 254 413 l 253 340 q 265 214 253 256 l 264 215 q 343 174 276 174 q 300 242 300 217 q 309 276 300 267 q 335 294 318 286 q 364 314 353 303 q 407 336 393 336 q 434 321 421 336 q 456 301 447 306 q 461 344 458 339 q 463 397 463 360 l 463 501 q 436 729 463 685 q 358 743 413 743 q 287 728 304 743 q 262 625 269 713 q 254 449 254 538 l 254 413 z "},"R":{"ha":719,"x_min":29,"x_max":765,"o":"m 249 776 q 347 799 299 799 q 425 770 394 799 q 456 692 456 742 q 427 622 456 643 q 345 601 399 601 q 257 606 292 601 l 256 606 q 251 693 251 629 q 249 776 250 757 m 292 635 l 293 615 l 335 615 q 394 619 365 615 q 443 693 443 629 q 375 757 443 757 q 290 739 336 757 q 293 675 293 703 l 292 635 m 190 -43 l 129 -42 l 49 -42 q 47 29 47 -14 q 47 142 47 72 q 47 328 47 213 q 42 682 47 443 q 29 982 38 921 q 310 1010 224 1010 q 640 893 540 1010 q 740 669 740 769 q 681 482 740 568 q 519 385 621 396 q 600 258 547 336 q 757 -19 717 89 l 765 -37 l 746 -37 l 578 -43 q 504 -40 549 -43 q 500 -31 503 -37 q 494 -22 497 -25 q 476 -12 490 -12 q 328 276 404 158 l 328 240 l 339 -21 q 190 -43 293 -43 m 69 1 l 154 -1 q 297 15 263 -1 q 286 236 286 153 q 290 354 286 319 l 293 350 q 486 1 386 235 l 488 1 q 562 -1 535 -1 q 642 1 589 -1 q 717 4 694 4 q 583 247 683 94 q 469 424 483 399 l 476 425 q 639 515 581 433 q 697 702 697 597 q 615 896 697 807 q 411 990 533 985 q 293 996 365 996 q 46 971 221 996 q 61 282 61 890 l 61 139 q 60 46 61 72 l 60 3 q 69 1 64 1 z "},"S":{"ha":674,"x_min":1,"x_max":692,"o":"m 83 304 l 243 301 q 247 274 243 286 l 271 274 q 286 226 271 239 q 332 213 301 213 q 383 229 363 213 q 404 269 404 246 q 400 304 404 292 q 385 325 396 317 q 367 339 375 333 q 342 349 360 344 q 317 356 325 354 q 289 362 310 358 q 264 367 268 365 l 243 371 q 114 449 178 385 q 17 671 17 542 q 111 892 17 800 q 346 985 206 985 q 589 906 486 985 q 692 696 692 828 q 683 617 692 661 l 672 617 q 552 607 611 607 q 444 621 493 607 q 446 642 446 625 q 417 649 426 644 q 418 667 418 653 q 365 715 418 715 q 318 699 338 715 q 299 660 299 682 q 301 631 299 639 q 311 620 304 624 q 322 615 318 617 q 351 611 332 611 q 583 487 482 592 q 685 252 685 382 q 596 37 685 122 q 374 -49 507 -49 q 121 42 240 -49 q 1 261 1 133 l 3 279 l 3 299 q 83 304 40 304 m 229 288 l 89 290 q 17 286 50 290 l 17 263 q 122 67 17 140 q 351 -7 226 -7 q 560 72 476 -7 q 643 277 643 150 q 556 494 643 404 q 350 597 468 583 q 257 679 257 607 q 281 737 257 717 q 340 757 304 757 q 406 735 376 757 q 435 676 435 713 q 433 660 435 664 q 526 647 479 647 q 642 658 572 647 l 643 658 q 650 724 650 697 q 562 909 650 847 q 342 971 474 971 q 120 883 210 971 q 31 669 31 796 q 80 508 31 589 q 218 413 129 428 q 251 406 225 411 q 286 399 276 401 q 318 390 296 396 q 351 378 340 383 q 376 362 361 372 q 400 340 392 351 q 418 275 418 313 q 393 218 418 238 q 330 199 368 199 q 262 222 292 199 q 229 288 232 244 z "},"T":{"ha":615,"x_min":-1,"x_max":644,"o":"m 614 953 l 629 951 l 642 939 q 644 842 644 892 q 633 706 644 792 q 560 713 589 713 q 467 708 531 713 l 460 708 q 458 599 458 696 q 468 -32 458 503 q 381 -37 436 -37 l 340 -37 q 219 -44 263 -37 q 213 -14 215 -37 q 192 -17 211 -14 q 185 36 185 -4 l 186 249 q 174 710 186 447 q 103 711 160 711 q 38 719 47 711 q 35 726 36 722 q 33 733 35 731 q 10 747 33 739 q -1 866 -1 772 q 0 992 -1 960 l 265 994 q 601 979 467 994 l 614 967 l 614 953 m 426 11 q 417 641 417 544 q 421 750 417 738 l 425 750 q 535 754 497 754 q 594 750 572 754 q 603 862 603 811 q 600 965 603 913 q 342 979 463 979 q 138 978 221 979 q 14 978 54 978 l 15 975 q 13 864 13 956 q 21 757 13 772 q 93 754 25 756 q 188 740 161 753 l 189 739 q 200 239 200 486 l 197 13 q 199 -1 197 10 q 253 3 224 3 l 311 3 q 426 8 393 3 l 426 11 z "},"U":{"ha":701,"x_min":38,"x_max":700,"o":"m 265 926 l 294 919 q 307 231 278 618 q 342 206 311 206 q 422 264 408 206 q 430 619 428 388 q 435 946 432 850 q 574 957 510 957 q 660 940 638 957 l 665 929 l 665 922 q 688 913 681 918 l 693 901 q 700 573 700 753 q 676 181 700 393 q 585 4 663 72 q 381 -64 507 -64 q 149 10 256 -64 q 38 204 43 85 l 44 817 q 43 958 44 915 l 154 961 q 267 947 219 961 l 265 926 m 58 813 l 51 204 q 148 37 54 96 q 361 -22 242 -22 q 551 40 481 -22 q 635 210 622 103 q 658 593 658 406 q 651 929 658 781 q 576 943 629 943 q 449 933 524 943 q 444 624 447 860 q 436 261 442 389 q 403 210 429 229 q 347 192 378 192 q 265 254 283 192 q 247 651 247 471 q 253 936 247 832 l 253 938 q 160 947 215 947 l 57 944 l 56 944 l 57 943 l 58 813 z "},"V":{"ha":611,"x_min":8,"x_max":660,"o":"m 426 -40 l 328 -46 q 200 -31 240 -46 q 197 -20 199 -28 q 172 -3 194 -12 q 8 951 49 440 q 119 981 33 981 q 232 974 204 981 q 240 950 235 954 q 260 946 244 946 q 271 748 264 925 q 304 426 278 571 q 350 686 311 457 q 408 979 389 915 q 526 969 457 969 q 621 964 594 968 l 632 947 q 631 939 631 946 q 649 936 636 936 l 660 919 q 426 -40 592 556 m 300 -4 l 388 1 q 618 950 551 596 q 519 956 588 956 q 418 963 451 956 q 415 960 415 963 q 365 682 397 892 q 293 310 332 472 q 228 836 238 542 q 219 961 224 940 q 120 967 203 967 q 22 947 38 967 l 22 946 q 185 7 63 447 q 300 -4 218 -4 z "},"W":{"ha":646,"x_min":18,"x_max":661,"o":"m 632 956 l 651 954 l 661 938 q 615 467 649 790 q 568 -32 582 143 q 519 -37 547 -37 l 435 -37 q 418 -10 431 -32 l 407 -10 q 376 52 386 19 q 359 117 367 85 q 347 161 351 149 q 333 100 342 142 q 290 -31 315 8 q 217 -39 247 -39 q 149 -33 188 -39 l 144 -8 q 121 -6 140 -8 l 103 121 q 18 979 22 686 q 122 988 68 988 l 243 983 q 249 958 243 961 q 256 955 254 956 q 264 955 258 954 q 271 956 269 956 q 278 724 278 878 l 278 642 q 281 521 278 547 q 324 661 294 632 q 346 628 336 649 l 351 633 q 396 521 374 617 q 414 975 407 903 q 520 986 463 986 q 624 982 578 986 l 633 965 l 632 956 m 619 967 q 540 972 614 972 q 426 964 465 972 l 426 963 q 415 667 419 882 q 401 372 410 453 q 376 461 393 394 q 325 643 332 638 q 260 390 325 629 q 236 678 236 481 l 236 832 q 231 969 236 915 q 104 974 131 974 q 32 967 78 974 l 32 965 q 59 558 36 740 q 88 329 82 375 q 112 161 94 283 q 133 7 129 39 l 135 7 q 192 3 167 3 q 256 10 217 3 q 290 126 268 31 q 331 240 313 222 l 332 240 q 373 121 349 215 q 414 4 397 26 l 506 4 q 528 7 514 4 q 574 498 542 178 q 619 967 607 818 z "},"X":{"ha":606,"x_min":-21,"x_max":651,"o":"m 28 -6 q -4 4 21 -3 q 66 221 10 57 q 143 482 122 385 q 92 673 125 583 q 54 778 60 763 q 7 897 32 839 l -21 969 q 138 976 79 976 l 164 976 q 178 976 167 976 q 199 976 190 976 q 217 968 208 975 q 226 947 226 961 q 289 800 254 944 q 310 715 304 732 q 348 849 322 756 q 386 979 374 942 q 568 985 451 985 l 624 985 l 624 965 l 621 957 l 651 957 l 651 938 q 599 789 636 892 q 501 447 524 582 q 571 181 521 351 q 635 -42 621 11 q 581 -37 597 -37 l 492 -40 q 468 -40 478 -40 q 449 -40 458 -40 q 436 -37 440 -39 q 425 -31 432 -35 q 410 -8 415 -25 q 361 78 381 -4 q 324 232 329 214 q 291 117 317 213 q 238 -39 265 22 q 135 -42 196 -42 q 24 -24 74 -42 q 28 -6 28 -15 m 464 1 l 553 4 l 571 4 q 589 3 585 4 q 557 118 579 40 l 521 236 q 460 474 476 369 q 539 765 481 606 l 611 972 l 610 972 q 397 967 463 972 l 397 965 q 356 821 392 950 q 301 649 321 692 q 210 956 285 694 q 190 963 206 963 l 138 963 q -1 957 78 963 q 24 892 4 942 q 52 822 44 842 q 76 757 60 801 q 101 686 93 713 q 122 622 110 660 q 157 482 140 558 q 85 240 149 440 l 46 122 q 13 13 25 60 q 103 0 47 0 q 201 3 160 0 q 253 159 224 50 q 306 321 282 268 l 307 319 q 356 162 331 274 q 401 8 382 50 l 403 7 q 464 1 424 1 z "},"Y":{"ha":604,"x_min":-4,"x_max":667,"o":"m 4 975 l 142 983 q 224 949 217 983 q 247 940 235 946 q 324 704 267 847 q 371 839 340 743 q 417 968 401 935 q 524 979 460 979 q 639 975 589 979 l 639 957 l 636 950 q 667 947 658 947 l 667 929 q 460 435 614 758 q 253 -43 307 113 q 210 -40 238 -40 l 79 -44 q 24 -42 42 -44 l 32 -17 q -4 -14 26 -17 q 183 482 47 144 q 94 725 164 565 q 4 975 25 885 m 51 -3 l 182 1 l 200 1 q 217 0 213 1 q 420 470 269 153 q 625 961 571 788 l 625 963 q 538 965 603 965 q 426 956 474 965 q 374 809 414 926 q 314 654 335 692 q 253 806 288 711 q 207 958 219 900 q 152 969 183 969 q 81 965 121 969 q 22 961 40 961 q 110 722 42 882 q 197 482 178 563 l 197 479 q 15 -1 61 142 l 18 -1 q 35 -3 22 -3 l 51 -3 z "},"Z":{"ha":658,"x_min":-12,"x_max":671,"o":"m 671 874 l 668 715 l 667 707 q 482 426 597 588 q 343 231 367 265 q 497 236 411 236 q 597 238 583 236 q 615 238 611 239 q 635 208 631 233 l 658 208 q 665 124 665 167 q 656 -46 665 81 q 331 -36 483 -36 q 67 -43 178 -36 q 58 -14 61 -28 q 39 -15 43 -14 q 21 90 21 31 l 24 171 q 21 222 24 189 q 110 392 71 331 q 165 474 150 453 q 209 538 179 496 q 250 596 239 581 q 294 655 261 611 q 333 708 326 699 q 60 719 185 719 l 49 747 l 32 747 q 18 855 18 771 q -12 969 18 939 q 278 983 139 983 l 639 978 q 642 950 639 961 l 667 950 q 671 874 671 918 m 36 175 l 35 93 q 47 -1 35 36 q 333 6 196 6 q 615 -3 469 6 l 615 0 q 622 128 622 72 q 618 222 622 183 l 618 226 q 497 222 565 224 q 268 208 375 222 l 269 210 q 436 451 307 267 q 626 742 565 636 l 626 743 l 631 896 q 626 964 631 931 q 275 968 626 964 q 18 958 101 968 q 21 953 21 956 l 21 951 q 29 869 29 924 l 29 839 q 40 761 29 781 q 375 743 238 761 q 35 221 119 403 q 36 175 36 206 z "},"[":{"ha":446,"x_min":46,"x_max":454,"o":"m 311 771 l 292 772 q 286 615 286 700 q 297 204 286 531 q 359 199 318 201 q 417 196 400 197 q 422 172 417 175 q 444 168 426 168 q 451 46 451 96 q 449 -40 451 -4 l 301 -42 l 271 -42 q 74 -46 122 -42 l 74 -15 q 46 -18 57 -15 l 46 469 q 61 992 46 763 q 156 999 103 999 l 347 992 q 426 996 393 992 l 426 965 q 454 968 432 965 l 454 922 q 436 775 454 813 l 414 775 l 311 771 m 61 164 l 60 3 l 60 -3 q 164 0 101 0 l 408 0 q 410 72 410 18 q 404 183 410 126 q 360 186 390 185 q 256 197 286 189 l 256 199 l 244 639 q 251 814 244 746 l 253 814 q 276 813 263 813 l 376 818 l 400 817 l 404 817 q 413 889 413 844 l 413 981 q 349 978 399 978 l 160 985 q 74 979 113 985 l 74 978 q 60 468 60 769 l 61 164 z "},"\\":{"ha":572,"x_min":8,"x_max":583,"o":"m 99 997 l 164 996 q 221 1001 192 996 q 225 985 222 996 q 229 969 228 975 q 249 974 236 972 q 310 754 301 775 q 326 720 319 733 q 338 688 332 707 l 336 688 q 435 408 369 589 q 503 224 500 228 l 501 225 q 547 101 519 186 l 546 101 q 547 96 546 100 q 568 44 553 86 q 583 -20 583 3 q 568 -43 583 -43 q 474 -42 507 -42 q 426 -42 442 -42 q 389 -39 403 -43 q 374 -12 382 -32 q 350 6 356 -12 l 271 204 q 254 250 264 219 q 226 324 244 281 q 159 518 208 367 q 82 743 110 669 q 18 953 18 949 l 19 953 q 14 968 17 965 l 8 979 q 99 997 46 997 m 169 981 l 89 983 q 26 974 43 983 q 69 842 32 961 q 283 210 222 364 l 363 10 q 413 0 367 0 l 463 0 q 540 -1 508 0 l 542 -1 q 544 10 544 -1 q 506 125 544 21 q 461 247 482 200 q 278 769 379 461 q 247 859 271 781 q 210 985 222 938 q 169 981 190 981 z "},"]":{"ha":446,"x_min":19,"x_max":428,"o":"m 53 -40 l 50 -12 l 25 -12 q 22 74 22 24 q 29 196 22 124 q 72 199 43 197 q 176 210 129 201 l 188 636 q 183 771 188 704 l 86 775 l 60 775 q 53 803 56 783 l 32 803 q 19 950 19 838 l 19 996 q 99 992 53 992 l 290 999 q 385 990 344 999 q 389 968 385 969 q 413 963 400 963 q 426 483 426 774 l 426 151 q 425 110 425 133 l 428 -25 l 428 -46 q 231 -42 376 -42 l 200 -42 l 53 -40 m 201 639 l 190 199 l 190 197 q 108 187 160 189 q 42 183 56 185 q 36 72 36 126 q 38 1 36 18 l 172 0 l 282 0 q 386 -3 344 0 l 386 3 q 383 217 383 144 l 385 510 q 372 978 385 807 l 372 979 q 285 985 333 985 l 96 978 q 33 981 47 978 l 33 889 q 42 817 33 844 l 46 817 l 68 818 l 169 813 q 193 814 183 813 l 194 814 q 201 639 201 746 z "},"^":{"ha":611,"x_min":-11,"x_max":635,"o":"m 615 628 l 617 625 q 569 615 617 619 q 492 611 522 611 l 458 610 q 413 617 425 610 q 386 633 400 625 q 332 692 367 649 q 331 694 331 692 q 326 697 328 697 q 300 669 325 696 q 236 615 251 618 q 200 613 206 613 q 171 614 194 613 q 17 624 96 621 q 26 636 19 628 q 35 649 32 644 q 11 650 26 650 q -11 651 -4 650 q 82 765 35 715 q 206 885 129 815 q 306 976 282 954 l 635 647 l 615 628 m 15 664 q 174 656 154 656 q 205 657 194 656 q 253 699 215 658 q 301 743 290 739 q 347 697 311 738 q 393 657 383 657 q 456 653 419 653 q 524 656 493 653 q 572 662 554 658 q 594 665 590 665 l 597 665 l 306 957 q 228 886 279 932 q 149 813 178 840 q 15 664 64 732 z "},"_":{"ha":903,"x_min":43,"x_max":893,"o":"m 46 -219 l 43 -58 l 43 -44 q 348 -42 164 -44 q 628 -40 532 -40 q 791 -38 725 -39 q 865 -37 857 -37 q 861 -65 861 -50 l 893 -65 q 883 -167 883 -119 l 885 -250 l 186 -247 l 74 -247 l 72 -219 l 46 -219 m 714 -51 l 57 -58 l 57 -99 q 58 -165 57 -125 l 60 -206 l 115 -206 l 613 -208 l 843 -208 l 842 -129 q 849 -51 842 -99 l 714 -51 z "},"`":{"ha":354,"x_min":-1,"x_max":403,"o":"m 403 696 q 274 682 339 682 q 179 686 208 682 q 82 782 140 732 l 82 781 q -1 861 65 794 l 113 976 q 247 848 160 939 q 375 724 333 757 l 374 722 q 403 696 393 703 m 160 726 q 246 724 174 724 q 346 732 318 724 q 245 834 338 740 q 114 958 153 928 l 18 861 q 86 799 24 856 q 160 726 149 742 z "},"a":{"ha":661,"x_min":13,"x_max":656,"o":"m 624 693 l 625 678 l 639 678 l 651 665 q 654 631 654 643 l 654 617 q 653 508 653 579 l 656 196 q 653 61 656 114 q 651 -1 651 8 q 651 -13 651 -11 q 649 -20 650 -15 q 646 -27 647 -25 q 642 -33 644 -29 q 638 -37 640 -36 q 622 -43 635 -39 l 603 -43 l 513 -39 l 453 -43 q 424 -15 431 -37 q 401 0 406 -8 q 257 -44 329 -44 q 126 23 185 -44 q 40 183 68 90 q 13 369 13 276 q 91 615 13 526 q 290 704 169 704 q 351 699 329 704 q 390 671 372 693 q 392 690 390 685 q 394 701 393 696 q 396 707 394 706 q 399 711 397 708 q 403 714 400 714 q 418 717 411 717 l 461 713 l 474 713 q 611 706 510 713 l 624 693 m 615 238 l 611 546 q 613 644 611 611 l 613 658 q 610 692 613 669 q 474 699 571 694 l 458 699 l 421 700 q 401 633 401 700 l 401 626 q 366 672 389 657 q 323 688 343 686 q 260 690 303 690 q 94 597 161 688 q 26 369 26 507 q 115 61 26 178 q 231 -3 164 -3 q 328 20 278 -3 q 414 78 379 43 l 408 29 q 425 -1 408 6 l 485 3 l 575 -1 l 592 -1 q 610 36 610 3 l 610 56 q 615 238 615 138 m 206 420 q 210 436 206 420 q 247 478 214 453 q 322 504 281 504 q 377 502 364 504 q 398 481 390 500 q 406 444 406 461 q 407 386 407 428 l 407 328 q 392 223 407 254 q 321 192 378 192 q 231 235 264 192 q 197 333 197 278 q 206 420 197 388 m 393 379 l 394 419 q 376 461 394 457 q 363 463 371 463 q 285 440 314 463 q 247 385 256 418 l 247 383 q 239 314 239 356 q 321 206 239 206 q 378 228 358 206 q 392 277 390 244 q 393 343 393 310 l 393 379 z "},"b":{"ha":644,"x_min":33,"x_max":657,"o":"m 33 169 l 43 886 l 43 990 q 128 997 79 997 q 212 990 178 997 q 246 976 246 983 l 246 961 q 274 949 274 954 l 274 933 q 281 801 281 813 q 281 778 281 790 q 278 697 278 738 q 378 711 319 711 q 657 368 657 711 q 608 92 653 174 q 489 -22 563 3 q 379 -39 444 -39 q 279 11 314 -39 l 279 -15 q 244 -43 279 -43 q 193 -43 218 -43 l 63 -40 l 61 -12 l 35 -12 q 33 169 33 42 m 238 13 q 247 69 238 69 q 253 64 249 69 q 356 3 282 3 q 556 97 499 3 q 600 219 592 158 q 614 408 613 315 q 588 579 615 501 q 503 678 561 657 q 390 697 456 697 q 281 686 324 697 q 236 660 238 675 q 238 765 238 703 l 238 829 q 232 961 238 863 l 232 976 q 159 983 232 983 q 57 978 86 983 l 57 886 l 47 154 q 49 1 47 50 l 165 -1 q 210 -1 183 -1 q 238 13 238 -1 m 447 438 q 457 347 457 411 q 422 229 457 283 q 327 175 388 175 q 249 223 267 175 q 231 378 231 271 q 244 510 231 485 q 315 536 257 536 q 447 438 432 536 m 433 436 q 406 483 426 471 q 340 494 385 494 q 283 472 294 494 q 272 347 272 449 q 282 222 272 246 q 338 189 294 189 q 413 239 382 189 q 443 351 443 289 q 433 436 443 417 z "},"c":{"ha":614,"x_min":18,"x_max":629,"o":"m 599 265 l 597 256 q 615 253 610 256 l 626 238 q 585 13 613 43 q 389 -60 533 -60 q 288 -58 321 -60 q 204 -39 254 -56 q 122 11 154 -22 l 110 24 q 22 288 22 89 l 22 331 q 18 447 22 413 q 46 622 18 547 l 44 621 q 122 699 57 672 q 272 725 186 725 q 324 724 283 724 l 357 725 q 476 703 419 725 q 564 639 533 682 q 569 635 565 638 q 618 542 607 607 q 629 363 629 478 q 562 356 585 356 q 426 368 539 356 q 424 381 426 368 q 421 388 424 386 q 415 391 418 389 q 408 394 413 393 q 399 396 404 394 q 382 443 394 428 q 339 458 369 458 q 316 455 333 458 q 288 441 299 451 q 271 422 276 431 q 263 394 265 414 q 259 367 260 375 q 259 336 258 360 q 260 308 260 313 l 256 221 q 303 194 256 194 q 368 207 350 194 l 367 207 q 397 285 378 213 q 451 282 431 282 l 536 285 q 588 281 569 285 l 599 265 m 224 -12 l 363 -17 q 546 49 500 -17 q 585 267 571 74 q 532 271 565 271 l 429 268 q 408 269 413 268 q 380 201 399 222 q 316 179 361 179 q 243 197 271 179 q 215 251 215 215 q 226 436 215 400 q 315 501 244 501 q 411 408 394 501 q 526 396 483 396 q 588 401 569 396 q 570 594 582 556 q 533 651 558 633 q 351 711 472 711 l 299 710 q 271 711 281 710 q 83 653 135 711 q 32 449 32 594 q 36 369 36 411 l 35 290 q 128 25 35 92 q 224 -12 167 -3 z "},"d":{"ha":643,"x_min":15,"x_max":639,"o":"m 394 688 l 392 829 q 399 961 392 840 l 399 976 q 433 990 399 983 q 514 997 467 997 q 601 989 561 997 l 601 965 q 629 961 614 961 l 629 858 l 639 142 q 638 -40 639 14 l 507 -43 q 451 -43 482 -43 q 421 -15 421 -43 l 421 -12 l 403 -11 l 400 -8 q 310 -39 364 -39 q 125 42 190 -39 q 15 396 15 129 q 46 585 15 503 q 138 690 76 667 q 269 711 189 711 q 394 688 350 711 m 597 153 l 588 886 l 588 978 q 485 983 558 983 q 413 976 413 983 l 413 961 q 407 829 407 863 l 407 765 q 408 660 407 703 q 361 686 403 675 q 261 697 319 697 q 142 678 203 697 q 56 579 83 657 q 30 415 29 501 q 35 281 31 328 q 55 176 39 233 q 97 85 71 119 q 172 26 124 50 q 290 3 221 3 q 392 64 360 3 q 397 69 393 69 q 410 13 407 69 l 408 3 q 479 -1 439 -1 l 596 1 q 597 153 597 50 m 329 536 q 401 510 388 536 q 414 404 414 485 q 411 294 414 324 q 400 233 408 264 q 319 175 382 175 q 222 229 257 175 q 188 347 188 283 q 197 438 188 411 q 329 536 213 536 m 229 329 q 314 189 229 189 q 393 264 382 189 q 400 349 400 310 l 400 444 q 394 480 400 474 q 383 489 388 486 q 357 494 374 494 q 239 408 251 494 q 229 329 229 389 z "},"e":{"ha":617,"x_min":15,"x_max":633,"o":"m 600 275 l 599 251 l 628 247 q 597 36 628 96 q 562 -16 579 4 q 514 -44 544 -36 q 424 -60 463 -60 q 347 -60 385 -60 q 278 -58 310 -60 q 207 -40 247 -56 q 140 6 167 -25 q 46 157 76 58 q 15 381 15 256 q 47 592 15 506 q 149 694 76 658 q 310 729 221 729 q 551 632 468 729 q 633 392 633 535 q 629 321 633 383 q 289 303 567 303 q 258 304 268 303 l 258 281 q 283 172 258 214 l 283 169 q 329 160 301 160 q 376 187 357 160 q 396 268 396 214 l 396 282 q 442 279 426 279 l 538 282 q 600 275 561 282 m 532 268 l 432 265 q 411 267 415 265 l 411 256 q 387 174 411 201 q 328 146 363 146 q 217 324 221 146 l 217 349 q 379 344 233 344 q 589 360 525 344 q 592 443 592 401 q 579 535 592 485 q 536 628 567 586 q 310 715 474 715 q 156 681 226 715 q 60 588 86 647 q 28 357 28 501 q 76 107 28 213 q 228 -14 125 1 l 363 -18 q 547 47 501 -18 q 586 264 572 68 q 532 268 565 268 m 351 457 l 261 456 q 226 458 235 456 q 218 471 218 461 q 336 578 218 578 q 385 564 363 578 q 439 474 439 536 l 439 458 q 429 454 439 454 l 351 457 m 425 474 q 364 536 425 536 q 294 519 315 536 q 264 469 272 503 l 290 471 l 351 471 l 411 469 l 425 468 l 425 474 z "},"f":{"ha":526,"x_min":1,"x_max":571,"o":"m 557 604 l 558 594 l 558 565 q 555 516 558 547 q 551 440 551 485 q 342 453 361 453 l 342 -39 q 289 -35 310 -35 l 182 -42 l 160 -43 q 138 -33 142 -43 q 132 -12 133 -24 l 108 -11 q 101 189 101 31 l 103 401 l 103 451 l 33 450 l 32 479 l 6 478 l 1 675 l 100 675 q 136 838 100 761 q 254 943 172 915 l 254 942 q 463 971 340 971 q 529 969 511 971 q 532 958 531 967 q 535 949 533 950 q 557 942 542 942 q 571 865 571 904 q 566 782 571 826 q 561 725 561 738 q 519 726 551 726 q 376 710 486 726 q 343 671 346 704 l 536 671 q 531 643 531 650 l 564 643 q 557 604 557 610 m 147 0 l 268 7 q 300 6 290 7 l 300 494 q 510 483 336 493 q 517 568 517 551 l 517 636 q 518 657 517 653 l 306 657 q 301 690 301 674 q 346 751 301 746 q 501 768 456 768 l 519 768 q 529 884 529 843 q 519 956 529 925 q 463 957 499 957 q 260 931 340 957 q 147 837 181 904 q 114 689 114 769 q 115 660 114 669 q 68 661 100 661 l 15 661 l 19 492 q 71 493 38 493 l 118 493 l 115 181 q 121 1 115 39 q 147 0 131 0 z "},"g":{"ha":649,"x_min":17,"x_max":643,"o":"m 490 710 l 610 707 l 611 679 l 638 679 q 643 294 643 517 q 636 -87 643 72 l 636 -121 q 539 -296 636 -246 q 424 -322 488 -322 q 212 -297 292 -322 q 71 -179 132 -271 q 49 -72 49 -147 q 50 -49 49 -56 q 139 -35 83 -35 q 208 -37 194 -35 q 117 7 160 -25 q 57 78 74 39 q 17 246 24 142 q 36 494 17 419 q 108 636 63 590 q 261 704 168 696 q 390 661 347 704 q 400 704 390 686 q 490 710 450 710 m 285 -278 l 400 -279 q 522 -247 456 -279 q 575 -196 556 -231 q 594 -112 594 -161 l 594 -74 l 601 315 q 596 693 601 531 l 479 694 l 450 696 q 404 672 404 696 l 406 649 l 406 636 q 403 624 406 624 q 400 625 401 624 q 279 690 371 690 q 144 656 206 690 q 101 613 121 642 q 70 564 82 583 q 50 502 58 544 q 38 440 42 460 q 33 372 35 421 q 31 308 31 322 l 31 247 q 69 85 38 147 q 250 -3 113 -3 q 290 -1 260 -1 q 336 1 321 0 q 408 33 383 6 q 407 8 407 24 l 408 -25 q 324 -139 408 -139 q 265 -117 289 -139 q 240 -57 240 -96 q 169 -50 201 -50 q 132 -50 136 -50 q 61 -72 61 -50 q 126 -222 61 -165 q 285 -278 190 -278 m 415 324 l 414 249 q 369 161 406 175 q 324 156 351 156 q 224 203 260 156 q 188 317 188 250 l 188 356 q 224 467 188 415 q 317 519 260 519 q 386 481 365 519 q 403 444 396 461 q 415 324 415 414 m 229 313 l 229 289 q 325 171 229 171 q 382 188 369 171 q 400 250 394 204 q 382 469 400 393 q 335 478 365 478 q 282 457 304 478 l 285 458 q 229 313 229 394 m 394 -33 q 309 -44 358 -44 q 250 -43 260 -44 q 254 -54 253 -43 q 257 -68 256 -65 q 282 -72 272 -69 q 290 -112 282 -100 q 323 -125 299 -125 q 370 -106 347 -125 q 393 -56 393 -86 q 394 -44 393 -53 q 394 -33 394 -36 z "},"h":{"ha":622,"x_min":33,"x_max":619,"o":"m 36 -19 l 33 661 q 36 1019 33 960 q 86 1015 69 1015 q 134 1019 103 1015 q 204 1024 165 1024 q 244 1007 243 1024 l 244 996 q 267 982 263 993 q 274 963 272 971 q 276 938 276 954 l 276 908 l 275 825 q 274 738 275 793 q 274 661 274 682 q 430 701 335 701 q 567 639 525 701 l 583 626 q 619 393 619 599 l 614 76 q 617 -37 614 21 q 500 -44 567 -44 l 417 -44 q 415 -17 415 -35 l 389 -17 q 385 151 385 26 l 385 221 q 367 421 385 372 q 338 425 356 425 q 280 397 296 425 q 264 290 264 369 l 269 85 q 264 -19 269 25 l 264 -35 q 183 -47 215 -47 q 119 -44 183 -47 q 64 -47 85 -44 l 64 -17 q 36 -19 53 -19 m 572 90 l 578 414 q 546 644 578 615 q 417 688 499 688 q 361 681 381 688 q 333 672 342 675 q 306 660 324 669 q 283 649 289 651 q 232 619 253 633 l 232 1003 q 219 1011 232 1011 l 214 1011 q 140 1006 176 1011 q 85 1001 104 1001 q 50 1004 65 1001 q 47 685 47 838 l 47 493 l 50 -4 q 94 -3 67 -3 l 161 -4 q 222 4 190 -4 l 222 10 q 228 113 228 56 l 222 324 q 243 437 222 407 q 310 467 264 467 q 369 446 346 467 q 386 408 382 435 q 396 319 396 349 q 399 204 399 296 l 399 101 q 401 -3 399 17 l 482 -4 q 575 3 532 -4 q 572 90 572 56 z "},"i":{"ha":288,"x_min":31,"x_max":285,"o":"m 40 794 l 35 986 l 35 1015 l 251 1011 l 251 983 l 279 983 l 283 788 q 217 764 268 764 q 164 767 204 764 l 117 768 q 68 767 89 768 l 68 796 l 40 794 m 285 678 l 278 190 q 283 -24 278 67 q 143 -42 260 -49 l 110 -40 q 58 -47 79 -40 q 61 -12 58 -37 q 31 -19 40 -15 q 38 172 38 74 l 32 508 q 42 713 32 606 l 78 717 l 188 713 l 219 713 l 257 706 l 257 682 l 285 678 m 242 819 l 238 997 l 49 1001 l 49 979 l 54 810 l 78 810 l 188 806 q 242 819 233 806 m 236 232 l 243 694 l 243 699 l 188 699 l 60 703 l 54 703 l 54 701 q 46 511 46 628 l 51 171 q 46 0 51 76 q 68 1 49 1 l 178 -1 q 242 8 235 -1 q 236 232 236 107 z "},"j":{"ha":283,"x_min":-190,"x_max":278,"o":"m -122 -304 q -157 -275 -153 -304 q -190 -185 -190 -275 q -185 -114 -190 -158 q -181 -57 -181 -69 q -142 -58 -169 -58 q 33 -11 -4 -58 q 35 239 35 53 q 39 506 35 425 l 39 706 q 82 701 63 701 l 199 710 q 213 710 203 710 q 226 710 222 711 q 235 707 229 710 q 247 681 244 701 l 272 679 q 278 567 278 629 l 275 386 q 276 339 275 351 l 276 144 q 256 -167 276 -39 q -83 -303 200 -303 l -122 -304 m 206 696 l 83 689 q 53 690 63 689 l 53 504 q 49 247 49 432 l 49 110 q 47 -17 49 22 q -137 -74 10 -74 q -167 -72 -157 -74 q -178 -196 -178 -157 q -167 -260 -178 -235 q -111 -261 -149 -261 q 214 -137 164 -261 q 236 179 236 4 l 233 417 l 236 601 q 232 694 236 656 q 206 696 222 696 m 36 794 l 31 986 l 31 1015 l 243 1011 l 243 983 l 271 983 l 275 788 q 211 764 260 764 l 110 768 q 64 767 81 768 l 64 796 l 36 794 m 233 819 l 229 997 l 44 1001 l 44 979 l 50 810 l 74 810 l 181 806 q 233 819 225 806 z "},"k":{"ha":604,"x_min":33,"x_max":665,"o":"m 256 994 l 283 993 l 283 676 q 282 635 283 664 q 281 592 281 606 q 378 738 343 696 q 454 728 407 728 l 578 732 q 626 731 608 732 q 617 717 624 725 q 608 704 611 708 q 654 703 636 704 q 502 487 572 575 q 418 379 432 399 q 478 283 431 358 q 547 172 525 207 q 665 -42 607 74 l 494 -47 q 469 -47 479 -47 q 449 -47 458 -47 q 436 -45 440 -46 q 425 -42 432 -44 q 414 -36 418 -39 q 397 -15 403 -29 q 385 -12 386 -12 q 317 107 343 50 q 285 178 292 164 l 286 96 q 275 -43 286 13 q 213 -42 254 -42 l 190 -42 q 132 -44 146 -44 q 107 -45 118 -44 q 91 -45 96 -46 q 78 -42 86 -44 q 65 -15 65 -37 q 39 -12 58 -15 q 33 322 33 133 l 39 1022 l 182 1025 l 256 1021 l 256 994 m 239 576 l 242 704 l 242 1008 q 200 1011 217 1011 l 150 1010 l 53 1008 l 47 321 q 53 0 47 146 q 99 -3 83 -3 l 211 1 l 236 0 q 244 98 244 44 q 243 201 244 151 q 242 268 242 251 q 324 128 278 222 q 392 0 371 33 q 453 -6 415 -6 q 545 -3 492 -6 q 615 0 599 0 q 473 249 553 124 q 374 407 393 375 q 449 506 400 442 q 603 718 551 638 l 583 718 l 453 714 q 383 722 403 714 q 318 625 360 696 q 242 524 276 554 q 239 576 239 554 z "},"l":{"ha":286,"x_min":29,"x_max":285,"o":"m 40 232 l 29 754 q 42 1024 29 900 l 257 1019 l 257 992 l 285 992 l 278 258 q 283 -24 278 67 q 143 -42 260 -49 l 110 -40 q 58 -47 79 -40 l 60 -14 q 31 -19 43 -14 q 40 232 40 117 m 238 288 l 243 1006 l 54 1010 q 42 744 42 876 l 54 222 q 46 0 54 111 q 68 1 49 1 l 178 -1 q 242 8 235 -1 q 238 288 238 76 z "},"m":{"ha":950,"x_min":33,"x_max":947,"o":"m 38 -19 l 33 508 q 36 707 33 582 q 86 703 69 703 q 134 707 103 703 q 204 711 165 711 q 244 694 243 711 q 258 680 244 686 q 272 667 271 674 l 272 660 q 431 701 340 701 q 567 640 521 701 q 606 660 572 643 q 653 683 640 678 q 746 701 701 701 q 894 639 853 701 l 911 626 q 947 393 947 599 l 942 76 q 944 -37 942 21 q 828 -44 894 -44 l 744 -44 q 743 -17 743 -35 l 717 -17 q 713 151 713 26 l 713 221 q 694 421 713 372 q 660 425 683 425 q 621 413 638 425 l 621 379 l 615 67 q 619 -37 615 42 q 503 -44 569 -44 l 418 -44 q 417 -17 417 -35 l 390 -17 q 386 151 386 26 l 386 221 q 368 421 386 378 q 339 425 358 425 q 281 397 297 425 q 265 290 265 369 q 271 85 265 290 q 265 -19 271 25 l 265 -35 q 185 -47 217 -47 l 121 -44 q 65 -47 86 -44 l 65 -17 q 38 -19 54 -19 m 233 619 l 235 656 q 214 699 235 699 q 140 694 176 699 q 85 689 104 689 q 50 692 65 689 q 47 481 47 643 l 51 -4 q 96 -3 68 -3 l 163 -4 q 224 4 192 -4 l 224 10 q 229 113 229 56 l 224 324 q 244 437 224 407 q 311 467 265 467 q 369 446 347 467 q 388 408 383 435 q 397 319 397 349 q 400 204 400 296 l 400 101 q 403 -3 400 17 l 483 -4 q 576 3 533 -4 q 574 81 574 50 l 579 386 l 579 447 q 633 467 606 467 q 674 460 660 467 q 697 445 689 453 q 710 418 706 438 q 717 390 715 399 q 724 319 724 349 q 726 204 726 296 l 726 101 q 729 -3 726 17 l 810 -4 q 903 3 860 -4 q 900 90 900 56 l 906 414 q 874 644 906 615 q 744 688 826 688 q 622 656 682 688 q 561 621 606 646 q 505 671 547 654 q 433 688 463 688 q 388 686 403 688 q 358 680 374 685 q 334 672 343 675 q 308 660 325 669 q 285 649 290 651 q 233 619 254 633 z "},"n":{"ha":625,"x_min":35,"x_max":622,"o":"m 39 -19 l 35 508 q 38 707 35 582 q 88 703 71 703 q 135 707 104 703 q 206 711 167 711 q 246 694 244 711 q 259 680 246 686 q 274 667 272 674 l 274 660 q 421 701 342 701 q 569 639 528 701 l 586 626 q 622 393 622 599 l 617 76 q 619 -37 617 21 q 503 -44 569 -44 l 419 -44 q 418 -17 418 -35 l 392 -17 q 388 151 388 26 l 388 221 q 369 421 388 378 q 340 425 358 425 q 283 397 299 425 q 267 290 267 369 l 272 85 q 267 -19 272 25 l 267 -35 q 186 -47 218 -47 l 122 -44 q 67 -47 88 -44 l 67 -17 q 39 -19 56 -19 m 235 619 l 236 656 q 215 699 236 699 q 142 694 178 699 q 86 689 106 689 q 51 692 67 689 q 49 481 49 643 l 53 -4 q 97 -3 69 -3 l 164 -4 q 225 4 193 -4 l 225 10 q 231 113 231 56 l 225 324 q 246 437 225 407 q 313 467 267 467 q 372 446 349 467 q 389 408 385 435 q 399 319 399 349 q 401 204 401 296 l 401 101 q 404 -3 401 17 l 485 -4 q 578 3 535 -4 q 575 90 575 56 l 581 414 q 549 644 581 615 q 419 688 501 688 q 364 681 383 688 q 335 672 344 675 q 309 660 326 669 q 286 649 292 651 q 235 619 256 633 z "},"o":{"ha":622,"x_min":19,"x_max":632,"o":"m 22 390 l 19 450 q 43 614 19 556 l 42 614 q 50 642 46 642 l 50 640 q 50 639 50 639 l 50 639 q 133 706 71 683 q 272 728 194 728 q 324 726 283 726 l 357 728 q 543 663 476 728 l 542 663 l 568 636 q 632 350 632 593 q 619 146 632 251 q 585 15 607 40 q 389 -57 533 -57 q 281 -53 318 -57 q 194 -31 243 -50 q 107 29 146 -11 l 94 42 q 21 293 21 113 l 21 343 l 22 390 m 351 714 l 299 713 q 240 713 281 713 q 140 693 200 714 q 63 633 81 672 q 33 451 33 532 l 35 393 l 35 290 q 224 -10 35 22 l 363 -14 q 546 51 500 -14 q 589 354 579 85 q 590 378 590 371 q 571 594 585 550 q 533 653 557 638 q 351 714 471 714 m 319 504 q 417 360 417 504 q 392 218 417 250 q 310 185 367 185 q 215 261 215 185 q 217 333 217 276 q 236 469 217 457 q 319 504 264 504 m 257 232 q 271 204 257 210 q 310 199 285 199 q 394 257 394 199 q 403 359 403 326 q 401 408 403 392 q 386 443 400 425 q 354 461 372 461 q 315 458 336 461 q 275 433 289 451 l 272 431 q 257 232 257 421 z "},"p":{"ha":644,"x_min":33,"x_max":657,"o":"m 206 710 q 251 682 251 710 l 251 679 q 271 675 271 679 q 363 706 307 706 q 547 624 478 706 q 629 488 608 574 q 657 271 650 403 q 626 81 657 163 q 539 -22 596 0 q 406 -44 482 -44 q 278 -22 329 -44 q 281 -167 281 -156 q 274 -294 281 -179 l 274 -310 q 240 -324 274 -317 q 156 -331 206 -331 q 71 -324 107 -331 l 71 -300 q 43 -296 60 -300 l 43 -192 l 33 525 q 35 707 33 653 l 165 710 q 206 710 186 710 m 47 540 l 57 -192 l 57 -283 q 159 -289 86 -289 q 232 -282 232 -289 l 232 -267 q 238 -135 238 -168 l 238 -71 q 236 33 238 -10 q 281 8 239 18 q 389 -3 322 -3 q 503 17 456 -3 q 588 115 561 38 q 615 271 615 193 q 611 381 614 349 q 602 460 608 414 q 585 535 596 506 q 556 597 575 564 q 510 647 536 629 q 356 692 449 692 q 253 631 282 692 q 247 625 249 625 q 235 682 238 625 l 236 692 q 165 694 221 694 l 49 693 q 47 540 47 643 m 315 158 q 244 184 257 158 q 231 290 231 210 q 233 401 231 371 q 244 461 236 431 q 325 519 263 519 q 422 465 388 519 q 457 347 457 411 q 447 257 457 283 q 315 158 432 158 m 433 258 q 443 335 443 278 q 423 435 443 393 q 358 478 403 478 q 279 403 290 478 q 272 277 272 357 q 279 175 272 197 q 315 172 286 172 q 433 258 421 172 z "},"q":{"ha":643,"x_min":15,"x_max":639,"o":"m 639 497 l 629 -219 l 629 -324 q 544 -331 593 -331 q 460 -324 494 -331 q 426 -310 426 -317 l 426 -294 q 399 -282 399 -287 l 399 -267 q 392 -119 392 -151 q 393 -32 392 -86 q 294 -44 343 -44 q 15 299 15 -44 q 90 618 19 524 q 168 681 118 656 q 288 706 218 706 q 392 656 357 706 l 393 654 l 393 682 q 439 710 393 710 q 479 710 458 710 l 610 707 l 610 679 l 638 679 q 639 497 639 625 m 407 682 q 397 625 407 625 q 392 631 393 625 q 290 692 360 692 q 172 668 221 692 q 97 610 124 644 q 55 518 71 575 q 35 414 39 461 q 30 280 31 367 q 56 115 29 193 q 142 17 83 38 q 254 -3 189 -3 q 361 8 319 -3 q 408 33 403 18 q 407 -71 407 -10 l 407 -135 q 413 -267 407 -168 l 413 -282 q 485 -289 413 -289 q 588 -283 558 -289 l 588 -192 l 597 540 q 596 693 597 643 l 479 694 q 434 694 461 694 q 407 682 407 694 m 197 257 q 188 347 188 283 q 222 465 188 411 q 317 519 257 519 q 396 472 378 519 q 414 317 414 424 q 401 184 414 210 q 329 158 388 158 q 197 257 213 158 m 239 231 q 264 184 242 196 q 332 172 286 172 q 389 195 378 172 q 400 319 400 218 q 390 444 400 421 q 334 478 378 478 q 260 428 290 478 q 229 315 229 378 q 239 231 229 250 z "},"r":{"ha":511,"x_min":35,"x_max":540,"o":"m 39 -19 l 35 508 q 38 707 35 582 q 88 703 71 703 q 135 706 104 703 q 210 710 167 710 q 253 693 253 710 l 253 681 q 275 675 271 678 q 433 700 354 700 q 511 690 511 700 l 511 669 q 539 663 539 665 l 536 483 q 540 399 536 461 l 508 410 l 510 408 l 493 414 l 494 413 q 369 432 417 432 q 298 413 321 432 q 275 346 275 394 q 281 -18 281 175 l 281 -35 q 199 -47 236 -47 l 124 -44 q 67 -47 88 -44 l 67 -17 q 39 -19 56 -19 m 240 646 l 239 667 l 239 693 q 210 696 239 696 q 143 692 181 696 q 86 689 106 689 q 51 692 67 689 q 49 481 49 643 l 53 -4 q 99 -3 69 -3 l 174 -4 q 239 4 207 -4 l 239 10 l 233 382 q 260 453 233 433 q 342 474 288 474 q 456 460 397 474 q 469 456 460 457 q 497 446 471 454 q 496 490 496 461 l 496 542 l 497 690 q 456 693 497 693 q 344 678 415 693 q 240 646 272 664 z "},"s":{"ha":625,"x_min":1,"x_max":647,"o":"m 96 236 l 233 233 q 240 206 233 222 l 261 206 q 321 157 261 157 q 381 213 381 157 q 354 244 381 235 q 278 264 328 254 q 200 286 229 274 q 65 381 115 315 q 15 515 15 447 q 58 642 15 583 q 158 717 100 700 q 312 735 217 735 q 467 721 407 735 q 564 660 526 707 q 647 453 647 592 l 636 439 q 534 431 588 431 q 418 442 481 431 l 419 453 q 390 469 419 465 l 392 481 q 342 525 392 515 q 289 474 289 510 q 314 438 289 449 q 492 391 436 417 q 576 339 549 365 q 639 181 639 278 q 556 -6 639 53 q 331 -64 472 -64 q 95 16 189 -64 q 1 211 1 96 l 1 231 q 96 236 44 236 m 221 219 l 94 221 q 15 218 31 221 l 15 211 q 96 41 15 104 q 308 -22 176 -22 q 596 208 596 -22 q 528 358 596 314 q 313 424 460 401 q 247 500 247 446 q 266 545 247 524 q 317 567 285 567 q 379 543 350 567 q 408 492 408 519 q 407 481 408 483 q 504 472 450 472 q 606 481 558 472 q 485 704 606 653 q 314 721 410 721 q 29 518 29 721 q 67 403 29 456 q 176 326 104 351 q 272 299 211 311 q 364 272 333 288 q 394 222 394 257 q 324 143 394 143 q 254 164 285 143 q 221 219 224 185 z "},"t":{"ha":538,"x_min":1,"x_max":569,"o":"m 532 682 l 544 683 q 564 618 564 660 l 558 525 q 563 482 558 508 l 344 482 q 346 226 344 308 q 494 201 397 201 q 532 203 521 201 l 533 179 l 533 174 q 560 175 550 174 l 569 47 q 556 -42 569 -4 q 490 -43 538 -43 q 124 121 193 -43 q 101 443 101 246 l 101 476 l 29 478 l 29 506 l 1 506 l 6 703 q 104 701 43 701 l 101 857 q 107 967 101 921 q 153 969 138 969 l 267 963 q 313 965 301 963 l 313 935 q 340 938 321 935 l 340 700 q 517 711 376 701 q 532 682 528 694 m 300 686 l 299 764 l 299 950 q 267 949 289 949 l 146 956 q 119 954 129 956 q 115 858 115 914 l 118 688 l 71 688 q 19 689 38 688 l 15 519 l 68 519 q 115 521 100 519 l 115 443 q 138 122 115 247 q 463 -1 188 -1 q 518 0 500 -1 q 528 72 528 31 q 518 188 528 113 q 489 186 508 186 q 304 243 343 186 q 303 376 303 286 l 303 524 l 518 524 q 517 546 517 528 l 522 644 q 510 697 522 683 q 300 686 336 688 z "},"u":{"ha":625,"x_min":31,"x_max":618,"o":"m 615 -40 l 553 -36 q 515 -40 547 -36 q 444 -44 483 -44 q 406 -17 406 -44 q 379 0 382 -15 q 378 6 379 1 q 244 -35 304 -35 q 83 25 114 -35 q 42 106 54 49 q 31 274 31 163 l 36 590 q 33 704 36 646 q 147 711 82 711 l 233 711 q 235 683 233 693 l 261 683 q 265 515 265 640 l 265 446 q 285 244 265 292 q 313 242 304 242 q 369 267 351 242 q 386 360 386 292 l 379 574 q 386 688 379 644 l 386 701 q 465 713 426 713 l 531 711 q 586 714 565 711 l 586 683 l 614 686 l 618 158 q 615 -40 618 85 m 390 75 l 389 39 q 408 -4 389 -4 q 483 1 447 -4 q 524 6 519 6 q 574 3 529 6 q 576 214 576 147 l 572 699 q 528 697 556 697 l 460 699 q 400 690 432 699 l 400 685 q 393 579 393 642 l 400 364 q 378 257 400 286 q 317 228 357 228 q 256 251 276 228 q 233 294 236 275 q 226 375 226 340 q 224 489 224 399 l 224 593 q 221 697 224 678 l 140 699 q 47 692 90 699 q 49 604 49 665 l 43 279 q 76 50 43 78 q 204 7 124 7 q 328 39 267 7 q 390 75 347 49 z "},"v":{"ha":596,"x_min":-4,"x_max":642,"o":"m 399 703 l 554 708 q 614 706 596 708 q 609 693 611 700 q 604 681 607 686 q 642 678 611 681 q 535 288 590 542 q 460 -42 481 35 q 349 -49 418 -49 l 175 -46 q 171 -18 175 -31 l 147 -18 q -4 713 81 397 q 68 706 39 706 q 144 706 97 706 q 210 704 190 707 l 222 693 q 225 679 222 682 q 238 676 228 676 l 250 665 q 279 490 260 618 q 310 304 299 361 q 333 428 318 343 q 399 703 372 635 m 551 694 l 408 689 q 352 449 385 631 q 300 215 319 268 q 245 465 274 285 q 208 690 217 646 q 154 693 172 693 q 74 692 154 693 q 15 694 29 692 q 160 -4 93 410 l 318 -7 q 421 -1 382 -7 q 495 322 440 72 q 594 693 550 572 l 551 694 z "},"w":{"ha":949,"x_min":-4,"x_max":994,"o":"m 175 -46 q 171 -18 175 -31 l 147 -18 q -4 713 81 397 q 68 706 39 706 q 144 706 97 706 q 211 704 192 707 l 224 693 q 226 679 224 682 q 239 676 229 676 l 251 665 q 280 492 260 622 q 313 299 300 361 q 399 710 324 347 q 453 707 414 707 l 526 710 q 576 706 544 710 l 581 681 q 604 678 585 681 q 633 496 615 628 q 665 299 651 364 q 708 501 678 347 q 757 703 739 656 l 899 708 q 967 706 931 708 q 962 692 965 700 q 957 679 958 683 q 978 678 965 679 q 994 678 990 678 q 888 288 943 542 q 813 -42 833 35 q 708 -49 771 -49 l 544 -46 q 542 -32 544 -40 l 539 -18 l 517 -18 q 492 142 508 22 q 460 -42 465 -19 q 349 -49 418 -49 l 175 -46 m 524 697 l 444 693 q 410 694 422 693 l 407 679 q 401 649 406 674 q 394 613 397 625 l 392 597 q 353 411 367 483 q 300 215 331 306 q 245 469 272 293 q 210 690 218 646 q 154 693 174 693 l 75 692 q 15 694 29 692 q 160 -4 93 410 l 318 -7 q 421 -1 382 -7 q 450 163 435 53 q 475 318 465 274 q 529 -4 478 303 q 676 -7 529 -4 q 774 -1 735 -7 q 848 322 793 72 q 947 693 903 572 q 901 694 931 694 l 767 689 q 714 462 751 650 q 653 215 676 274 q 598 480 629 282 q 564 693 567 678 q 524 697 542 697 z "},"x":{"ha":574,"x_min":-15,"x_max":615,"o":"m 193 -43 l 140 -44 l 131 -44 q 24 -31 56 -44 q 28 -11 28 -22 q -4 -3 11 -10 q 49 169 7 49 q 106 343 92 290 q 62 494 86 426 q 16 619 38 561 q -15 703 -6 676 q 131 708 42 708 q 232 697 221 708 q 253 672 236 674 q 260 669 258 671 q 294 531 279 576 q 340 704 306 575 q 588 710 400 710 q 583 682 588 683 l 615 682 q 610 653 615 654 l 572 549 q 500 314 513 382 q 551 127 514 244 q 603 -44 589 10 q 560 -40 574 -40 l 526 -40 l 492 -42 q 372 -36 386 -42 q 367 -23 369 -31 q 361 -11 364 -15 q 344 -8 350 -11 q 319 65 332 18 q 303 125 307 111 q 250 -43 278 13 l 193 -43 m 464 0 l 532 1 l 544 1 q 557 0 554 1 q 508 163 546 44 q 458 342 471 281 q 517 544 475 433 q 572 694 560 656 l 574 696 l 511 696 q 351 692 378 696 q 320 576 343 668 q 285 454 297 483 q 219 690 283 458 q 171 694 215 694 l 100 694 q 3 690 65 694 q 28 626 7 678 q 57 551 49 574 q 81 486 65 529 q 119 343 104 415 q 65 166 106 285 q 13 6 24 47 q 113 -3 33 -3 l 132 -3 q 194 -1 132 -3 l 214 -1 q 251 110 231 32 q 288 224 271 188 q 321 114 303 192 q 354 4 339 36 l 356 4 q 442 0 364 0 l 464 0 z "},"y":{"ha":624,"x_min":-37,"x_max":658,"o":"m 400 707 l 533 710 q 631 706 547 710 q 624 679 628 699 q 642 678 631 679 q 658 678 654 678 q 565 294 593 422 q 527 126 538 167 q 496 24 517 85 q 452 -75 475 -36 q 392 -158 429 -114 q 311 -228 356 -203 q 65 -289 207 -289 q 8 -286 31 -289 q 6 -276 7 -283 q 3 -267 4 -268 q -19 -258 -3 -258 q -37 -142 -37 -197 q -29 -47 -37 -86 l 72 -50 q 132 -37 111 -50 q 153 10 153 -25 q 151 31 153 21 q -15 713 104 289 q 56 706 28 706 l 108 707 q 211 704 192 707 l 224 693 q 239 676 224 676 l 251 665 q 325 278 306 356 q 342 408 328 296 q 400 707 365 621 m 547 694 l 428 693 l 410 693 q 362 440 386 636 q 318 190 338 243 q 248 483 285 282 q 210 690 211 683 q 153 693 174 693 l 65 692 q 4 694 18 692 q 167 8 167 94 q 71 -64 167 -64 l -17 -61 q -24 -150 -24 -99 q -8 -246 -24 -201 q 61 -247 7 -247 q 178 -230 115 -247 q 285 -186 242 -212 q 365 -115 329 -160 q 422 -29 401 -69 q 463 72 443 11 q 492 176 482 133 q 515 285 501 219 q 613 693 558 488 q 547 694 589 694 z "},"z":{"ha":633,"x_min":15,"x_max":646,"o":"m 644 663 l 642 535 q 646 472 642 501 q 499 327 596 421 q 381 211 403 233 q 417 210 393 210 l 469 210 q 610 218 550 210 l 610 186 q 638 190 621 186 l 640 -32 q 46 -40 296 -40 l 47 -12 l 18 -12 q 21 49 21 24 l 15 161 q 63 243 15 193 q 147 325 110 293 q 190 364 183 357 l 290 460 q 54 439 117 449 q 51 469 51 458 l 26 467 q 22 538 22 533 l 26 642 l 25 704 l 271 706 l 429 706 q 457 703 443 703 l 563 706 q 608 703 604 706 l 617 690 l 617 678 q 636 675 625 678 l 644 663 m 600 564 l 603 690 q 575 692 600 692 l 460 689 q 425 692 444 689 l 39 690 l 40 653 l 36 546 q 39 482 36 535 q 349 504 133 494 q 192 347 306 453 q 31 179 78 240 q 29 154 29 169 l 35 47 l 33 1 q 599 10 257 1 q 597 108 599 43 q 596 203 596 174 q 474 194 536 194 l 361 196 q 294 194 315 196 q 452 355 344 251 q 603 504 560 458 q 600 564 600 518 z "},"{":{"ha":442,"x_min":-1,"x_max":449,"o":"m 369 289 l 368 240 q 369 201 368 215 q 383 172 371 188 q 421 156 396 157 l 421 133 q 449 128 433 128 l 449 24 q 447 -28 449 -12 l 435 -40 q 392 -43 404 -43 q 222 18 288 -43 q 157 143 157 79 l 163 218 q 117 353 163 325 q 64 367 96 367 l 57 367 q 29 394 29 367 q 13 399 17 394 q 6 407 8 404 q 2 415 3 410 q 0 425 1 421 q -1 440 -1 429 q -1 478 -1 451 q 8 561 -1 506 q 31 560 15 560 q 164 729 164 560 l 157 814 q 351 958 157 958 q 414 954 360 958 q 417 940 415 946 q 419 931 418 933 q 422 928 421 929 q 428 926 422 926 l 442 926 q 447 852 447 888 q 444 775 447 817 q 372 726 378 753 q 368 668 368 697 l 371 589 q 311 446 371 483 q 369 289 369 399 m 176 218 l 171 144 q 223 42 171 86 q 364 -1 275 -1 q 406 1 375 -1 q 408 61 408 38 l 407 143 q 326 267 326 149 l 328 318 q 254 475 328 433 q 314 527 299 492 q 329 619 329 563 l 328 703 q 344 781 328 765 q 369 799 360 796 q 403 813 378 803 q 406 881 406 854 q 401 942 406 908 q 351 944 365 944 q 219 916 267 944 q 171 814 171 888 l 178 729 q 43 544 178 544 q 21 546 28 544 q 13 451 13 493 q 29 408 13 408 l 38 408 q 144 354 113 408 q 176 218 176 300 z "},"|":{"ha":279,"x_min":49,"x_max":260,"o":"m 257 999 l 260 -81 l 233 -81 l 76 -76 l 76 -50 q 49 -49 61 -49 l 49 1022 l 144 1019 q 229 1026 175 1019 l 229 996 q 257 999 235 996 m 63 -35 l 206 -39 l 218 -39 l 218 636 l 215 976 l 215 1013 q 146 1006 174 1006 l 63 1008 l 63 -35 z "},"}":{"ha":442,"x_min":21,"x_max":471,"o":"m 307 190 l 313 117 q 256 5 313 53 q 106 -43 200 -43 q 63 -40 93 -43 l 50 -28 q 48 -21 49 -25 q 47 -15 47 -17 q 35 -12 44 -12 l 22 0 q 21 51 21 15 l 21 156 q 101 269 101 161 l 99 317 q 154 471 99 419 q 149 479 153 475 q 108 531 118 499 q 99 617 99 564 l 100 694 l 96 758 q 78 764 90 761 q 51 794 51 771 l 26 803 q 21 878 21 838 q 28 954 21 918 q 90 958 82 958 q 256 904 213 958 q 311 785 311 865 l 306 701 q 353 571 306 594 q 401 560 376 560 q 433 561 426 560 l 438 532 q 461 533 451 532 q 471 435 471 458 q 440 367 471 367 l 432 367 q 335 315 364 367 q 307 190 307 264 m 35 143 l 33 61 q 36 1 33 38 q 76 -1 67 -1 q 220 43 169 -1 q 271 150 271 88 q 265 218 265 178 q 297 354 265 300 q 403 408 328 408 l 413 408 q 429 451 429 408 q 421 546 429 493 q 399 544 411 544 q 264 729 264 544 l 269 814 q 222 916 269 888 q 90 944 175 944 q 40 942 74 944 q 35 877 35 913 q 39 813 35 842 q 83 794 72 800 q 103 766 93 788 q 114 703 114 744 l 113 619 q 128 527 113 563 q 188 475 143 492 q 113 318 113 432 l 115 267 q 35 143 115 149 z "},"~":{"ha":792,"x_min":6,"x_max":801,"o":"m 769 474 l 771 458 l 785 458 l 797 446 q 801 404 801 425 q 756 246 801 322 q 650 147 711 169 q 567 133 617 133 q 464 169 517 133 q 385 261 411 206 q 353 267 375 267 q 297 251 332 267 l 299 253 q 269 200 269 235 q 276 161 269 189 l 260 143 q 167 149 238 149 q 33 146 97 149 q 42 175 36 158 q 6 174 29 174 q 54 314 19 231 q 121 435 89 397 q 282 501 188 501 q 381 472 336 501 q 478 375 426 443 q 504 367 489 367 q 558 406 533 367 q 590 479 582 444 q 757 486 681 486 l 769 474 m 235 186 q 228 235 228 214 q 254 283 228 257 q 324 308 281 308 q 397 268 367 308 q 547 175 439 175 q 698 253 638 175 q 758 431 758 331 q 756 468 758 460 l 751 472 q 601 467 625 468 q 566 393 594 433 q 509 353 538 353 q 457 374 481 353 q 415 420 433 394 q 360 467 396 446 q 282 488 325 488 q 24 189 106 488 q 134 190 56 190 q 235 185 213 190 l 235 186 z "},"":{"ha":278,"x_min":0,"x_max":0,"o":""},"":{"ha":300,"x_min":43,"x_max":282,"o":"m 71 890 l 99 889 l 126 889 l 231 890 q 249 863 246 890 l 258 863 q 276 819 276 863 l 268 675 q 197 663 239 663 q 71 668 197 663 l 71 694 q 43 696 61 696 l 47 890 l 71 890 m 279 467 l 282 140 q 276 -139 282 -18 l 260 -139 q 149 -149 199 -149 q 74 -139 100 -149 l 74 -118 q 46 -111 57 -115 l 51 304 q 43 647 51 486 q 253 656 142 656 q 252 642 253 651 q 251 626 251 632 q 281 628 263 628 q 279 467 279 579 m 240 168 l 238 528 q 239 642 238 604 l 238 642 q 58 635 85 638 q 65 268 65 458 q 60 -100 65 78 q 118 -107 81 -107 q 231 -97 156 -107 l 235 -97 q 240 168 240 21 m 226 714 l 235 856 q 231 876 235 876 l 126 875 l 124 875 l 71 876 l 61 876 q 57 710 61 864 l 168 704 q 226 713 207 704 l 226 714 z "},"":{"ha":486,"x_min":26,"x_max":496,"o":"m 315 881 l 313 821 q 439 727 382 804 q 496 569 496 650 q 482 493 496 533 q 403 488 444 488 q 321 497 361 488 q 317 519 318 503 q 313 521 314 521 l 313 493 l 314 421 l 388 421 q 457 410 431 421 l 457 390 q 485 382 460 388 l 490 274 q 437 156 490 207 q 314 90 383 104 l 315 43 l 315 28 q 277 -7 315 -7 q 239 21 239 -7 q 218 33 225 22 q 210 88 210 44 q 94 140 147 96 q 33 248 40 185 q 26 400 26 311 l 29 613 q 28 633 28 617 q 71 771 28 710 q 185 832 114 832 q 211 831 201 832 l 211 901 q 247 918 221 918 q 288 908 274 918 l 286 890 q 315 881 301 890 m 393 407 l 339 406 q 317 407 321 406 q 314 374 315 397 q 311 338 313 351 q 275 286 307 300 l 274 286 l 272 479 l 272 560 q 274 658 272 621 q 303 578 303 640 q 306 538 303 549 q 381 529 347 529 q 444 533 414 529 l 444 535 q 454 597 454 560 q 403 743 454 678 q 275 811 353 808 l 274 811 q 272 839 272 821 l 274 901 l 274 903 q 254 908 268 908 q 225 883 225 908 l 225 847 q 222 814 225 821 q 188 818 203 818 q 81 763 121 818 q 42 636 42 708 q 43 614 42 621 l 40 406 q 49 244 40 317 q 101 159 57 190 q 200 128 146 128 q 224 129 214 128 q 223 108 224 125 q 223 81 222 90 q 225 58 224 71 q 243 33 228 33 q 268 40 258 33 l 272 42 q 274 64 274 46 l 272 110 q 274 129 272 125 l 276 131 q 398 188 346 139 q 450 304 450 238 l 443 400 l 443 401 q 393 407 422 407 m 224 286 q 181 408 181 308 l 181 467 q 183 547 181 533 q 185 576 185 560 q 186 605 185 593 q 190 629 188 617 q 222 656 196 656 q 225 486 225 533 q 224 377 225 439 q 224 286 224 315 z "},"":{"ha":675,"x_min":11,"x_max":693,"o":"m 93 529 l 128 528 q 163 526 140 526 q 196 528 186 526 q 194 745 194 576 q 206 943 194 914 l 224 943 q 393 953 335 943 l 393 921 q 421 925 406 925 q 424 707 424 772 q 421 519 424 642 l 438 519 l 519 515 q 575 525 550 515 q 578 490 575 513 q 603 497 590 492 l 607 429 l 601 328 q 624 279 601 301 q 476 282 538 282 q 415 274 415 282 q 419 246 415 261 q 507 240 443 244 q 665 231 656 231 q 664 218 664 226 q 663 204 664 210 q 693 203 679 203 q 681 -39 681 17 l 553 -39 q 306 -35 372 -39 q 222 -18 240 -32 l 224 -1 q 194 10 201 3 q 197 104 197 31 q 194 286 197 178 l 83 286 q 43 293 58 286 l 43 314 q 15 321 29 314 q 13 451 15 419 q 11 488 11 483 q 93 529 11 529 m 558 338 l 565 456 q 563 507 565 474 l 561 507 q 529 501 550 501 q 379 508 508 501 q 382 719 382 656 q 379 936 382 783 l 379 938 q 253 929 340 929 l 217 929 q 208 731 208 913 q 211 514 208 550 l 199 514 q 167 511 176 511 q 92 515 167 511 q 25 492 25 515 q 26 468 25 488 q 29 329 29 429 q 39 328 31 328 l 119 328 q 206 326 171 328 q 211 140 211 243 q 208 15 211 36 q 453 3 225 3 l 639 3 q 650 218 639 64 l 393 233 q 383 266 390 236 q 376 311 376 296 q 391 322 376 319 q 435 324 406 324 l 474 324 q 561 322 524 324 q 558 338 558 325 z "},"":{"ha":843,"x_min":1,"x_max":871,"o":"m 197 917 l 311 789 l 328 793 q 424 801 375 801 q 539 792 474 801 l 674 944 l 838 804 l 835 801 l 865 776 q 747 643 824 731 q 776 478 776 579 l 776 451 q 739 250 776 322 q 843 157 793 178 l 835 150 q 871 129 854 135 l 826 93 q 764 41 817 89 q 686 -7 711 -7 q 656 21 676 -7 l 654 21 l 554 121 q 428 110 485 110 q 311 121 371 110 q 217 -7 251 40 q 123 52 189 -7 q 29 121 57 111 q 36 129 33 126 q 1 149 21 142 l 113 281 q 94 372 94 339 l 94 467 q 113 681 94 603 l 64 736 q 62 740 64 739 q 50 750 60 740 q 6 806 40 760 l 169 944 q 196 915 179 936 l 197 917 m 543 776 q 444 788 474 788 q 301 775 414 788 q 168 925 221 867 l 25 803 q 70 750 47 771 q 128 682 93 729 q 108 474 108 613 q 128 279 108 335 l 128 278 q 103 248 121 271 q 67 203 86 225 l 25 154 q 99 92 35 150 q 182 35 164 35 q 278 164 228 97 q 403 151 336 151 q 535 165 471 151 q 597 100 565 129 q 661 35 629 71 q 728 81 678 35 q 792 132 779 128 l 818 154 q 694 278 776 174 q 735 529 735 354 q 703 672 735 611 q 818 803 740 714 l 675 925 l 543 776 m 493 310 l 390 299 q 278 337 300 299 q 256 460 256 375 q 271 578 256 544 q 328 628 286 613 q 422 638 379 638 q 590 518 590 638 q 496 310 590 322 l 493 310 m 297 457 l 296 417 q 297 402 296 410 q 298 379 297 394 q 301 355 299 364 q 308 336 303 346 q 333 315 317 318 q 378 313 350 313 q 441 318 407 313 q 494 324 475 324 q 576 519 576 335 q 529 586 576 575 q 454 596 494 596 q 358 586 414 596 l 360 588 q 297 457 297 568 z "},"":{"ha":736,"x_min":22,"x_max":758,"o":"m 658 460 l 686 449 l 686 365 q 689 322 686 331 l 674 304 q 633 307 649 307 q 481 296 488 307 l 494 296 l 560 297 q 658 294 606 297 l 658 268 q 686 267 668 267 l 686 222 l 685 175 q 693 113 685 153 l 658 113 q 401 106 540 113 q 373 36 389 81 q 339 -43 357 -8 q 279 -37 311 -37 q 171 -42 279 -37 q 118 -39 160 -42 q 122 -12 118 -25 q 107 -12 118 -12 q 90 -11 96 -11 q 122 97 96 43 l 124 103 q 51 118 75 103 l 51 133 q 24 146 38 136 l 24 192 q 36 292 24 257 q 86 289 78 289 q 199 299 199 289 l 193 299 l 149 297 q 54 310 100 297 q 47 331 51 329 q 26 338 36 333 q 22 409 22 364 q 29 479 22 454 q 188 486 89 486 l 226 486 q 267 488 251 486 q 185 706 250 540 q 100 976 119 872 q 158 974 118 974 l 276 978 q 292 978 286 978 q 305 976 299 978 q 317 972 311 975 q 336 947 328 963 q 354 946 340 946 q 382 858 363 921 q 414 760 401 796 q 501 957 433 800 q 559 969 506 964 q 658 974 613 974 q 731 968 704 974 q 726 956 728 964 q 722 944 725 949 q 758 940 739 944 q 569 488 674 688 l 578 489 l 601 489 q 658 476 639 489 l 658 460 m 467 344 l 600 349 q 647 346 617 349 l 647 347 q 644 397 644 357 l 644 469 q 606 476 638 476 l 553 475 q 508 483 519 475 q 713 957 626 697 q 606 960 688 960 q 513 949 524 960 q 403 711 447 792 q 349 857 374 775 q 317 961 324 939 q 274 963 301 963 l 158 958 q 117 961 147 958 q 199 708 133 875 q 285 476 265 542 l 286 474 q 196 471 258 471 l 144 472 q 42 467 71 472 l 39 467 l 36 386 q 39 349 36 379 q 118 339 61 339 l 206 340 l 231 340 l 232 339 q 217 309 225 332 q 206 281 210 286 l 206 279 l 79 275 q 44 276 56 275 q 38 209 38 257 q 38 154 38 161 l 38 153 q 96 144 51 144 l 128 144 q 154 140 144 144 q 136 94 149 125 q 106 1 108 28 l 110 1 q 143 0 121 0 l 256 4 q 304 0 281 4 l 306 1 q 331 68 311 14 q 365 147 351 122 q 613 154 504 154 l 647 154 q 644 182 644 174 l 644 281 q 585 282 622 282 q 495 281 547 282 q 417 281 443 281 q 429 306 422 286 q 444 335 436 325 q 467 344 451 344 z "},"":{"ha":204,"x_min":0,"x_max":0,"o":""},"":{"ha":1204,"x_min":0,"x_max":0,"o":""},"":{"ha":485,"x_min":32,"x_max":483,"o":"m 65 683 l 61 711 l 38 711 q 32 786 32 739 l 35 876 q 130 889 75 889 q 214 875 185 889 l 214 856 q 228 850 219 853 l 242 847 q 229 682 242 782 l 65 683 m 307 683 l 303 711 l 279 711 q 274 786 274 739 l 276 876 q 372 889 317 889 q 456 875 426 889 l 456 856 q 469 850 461 853 l 483 847 q 471 682 483 782 l 307 683 m 290 865 l 288 781 q 292 725 288 746 l 296 725 l 431 724 l 433 724 l 433 726 q 439 836 433 744 l 442 867 q 372 874 426 874 q 290 865 317 874 m 49 865 l 46 781 q 50 725 46 746 l 192 725 l 192 726 q 197 836 192 744 l 200 867 q 130 874 185 874 q 49 865 75 874 z "},"":{"ha":768,"x_min":36,"x_max":764,"o":"m 49 340 q 36 489 36 418 q 38 588 36 560 q 53 664 39 615 q 96 747 67 713 q 220 828 146 808 q 412 847 294 847 q 628 788 529 847 q 653 769 633 788 q 682 740 674 751 q 764 526 764 672 q 755 415 764 486 q 744 317 746 344 l 744 315 q 642 172 715 214 q 492 128 581 136 q 437 122 472 125 q 383 115 401 118 q 119 213 200 115 q 49 340 57 267 m 397 833 q 56 619 74 833 q 50 499 50 563 q 54 392 50 435 q 76 301 58 350 q 124 224 93 253 q 214 176 156 196 q 354 157 272 157 q 394 160 363 158 q 437 164 425 163 q 478 169 449 165 q 520 176 507 172 q 559 188 533 181 q 598 205 585 196 q 631 228 611 214 q 661 258 650 242 q 703 346 692 304 q 722 556 722 536 q 633 768 719 708 l 617 779 q 397 833 533 833 m 268 725 l 378 732 q 594 669 542 732 q 618 608 617 636 q 619 575 619 581 l 619 538 q 609 382 619 408 q 586 329 599 356 q 501 271 563 279 q 387 260 463 264 q 299 256 311 257 q 194 300 222 261 q 169 338 178 321 q 156 389 160 354 q 151 500 151 438 q 155 590 151 563 q 169 647 158 617 q 268 725 190 711 m 374 382 q 338 451 338 382 l 338 524 q 342 590 338 585 q 358 597 347 594 q 375 601 368 600 q 390 597 382 601 q 401 583 397 593 q 407 567 406 574 q 411 528 411 549 q 456 522 433 522 q 485 529 478 522 q 494 542 493 536 q 494 564 494 547 q 454 653 494 617 q 367 690 414 690 q 290 666 321 690 q 258 593 258 642 l 258 589 l 257 482 q 275 331 257 369 q 357 293 293 293 q 457 325 421 293 q 493 414 493 357 q 492 435 493 429 q 483 447 492 440 q 457 453 475 453 l 414 453 q 413 433 413 447 q 411 413 413 419 q 406 397 410 406 q 374 382 400 382 m 396 542 q 395 549 396 543 q 394 557 394 554 q 390 556 393 556 l 382 553 l 382 544 q 379 463 379 508 q 381 406 379 418 l 381 397 q 399 418 396 400 q 401 451 401 439 q 400 467 400 464 q 458 467 438 467 q 482 466 479 467 q 488 464 485 465 q 494 460 492 463 q 497 456 496 458 q 504 438 501 450 q 525 428 518 438 q 533 392 533 418 q 482 282 533 325 q 571 331 547 282 q 592 377 583 357 q 603 436 600 397 q 606 538 606 501 l 606 578 q 589 653 603 632 q 527 680 563 672 q 424 690 492 688 q 503 625 468 668 q 538 536 538 582 q 528 485 538 521 q 483 481 506 481 q 425 488 460 481 q 410 513 425 508 q 396 542 396 517 m 243 483 l 244 588 l 244 593 q 253 628 244 611 q 283 679 261 661 q 206 606 221 663 q 193 497 193 563 q 214 297 193 325 q 297 269 244 276 q 318 271 308 269 q 257 338 271 294 q 243 483 243 381 z "},"":{"ha":383,"x_min":21,"x_max":378,"o":"m 374 976 l 376 960 l 376 817 l 378 757 q 376 662 378 685 q 374 634 374 639 q 372 624 374 629 q 369 617 371 618 q 351 610 361 611 l 318 610 l 296 611 l 279 610 l 261 610 q 242 632 246 613 q 163 608 206 608 q 92 650 121 608 q 38 728 56 674 q 21 851 21 783 q 58 968 21 918 q 147 1018 96 1018 q 214 1008 197 1018 q 225 1025 214 1025 l 249 1022 l 264 1022 q 332 1018 294 1019 l 346 1004 q 349 990 346 993 l 360 990 l 374 976 m 335 988 l 332 1004 q 263 1008 292 1006 l 236 1008 q 225 971 225 1008 q 201 999 218 993 q 153 1004 183 1004 q 69 958 103 1004 q 35 841 35 911 q 61 710 35 771 q 140 650 88 650 q 232 692 193 650 l 228 667 q 236 651 228 653 l 268 653 l 314 651 l 322 651 q 332 661 332 653 l 332 681 l 335 776 l 333 914 q 335 982 333 958 l 335 988 m 192 908 q 222 903 215 908 q 228 875 228 897 l 228 836 q 228 815 228 833 q 226 784 228 797 q 215 760 225 771 q 181 749 206 749 q 139 771 157 749 q 121 822 121 793 q 126 863 121 851 q 192 908 133 908 m 214 867 q 163 799 163 865 q 185 763 163 763 q 213 792 208 763 q 214 828 214 803 l 214 867 z "},"":{"ha":810,"x_min":0,"x_max":832,"o":"m 801 115 l 832 90 l 806 67 l 783 44 q 700 -31 750 11 l 669 0 q 553 105 631 39 q 416 231 476 171 q 307 364 356 292 q 460 533 369 443 l 583 657 q 664 740 607 683 q 731 684 689 726 q 790 629 772 642 q 788 625 788 626 q 818 601 803 610 q 692 462 776 550 q 575 335 607 374 q 804 118 703 201 l 801 115 m 494 117 l 524 90 l 476 44 q 393 -31 443 11 q 267 85 349 14 q 119 222 185 157 q 0 364 54 286 q 153 533 63 443 l 276 657 q 357 740 300 683 q 420 685 379 728 q 483 629 461 642 q 481 625 481 626 q 511 601 496 610 q 385 462 469 550 q 268 335 300 374 q 306 297 281 322 q 496 118 451 157 l 494 117 m 768 104 l 783 118 q 650 242 735 157 q 526 360 565 326 q 653 499 563 406 q 771 626 744 593 q 719 674 756 636 q 665 722 683 713 q 519 571 574 625 l 450 500 q 325 364 365 415 q 518 161 386 281 q 675 15 635 56 q 728 64 703 39 l 768 104 m 461 104 l 476 118 q 343 242 428 157 q 219 360 258 326 q 347 499 256 406 q 464 626 438 593 q 413 674 449 636 q 358 722 376 713 q 213 571 267 625 l 143 500 q 18 364 58 415 q 211 161 79 281 q 368 15 328 56 q 421 64 396 39 l 461 104 m 497 118 l 496 118 l 500 122 l 497 118 m 525 90 l 524 90 l 528 94 l 525 90 m 69 307 l 69 310 l 69 307 z "},"":{"ha":654,"x_min":14,"x_max":644,"o":"m 644 629 l 640 357 l 640 307 l 536 307 l 536 335 l 508 335 l 508 378 l 507 531 q 178 538 311 531 q 43 546 44 544 l 43 571 q 15 574 18 571 l 15 593 l 14 669 q 617 657 589 669 l 617 635 q 644 629 632 633 m 521 504 l 522 376 l 522 349 l 599 349 l 599 369 l 604 569 q 603 615 604 599 l 601 649 l 603 653 l 531 653 q 181 656 314 656 l 28 656 l 28 635 l 29 589 l 29 579 l 54 578 l 521 572 l 521 504 z "},"":{"ha":513,"x_min":36,"x_max":507,"o":"m 50 436 l 479 439 q 475 411 478 424 l 507 411 q 500 353 500 358 l 500 336 l 501 303 l 439 303 l 85 304 l 65 304 l 65 332 l 38 332 l 38 360 l 36 422 l 50 436 m 351 425 l 85 422 l 50 422 l 50 401 l 51 356 l 51 346 l 79 346 l 243 344 l 460 344 l 460 401 q 463 425 460 406 l 351 425 z "},"":{"ha":768,"x_min":36,"x_max":764,"o":"m 49 340 q 36 489 36 418 q 38 588 36 560 q 53 664 39 615 q 96 747 67 713 q 220 828 146 808 q 412 847 294 847 q 628 788 529 847 q 679 743 635 788 q 764 524 764 672 q 753 383 764 444 q 740 297 743 322 l 739 297 q 664 186 713 219 q 617 156 638 168 q 560 138 596 144 q 503 127 524 131 q 442 119 483 124 l 383 115 q 119 213 200 115 q 49 340 57 267 m 699 329 q 721 553 721 401 q 633 768 721 704 l 617 779 q 397 833 533 833 q 56 619 74 833 q 50 499 50 563 q 54 392 50 435 q 76 301 58 350 q 124 224 93 253 q 214 176 156 196 q 354 157 272 157 q 402 161 364 158 q 455 165 440 164 q 503 172 469 167 q 553 184 538 178 q 597 203 569 190 q 639 233 624 217 q 699 329 681 278 m 619 575 l 619 538 q 609 382 619 408 q 586 329 599 356 q 501 271 563 279 l 481 267 l 369 258 q 331 257 354 257 q 193 294 231 257 q 156 400 156 332 q 151 536 151 521 q 153 567 151 551 l 157 613 q 195 689 160 651 q 275 726 231 726 q 378 732 319 732 q 594 669 542 732 q 618 608 617 636 q 619 575 619 581 m 354 304 l 349 406 q 351 442 349 435 l 353 439 q 415 329 379 411 l 433 297 l 447 297 q 487 299 461 297 q 524 300 513 300 q 472 397 510 342 q 424 468 433 453 l 428 469 q 492 506 468 472 q 517 578 517 539 q 474 669 517 638 q 380 701 432 701 q 253 692 328 701 q 258 481 258 664 q 256 297 258 297 l 269 297 q 354 304 328 297 m 558 550 q 535 474 558 510 q 474 431 513 439 q 510 374 482 414 q 550 308 539 333 q 591 377 578 331 q 605 449 604 424 q 606 538 606 475 l 606 578 q 589 653 603 632 q 472 688 536 688 q 558 550 558 622 m 269 282 q 249 286 260 282 q 244 375 244 286 q 242 547 244 464 q 240 657 240 629 q 199 583 206 628 l 194 538 l 193 503 l 197 381 q 228 289 197 306 q 260 276 242 281 q 283 272 278 272 l 282 283 l 269 282 m 374 622 q 418 581 418 622 q 372 540 418 540 q 338 543 363 540 l 336 543 l 336 578 q 335 614 336 603 q 374 622 356 622 m 389 358 q 392 319 389 346 q 396 274 396 292 q 439 278 421 278 q 424 283 433 283 q 407 317 414 296 q 389 358 389 349 m 376 554 q 403 579 403 554 l 394 579 q 376 578 382 579 l 376 554 z "},"":{"ha":414,"x_min":21,"x_max":421,"o":"m 158 914 l 222 917 q 267 910 246 917 q 296 903 288 904 l 297 901 q 353 874 338 889 l 351 874 q 367 858 357 868 q 381 846 378 849 l 379 846 q 421 721 421 810 l 421 708 q 326 531 421 561 q 234 515 293 515 q 133 528 175 515 l 132 529 q 53 589 75 556 q 25 651 29 626 q 21 701 21 686 l 22 743 q 53 861 22 821 q 147 914 83 901 l 158 914 m 110 569 q 187 557 151 557 q 267 564 222 557 l 281 567 q 379 736 379 600 l 379 767 q 342 863 379 824 q 222 903 304 903 l 196 903 q 76 865 115 903 q 36 743 36 828 q 40 667 40 668 l 43 647 q 110 569 50 601 m 247 643 l 189 638 q 130 657 142 638 q 118 740 118 676 q 157 817 118 803 q 210 821 182 821 q 301 758 301 821 q 249 643 301 651 l 247 643 m 163 653 l 188 651 q 233 656 213 651 l 242 656 q 288 758 288 656 q 238 779 288 779 q 188 775 213 779 l 189 776 q 161 715 161 767 l 161 686 l 163 653 z "},"":{"ha":696,"x_min":25,"x_max":704,"o":"m 428 311 l 329 314 q 247 306 267 314 l 246 331 q 244 338 244 332 q 219 333 224 336 l 218 358 q 214 408 214 386 l 215 433 l 215 488 q 81 511 97 499 l 82 529 q 53 539 58 533 l 54 581 q 51 680 54 621 q 49 750 49 739 q 113 749 51 749 q 225 757 175 749 q 238 951 225 851 q 314 932 268 932 l 422 935 q 467 932 447 935 l 467 906 q 494 904 488 906 l 494 790 l 493 758 l 528 760 q 638 754 606 760 l 636 729 q 665 726 646 729 q 664 668 664 708 l 665 606 q 658 504 665 538 q 572 495 643 496 q 496 493 500 494 l 485 331 q 428 311 485 311 m 231 464 l 229 406 q 232 360 229 372 l 232 357 l 233 356 l 246 356 l 392 353 q 443 358 443 353 l 443 361 l 453 514 l 453 531 q 538 537 463 536 q 618 540 614 538 q 622 644 622 578 q 624 742 622 710 q 540 746 603 746 l 494 746 l 468 744 q 453 775 453 744 l 453 919 l 433 919 l 317 918 q 251 925 264 918 q 239 744 239 857 q 162 736 233 742 q 68 731 90 731 l 63 731 l 69 575 l 68 546 q 128 533 68 538 q 224 529 188 529 l 226 529 q 231 464 231 525 m 25 15 l 29 251 l 672 251 l 672 224 l 700 224 l 697 74 q 704 -36 697 13 l 67 -26 l 53 -12 l 53 1 l 39 1 l 25 15 m 43 238 l 39 15 l 607 6 l 663 6 q 656 99 656 46 l 658 238 l 43 238 z "},"":{"ha":367,"x_min":29,"x_max":368,"o":"m 57 424 l 58 449 l 29 451 q 32 501 32 471 l 31 529 q 35 583 31 561 q 54 628 39 604 q 126 685 78 651 l 110 683 q 90 683 100 683 q 61 713 61 683 q 50 714 57 714 q 38 715 43 714 q 32 769 32 736 q 74 883 32 842 q 199 925 115 925 q 325 863 282 925 q 368 708 368 800 q 341 644 365 668 q 272 598 317 619 q 213 567 226 576 l 321 567 q 328 539 325 557 l 349 539 q 357 482 357 514 l 357 457 l 356 425 l 101 421 l 57 424 m 314 478 l 317 518 q 311 553 317 542 l 156 551 q 153 558 153 554 q 179 608 153 588 q 237 640 206 629 q 296 676 268 651 q 325 734 324 701 q 324 788 326 767 q 315 835 322 810 q 294 875 307 860 q 196 911 263 911 q 46 769 46 911 q 50 728 46 749 l 50 726 l 82 725 q 143 729 108 725 l 143 731 q 192 807 143 807 q 224 767 224 800 q 197 713 224 735 q 128 666 169 690 q 67 621 86 642 q 46 534 46 586 q 44 465 46 482 l 44 463 l 74 463 l 314 467 l 317 467 l 314 478 m 186 721 l 189 724 q 210 763 210 738 q 186 721 193 757 z "},"":{"ha":353,"x_min":24,"x_max":351,"o":"m 350 779 l 351 674 l 351 622 q 348 544 351 563 q 339 502 344 525 q 326 472 333 479 q 308 450 319 464 q 281 431 296 436 q 181 418 239 418 q 92 444 122 418 l 92 446 l 83 449 q 63 474 78 453 l 64 472 l 65 474 l 56 476 q 31 520 35 494 q 26 556 26 546 q 26 588 25 567 q 26 613 26 610 l 114 618 q 141 606 133 618 q 154 589 149 594 l 161 589 q 176 578 161 578 q 200 601 200 578 l 192 601 q 150 597 169 601 q 139 628 142 611 q 122 625 136 628 q 110 678 110 651 l 111 697 l 111 725 l 53 725 l 53 753 l 25 753 l 25 781 l 24 797 q 29 833 24 821 l 28 832 q 83 898 40 875 q 178 921 125 921 q 273 895 231 921 q 339 833 315 869 q 350 793 350 819 l 350 779 m 47 599 l 39 599 q 42 564 40 585 q 44 532 43 543 q 65 488 49 503 q 78 482 67 488 q 100 472 89 476 q 171 460 131 460 q 296 525 268 460 q 310 701 310 557 l 308 808 l 308 821 q 269 883 308 860 q 175 907 229 907 q 79 879 121 907 q 38 800 38 851 l 39 768 l 76 767 l 94 767 l 122 768 q 144 794 126 783 q 181 806 163 806 q 214 772 214 806 q 200 741 214 749 q 160 733 186 733 q 125 731 135 733 l 126 717 l 124 672 q 129 642 124 651 q 158 646 142 646 q 214 601 214 646 q 203 573 214 583 q 176 563 192 563 q 145 575 161 563 q 124 603 129 588 l 114 603 l 47 599 m 174 749 q 199 764 193 749 q 174 749 182 757 z "},"":{"ha":354,"x_min":-21,"x_max":382,"o":"m 231 689 q 129 685 201 685 q 7 700 57 685 q 28 718 15 706 l -21 728 q 108 855 26 771 q 242 979 190 939 l 268 950 l 269 951 l 382 835 q 329 786 379 832 l 331 786 q 231 689 246 717 m 8 735 q 107 726 33 726 q 194 729 181 726 q 267 802 207 750 q 336 864 326 854 l 240 961 q 109 837 201 931 q 8 735 17 743 z "},"":{"ha":636,"x_min":40,"x_max":632,"o":"m 153 -269 l 121 -268 q 69 -275 90 -268 l 69 -242 q 42 -247 54 -242 l 42 -186 l 40 68 q 44 378 40 239 q 49 590 49 518 q 46 704 49 663 q 161 711 94 711 l 247 711 q 249 683 247 693 l 275 683 q 279 515 279 640 l 279 446 q 299 244 279 292 q 326 242 318 242 q 383 267 365 242 q 400 361 400 293 l 392 596 q 399 703 392 654 q 490 708 453 708 l 501 708 q 600 714 543 708 l 600 683 q 628 686 608 683 l 632 158 q 629 -39 632 86 l 476 -47 q 419 -17 419 -47 q 396 -6 403 -12 q 288 -35 358 -26 q 290 -189 288 -150 q 293 -253 293 -228 q 153 -269 272 -278 m 78 -226 l 188 -229 q 251 -219 244 -229 q 249 -176 251 -200 q 246 -85 246 -151 l 246 6 q 308 14 288 10 q 359 33 329 18 q 404 75 389 49 l 404 44 q 407 1 404 19 q 446 -6 408 -6 l 588 3 q 590 222 590 147 q 588 458 590 297 q 586 699 586 618 q 533 694 553 694 l 464 694 q 411 690 447 694 q 404 593 404 650 l 414 358 q 392 256 414 285 q 331 228 371 228 q 270 251 290 228 q 247 294 250 275 q 240 375 240 340 q 238 489 238 399 l 238 593 q 235 697 238 678 l 154 699 q 61 692 104 699 l 63 622 q 58 382 63 546 q 54 11 54 218 l 54 -97 l 56 -206 l 56 -228 q 78 -226 58 -226 z "},"":{"ha":933,"x_min":13,"x_max":951,"o":"m 275 397 l 265 396 q 128 434 179 396 q 29 567 78 472 q 13 719 13 639 q 15 840 13 800 q 39 931 18 879 q 156 1014 69 1004 q 232 1020 185 1018 q 303 1024 279 1022 l 549 1025 l 774 1028 l 919 1028 l 919 997 l 947 997 l 951 789 q 882 765 936 765 l 811 769 l 801 -67 q 806 -307 801 -256 q 665 -325 782 -332 l 632 -324 q 581 -331 601 -324 q 583 -296 581 -321 q 553 -303 563 -299 q 567 294 565 -135 q 571 771 569 724 q 521 772 554 772 q 511 16 511 257 q 517 -307 511 -225 q 376 -325 493 -332 l 343 -324 q 292 -331 313 -324 q 294 -296 292 -321 q 264 -303 274 -299 q 278 40 278 -151 q 275 397 278 231 m 910 821 l 906 1011 l 774 1014 l 549 1014 l 304 1010 q 245 1007 289 1008 q 185 1004 201 1006 q 138 997 169 1003 q 92 979 106 990 q 39 896 50 946 q 26 726 26 808 q 43 572 26 644 q 117 468 81 499 q 219 438 154 438 q 289 444 244 438 q 292 55 292 256 q 279 -283 292 -146 q 301 -282 282 -282 l 411 -285 q 475 -275 468 -285 q 469 53 469 -193 q 479 814 469 299 l 586 813 q 581 281 582 685 q 568 -283 581 -122 q 590 -282 571 -282 l 700 -285 q 764 -275 757 -285 q 760 -23 760 -224 q 771 811 760 178 l 853 807 q 910 821 903 807 z "},"":{"ha":228,"x_min":36,"x_max":221,"o":"m 42 339 l 36 531 l 36 560 l 189 558 l 189 531 l 217 531 l 221 336 q 168 311 206 311 q 132 313 168 311 q 69 311 97 313 l 69 340 l 42 339 m 179 367 l 175 544 l 50 546 l 50 524 l 56 354 l 82 354 l 142 353 q 179 367 171 353 z "},"":{"ha":264,"x_min":10,"x_max":286,"o":"m 286 -22 l 214 -247 l 97 -247 q 38 -232 38 -247 l 42 -219 q 10 -204 10 -217 q 63 -52 49 -100 q 89 25 78 -4 q 121 8 103 8 l 258 6 q 250 -21 256 -7 l 286 -22 m 94 0 l 24 -204 q 43 -206 24 -206 l 175 -204 q 206 -112 176 -199 q 240 -8 236 -25 l 121 -6 l 107 -3 l 94 0 z "},"":{"ha":260,"x_min":3,"x_max":250,"o":"m 250 760 l 243 489 l 243 447 q 192 424 243 424 q 121 433 140 424 l 121 453 q 93 461 108 453 l 93 528 q 100 696 93 601 q 55 713 79 701 q 31 730 31 724 q 32 739 31 736 q 3 757 3 751 q 38 836 3 776 q 74 904 74 896 l 117 906 l 143 906 q 218 901 156 906 q 223 878 218 882 q 246 874 228 874 q 250 781 250 833 l 250 760 m 115 757 l 107 528 l 107 469 q 179 465 157 465 q 201 475 201 465 l 201 517 l 208 788 l 208 839 q 206 889 208 856 q 143 892 164 892 l 88 890 l 78 878 q 60 848 69 864 q 42 814 51 832 q 17 757 17 772 q 49 744 17 753 q 89 735 82 735 q 104 751 96 735 q 115 768 113 768 l 115 757 z "},"":{"ha":353,"x_min":22,"x_max":358,"o":"m 179 578 q 201 644 201 588 l 201 656 q 203 701 203 668 q 197 758 203 735 q 169 646 169 758 q 173 595 169 610 q 176 581 176 581 q 175 579 175 581 q 176 578 175 578 q 176 576 176 578 q 178 578 176 578 l 179 578 m 175 913 q 309 837 260 913 q 358 682 358 761 l 358 646 q 319 492 358 561 q 206 424 281 424 q 90 476 131 424 q 40 553 57 501 q 23 631 24 606 q 22 725 22 656 q 57 847 22 794 l 57 846 l 65 858 q 175 913 115 913 m 217 658 q 174 563 217 563 q 161 567 167 563 q 128 658 128 575 q 138 772 128 742 q 175 801 147 801 q 217 694 217 801 l 217 658 m 36 711 q 36 681 36 706 q 37 635 36 657 q 44 576 38 613 q 65 519 51 539 q 108 482 79 499 q 176 465 136 465 q 281 528 246 465 q 317 671 317 592 l 317 710 q 260 867 317 813 q 186 899 226 899 q 112 883 146 899 q 69 842 78 867 q 36 711 36 793 z "},"":{"ha":810,"x_min":6,"x_max":838,"o":"m 488 282 l 571 361 q 461 478 551 383 q 326 629 371 572 q 388 683 350 643 q 453 739 426 724 q 492 699 464 726 l 568 622 q 601 588 583 607 q 651 538 640 544 l 747 436 q 838 336 810 371 q 628 117 768 244 q 469 -32 489 -11 q 376 52 383 42 q 364 68 369 63 l 339 94 l 317 114 l 163 -32 q 70 52 78 42 q 57 68 63 63 l 32 94 l 6 119 q 140 244 54 160 q 264 361 226 328 q 154 478 244 383 q 19 629 64 572 q 81 683 43 643 q 146 739 119 724 l 174 711 q 213 672 185 700 q 264 619 240 643 q 349 533 288 594 q 440 435 378 500 q 531 336 503 371 q 488 282 504 300 m 333 118 l 371 82 q 442 15 408 44 q 599 163 469 43 q 792 364 729 282 q 667 500 751 415 l 597 571 q 451 722 543 625 q 397 674 435 713 q 346 626 360 636 q 464 497 374 592 q 590 360 554 403 q 467 242 551 326 q 333 118 382 157 m 26 118 l 64 82 q 135 15 101 44 q 292 163 163 43 q 485 364 422 282 q 360 500 444 415 l 290 571 q 144 722 236 625 q 90 674 128 713 q 39 626 53 636 q 157 497 67 590 q 283 360 247 403 q 160 242 244 326 q 26 118 75 157 z "},"":{"ha":826,"x_min":7,"x_max":840,"o":"m 528 997 l 583 999 q 650 983 632 999 l 644 969 q 678 956 668 965 l 592 696 q 335 -33 349 -19 q 317 -42 326 -42 q 283 -42 300 -42 l 233 -39 q 179 -47 206 -39 q 185 -29 181 -42 q 190 -11 189 -17 q 151 -19 167 -14 q 308 420 176 57 q 497 1001 439 783 q 528 997 511 997 m 799 318 l 797 264 l 813 264 l 811 238 q 825 236 815 236 l 840 236 l 833 100 l 811 100 l 788 104 q 786 67 789 75 q 781 31 781 54 l 786 -25 q 700 -37 774 -37 l 654 -37 l 654 -10 l 626 -10 l 626 113 l 585 113 q 521 119 529 113 q 510 142 513 126 q 491 144 492 142 q 486 151 490 146 q 481 168 482 157 q 479 199 481 179 q 478 240 478 218 q 498 294 478 261 q 638 507 518 328 l 689 507 l 771 508 l 771 479 l 799 481 l 799 318 m 192 3 l 276 0 q 294 1 293 0 l 297 7 l 300 11 q 440 396 381 219 q 554 738 499 572 q 635 978 610 904 l 635 979 q 597 986 626 986 l 525 983 q 507 985 510 983 q 328 437 456 792 q 174 1 200 82 q 192 3 175 3 m 283 767 l 276 454 l 276 431 q 278 407 276 415 l 278 406 q 231 379 278 379 q 140 386 185 379 l 140 411 q 113 414 126 411 l 113 493 q 119 692 113 578 q 94 700 108 694 l 67 711 q 35 731 35 724 q 36 740 35 738 q 7 758 7 753 q 49 848 10 781 q 99 925 89 915 l 135 925 l 167 926 q 251 924 204 926 q 264 896 251 896 q 279 896 272 896 q 283 789 283 850 l 283 767 m 799 250 l 768 254 q 760 253 761 254 q 757 324 757 264 l 757 494 q 675 494 717 494 l 644 493 q 534 324 575 389 q 492 258 493 260 l 492 243 q 499 157 492 185 l 499 156 q 521 154 500 154 l 615 154 q 642 153 640 154 l 642 140 l 640 76 l 640 4 l 714 4 q 744 12 740 4 q 749 25 749 19 l 749 47 q 750 79 749 65 l 750 81 l 753 103 l 753 107 q 754 122 753 118 l 757 142 q 768 143 760 143 l 782 143 q 793 144 790 143 l 794 144 l 799 250 m 126 425 l 193 421 q 236 433 236 421 q 235 446 235 438 l 235 482 l 242 794 l 242 851 q 239 910 242 868 q 167 913 192 913 l 104 911 q 60 840 96 903 q 21 757 24 778 q 58 742 21 753 q 104 732 96 732 q 122 751 113 732 q 133 771 131 771 q 135 757 135 768 l 126 493 l 126 425 m 665 251 l 604 250 l 596 251 q 614 278 597 253 q 668 351 661 351 l 669 350 l 667 253 l 665 251 z "},"":{"ha":836,"x_min":7,"x_max":844,"o":"m 539 250 q 511 278 511 250 q 488 282 504 278 q 482 331 482 306 q 485 381 482 356 q 338 -31 343 -25 q 329 -38 332 -36 q 320 -41 326 -40 q 311 -42 314 -42 q 283 -42 297 -42 l 233 -39 q 179 -47 206 -39 q 185 -29 181 -42 q 190 -11 189 -17 q 151 -19 167 -14 q 308 420 176 57 q 497 1001 439 783 q 528 997 511 997 l 583 999 q 650 983 632 999 l 644 969 q 678 956 668 965 l 592 696 q 506 440 535 525 q 517 457 514 453 q 524 465 521 461 l 524 464 q 657 511 561 511 q 799 447 753 511 q 844 296 844 383 q 816 208 844 239 q 739 157 788 178 q 669 115 690 136 q 796 118 669 115 q 806 90 804 93 l 824 90 q 835 38 835 67 l 835 0 l 833 -36 l 556 -39 l 508 -37 l 510 -10 l 481 -10 q 483 48 482 15 q 483 99 483 81 q 510 188 486 150 q 593 251 528 208 q 565 250 582 250 l 539 250 m 192 3 l 276 0 q 294 1 293 0 l 297 7 q 299 8 297 8 l 300 11 q 440 396 381 219 q 554 738 499 572 q 635 978 610 904 l 635 979 q 597 986 626 986 l 525 983 q 507 985 510 983 q 328 437 456 792 q 174 1 200 82 q 192 3 175 3 m 788 104 l 653 103 q 614 110 614 103 q 681 189 614 158 q 736 217 708 203 q 783 259 764 232 q 803 324 803 286 q 773 451 803 406 q 657 497 743 497 q 496 340 496 497 q 500 294 496 317 l 501 293 q 536 292 511 292 q 604 297 561 292 l 604 299 q 656 382 604 382 q 693 332 693 376 q 663 278 693 303 q 585 226 632 253 q 519 176 539 199 q 497 78 497 139 q 496 4 497 17 l 528 3 l 792 6 q 793 12 794 6 q 792 19 792 18 l 794 68 q 788 104 794 88 m 283 767 l 276 454 q 278 407 276 424 l 278 406 q 231 379 278 379 q 140 386 185 379 l 140 411 q 113 414 126 411 l 113 493 q 119 692 113 578 q 66 711 97 697 q 35 731 35 725 q 36 740 35 738 q 7 758 7 753 q 49 848 10 781 q 99 925 89 915 l 135 925 l 167 926 q 251 924 204 926 q 264 896 251 896 q 279 896 272 896 q 283 789 283 850 l 283 767 m 126 425 l 193 421 q 236 433 236 421 q 235 457 235 443 l 235 482 l 242 794 l 242 851 q 239 910 242 868 q 167 913 192 913 l 104 911 q 60 840 96 903 q 21 757 24 778 q 58 742 21 753 q 104 732 96 732 q 122 751 113 732 q 133 771 131 771 q 135 757 135 768 l 126 493 l 126 425 m 679 332 q 678 339 679 338 q 647 286 654 335 q 679 332 679 307 z "},"":{"ha":869,"x_min":17,"x_max":886,"o":"m 574 997 l 629 999 q 696 983 678 999 l 690 969 q 724 956 714 965 l 638 696 q 381 -33 394 -19 q 363 -42 372 -42 q 329 -42 346 -42 l 279 -39 q 225 -47 253 -39 q 236 -11 232 -19 q 197 -19 213 -14 q 353 420 222 57 q 543 1001 485 783 q 574 997 557 997 m 369 774 l 371 660 q 368 544 371 619 l 368 528 q 328 418 363 458 q 206 378 293 378 q 118 392 149 378 l 118 390 q 95 402 104 394 q 74 420 86 410 q 50 442 63 431 q 25 492 31 465 q 19 586 19 518 l 107 592 l 136 590 q 154 563 140 576 q 185 549 168 549 q 210 575 210 549 q 191 581 210 581 q 150 578 172 581 q 140 608 142 594 q 122 606 126 606 q 111 661 111 635 l 114 717 l 46 718 l 46 744 l 18 744 l 18 774 l 17 790 q 22 828 17 815 l 21 828 q 80 900 33 875 q 183 925 126 925 q 358 832 294 925 l 357 832 q 369 785 369 813 l 369 774 m 238 3 l 322 0 q 340 1 339 0 l 343 7 q 344 10 344 8 q 366 65 344 11 q 435 253 388 119 q 513 479 482 386 q 600 738 544 572 q 681 978 656 904 l 681 979 q 643 986 672 986 l 571 983 q 553 985 556 983 q 374 437 501 792 q 219 1 246 82 q 238 3 221 3 m 124 578 l 33 572 l 32 571 l 36 536 q 39 504 38 515 q 61 450 40 478 q 74 444 63 450 q 97 433 86 438 q 178 419 128 419 q 303 474 276 419 q 329 686 329 528 l 328 803 l 328 813 q 285 885 328 858 q 182 911 242 911 q 76 881 122 911 q 31 793 31 850 l 32 760 l 74 758 l 94 758 l 124 760 q 151 789 131 776 q 190 801 171 801 q 224 758 224 801 q 208 731 224 739 q 160 722 193 722 q 128 711 128 722 l 125 654 q 131 621 125 631 q 169 624 150 624 q 206 611 188 624 q 225 577 225 599 q 212 544 225 556 q 182 533 199 533 q 148 547 165 533 q 125 578 131 560 l 124 578 m 171 735 q 210 758 208 738 q 171 735 189 754 m 844 321 l 843 267 l 858 267 l 857 240 q 871 239 861 239 l 886 239 l 879 103 l 857 103 l 833 107 q 832 69 836 78 q 826 33 826 57 l 832 -22 q 746 -35 819 -35 l 700 -35 l 700 -7 l 672 -7 l 672 115 l 631 115 q 567 122 575 115 q 556 144 558 129 q 538 147 539 144 q 532 154 536 149 q 527 171 528 160 q 525 201 526 182 q 524 242 524 221 q 544 297 524 264 q 683 510 565 331 l 735 510 l 817 511 l 817 482 l 844 483 l 844 321 m 844 253 l 814 257 q 806 256 807 257 q 803 326 803 267 l 803 497 q 721 497 761 497 l 690 496 q 580 327 621 392 q 538 261 539 263 l 538 246 q 544 160 538 188 l 544 158 q 567 157 546 157 l 661 157 q 688 156 686 157 l 686 114 l 686 7 l 760 7 q 790 15 786 7 q 794 28 794 22 l 794 50 q 796 82 794 68 l 796 83 l 799 106 l 799 110 q 800 125 799 121 l 803 144 q 814 146 806 146 l 828 146 q 839 147 836 146 l 840 147 l 844 253 m 711 254 l 650 253 l 642 254 q 660 281 643 256 q 714 354 707 354 l 715 353 l 713 256 l 711 254 z "},"":{"ha":625,"x_min":13,"x_max":644,"o":"m 440 594 l 456 596 q 469 550 469 582 l 467 496 q 367 260 443 361 q 290 122 290 160 q 333 97 290 97 q 383 134 357 97 q 431 181 410 171 q 497 183 467 183 q 617 175 528 183 l 614 149 l 644 147 q 558 -67 639 28 q 358 -168 476 -162 q 324 -169 347 -169 q 107 -81 201 -169 q 13 119 13 7 q 30 210 13 165 q 64 277 47 254 q 118 342 81 300 q 165 397 156 385 q 231 561 210 463 l 236 592 q 232 618 236 603 q 324 624 276 624 l 403 622 l 428 624 q 440 594 439 611 m 383 608 l 304 610 q 250 607 286 610 l 250 606 q 251 590 251 603 q 244 558 251 576 q 176 389 225 457 q 131 336 164 372 q 80 276 99 300 q 44 209 61 251 q 26 119 26 167 q 106 -56 26 15 q 305 -128 185 -128 q 511 -42 425 -128 q 603 163 597 43 l 603 164 q 465 168 482 168 q 433 167 449 168 q 390 121 417 160 q 328 82 363 82 q 272 104 294 82 q 249 151 249 126 q 272 216 249 176 q 328 299 294 256 q 371 361 361 343 q 425 526 407 414 l 428 579 l 428 594 q 422 610 428 604 l 421 610 q 383 608 408 608 m 472 756 l 469 656 q 360 640 424 640 q 268 654 297 640 l 268 674 q 240 682 251 675 q 253 869 240 801 l 439 868 q 442 840 442 849 l 467 840 q 472 756 472 808 m 428 693 l 429 790 q 426 854 429 843 l 265 854 l 263 856 l 263 853 l 254 690 q 334 682 274 682 q 428 693 394 682 z "},"":{"ha":603,"x_min":-11,"x_max":651,"o":"m 247 988 l 267 986 q 400 994 307 986 q 408 964 403 981 q 428 967 414 967 q 492 701 446 910 q 544 463 538 492 l 651 -39 q 547 -49 596 -49 q 438 -35 499 -49 q 434 -26 436 -29 q 431 -19 432 -22 q 428 -15 431 -17 q 426 -12 426 -14 q 423 -10 425 -11 q 419 -8 421 -10 q 410 -7 415 -7 q 384 85 397 31 q 363 167 371 140 q 344 193 354 193 l 306 192 q 283 87 299 172 q 243 -40 267 1 l 213 -43 q 89 -40 208 -43 l 17 -39 l 17 -35 l 19 -11 l -11 -11 q 87 506 26 229 q 207 985 147 783 q 247 988 221 988 m 268 233 l 308 235 l 326 235 q 354 232 329 235 q 389 117 368 203 q 419 6 410 32 l 421 6 q 522 -7 475 -7 q 607 0 569 -7 l 607 1 l 503 488 q 469 633 496 518 q 389 979 404 929 q 268 974 328 974 l 239 974 q 218 972 222 974 q 6 3 82 521 q 8 1 7 1 l 42 1 l 185 -1 q 207 1 199 -1 q 241 120 225 33 q 268 233 257 207 m 460 1011 q 331 997 396 997 q 236 1001 265 997 q 139 1097 197 1047 l 139 1096 q 56 1176 122 1110 l 169 1292 q 303 1163 217 1254 q 432 1039 390 1072 l 431 1038 q 460 1011 450 1018 m 217 1042 q 303 1039 231 1039 q 403 1047 375 1039 q 302 1149 394 1056 q 171 1274 210 1243 l 75 1176 q 143 1114 81 1171 q 217 1042 206 1057 m 361 397 l 292 396 q 274 397 285 396 q 258 397 264 397 q 270 488 264 435 q 281 569 276 540 q 289 631 285 599 q 308 688 299 688 q 361 397 325 688 m 326 569 q 304 411 325 560 l 344 411 q 334 502 340 449 q 326 569 328 556 z "},"":{"ha":603,"x_min":-11,"x_max":651,"o":"m 247 988 l 267 986 q 400 994 307 986 q 408 964 403 981 q 428 967 414 967 q 492 701 446 910 q 544 463 538 492 l 651 -39 q 547 -49 596 -49 q 438 -35 499 -49 q 434 -26 436 -29 q 431 -19 432 -22 q 428 -15 431 -17 q 426 -12 426 -14 q 423 -10 425 -11 q 419 -8 421 -10 q 410 -7 415 -7 q 384 85 397 31 q 363 167 371 140 q 344 193 354 193 l 306 192 q 283 87 299 172 q 243 -40 267 1 l 213 -43 q 89 -40 208 -43 l 17 -39 l 17 -35 l 19 -11 l -11 -11 q 207 985 78 565 q 247 988 221 988 m 268 233 l 308 235 l 326 235 q 354 232 329 235 q 389 117 368 203 q 419 6 410 32 l 421 6 q 522 -7 475 -7 q 607 0 569 -7 l 607 1 l 503 488 q 469 633 496 518 q 389 979 404 929 q 268 974 328 974 l 239 974 q 218 972 222 974 q 6 3 82 521 q 8 1 7 1 l 42 1 l 185 -1 q 207 1 199 -1 q 241 120 225 33 q 268 233 257 207 m 406 1001 q 304 997 376 997 q 182 1013 232 997 q 203 1031 190 1018 q 185 1033 196 1032 q 154 1040 163 1039 q 283 1167 201 1083 q 417 1292 365 1251 l 443 1263 l 444 1264 l 557 1147 q 504 1099 554 1144 l 506 1099 q 406 1001 421 1029 m 183 1047 q 282 1039 208 1039 q 369 1042 356 1039 q 442 1115 382 1063 q 511 1176 501 1167 l 415 1274 q 284 1149 376 1243 q 183 1047 192 1056 m 361 397 l 292 396 q 274 397 285 396 q 258 397 264 397 q 270 488 264 435 q 281 569 276 540 q 289 631 285 599 q 308 688 299 688 q 361 397 325 688 m 326 569 q 304 411 325 560 l 344 411 q 334 502 340 449 q 326 569 328 556 z "},"":{"ha":603,"x_min":-12,"x_max":651,"o":"m 407 964 l 428 967 q 544 463 428 963 l 651 -39 q 547 -49 596 -49 q 438 -35 499 -49 q 434 -26 436 -29 q 431 -19 432 -22 q 428 -15 431 -17 q 426 -12 426 -14 q 423 -10 425 -11 q 419 -8 421 -10 q 410 -7 415 -7 q 384 85 397 31 q 363 167 371 140 q 344 193 354 193 l 306 192 q 283 87 299 172 q 243 -40 267 1 q 213 -43 243 -40 q 89 -40 208 -43 l 15 -39 l 19 -11 l -12 -11 l 7 92 q 207 985 103 638 q 247 988 221 988 l 267 986 q 400 994 307 986 q 407 964 406 969 m 268 233 l 308 235 l 326 235 q 354 232 329 235 q 389 117 368 203 q 419 6 410 32 l 421 6 q 522 -7 475 -7 q 607 0 569 -7 l 607 1 l 503 488 q 389 979 490 540 q 268 974 328 974 l 239 974 q 218 972 222 974 q 110 544 160 775 q 33 160 60 314 q 6 3 7 6 q 8 1 7 1 l 42 1 l 185 -1 q 207 1 199 -1 q 241 120 225 33 q 268 233 257 207 m 421 999 q 326 1067 378 999 q 303 1042 318 1061 q 233 999 267 999 q 210 1000 226 999 q 156 1003 193 1001 q 83 1008 119 1006 q 101 1032 86 1013 l 56 1036 q 164 1163 119 1121 q 220 1217 208 1206 q 265 1256 232 1228 q 307 1294 297 1285 l 335 1267 l 582 1040 l 551 1013 q 553 1010 553 1011 q 539 1006 553 1008 q 469 999 488 999 q 421 999 444 999 m 82 1049 q 194 1040 181 1040 q 231 1043 208 1040 q 267 1077 238 1046 q 303 1111 296 1108 q 338 1075 310 1107 q 376 1042 365 1043 q 418 1040 386 1040 q 474 1042 450 1040 q 513 1047 497 1044 q 531 1050 528 1050 l 533 1050 l 307 1275 q 247 1220 289 1258 q 185 1163 206 1182 q 82 1049 129 1111 m 361 397 l 292 396 q 274 397 285 396 q 258 397 264 397 q 270 488 264 435 q 281 569 276 540 q 289 631 285 599 q 308 688 299 688 q 361 397 325 688 m 326 569 q 304 411 325 560 l 344 411 q 334 502 340 449 q 326 569 328 556 z "},"":{"ha":603,"x_min":-12,"x_max":651,"o":"m 247 988 l 267 986 q 400 994 307 986 q 408 964 403 981 q 428 967 414 967 q 492 701 446 910 q 544 463 538 492 l 651 -39 q 547 -49 596 -49 q 438 -35 499 -49 q 434 -26 436 -29 q 431 -19 432 -22 q 428 -15 431 -17 q 426 -12 426 -14 q 423 -10 425 -11 q 419 -8 421 -10 q 410 -7 415 -7 q 384 85 397 31 q 363 167 371 140 q 344 193 354 193 l 306 192 q 283 87 299 172 q 243 -40 267 1 l 213 -43 q 89 -40 208 -43 l 15 -39 l 19 -11 l -12 -11 l 7 92 q 207 985 103 638 q 247 988 221 988 m 268 233 l 308 235 l 326 235 q 354 232 329 235 q 389 117 368 203 q 419 6 410 32 l 421 6 q 522 -7 475 -7 q 607 0 569 -7 l 607 1 l 503 488 q 469 633 496 518 q 389 979 404 929 q 268 974 328 974 l 239 974 q 218 972 222 974 q 110 544 160 775 q 33 160 60 314 q 6 3 7 6 q 8 1 7 1 l 42 1 l 185 -1 q 207 1 199 -1 q 241 120 225 33 q 268 233 257 207 m 599 1253 l 622 1254 l 625 1238 q 626 1213 626 1228 q 579 1066 626 1133 q 454 999 532 999 q 361 1028 406 999 q 300 1099 317 1057 q 293 1100 297 1100 q 288 1101 289 1100 q 226 1072 244 1101 q 222 1049 222 1060 q 228 1025 222 1038 l 211 1006 q 133 1011 188 1011 q 32 1008 79 1011 q 40 1038 33 1019 q 20 1037 32 1038 q 4 1036 8 1036 q 221 1293 69 1293 q 369 1201 300 1293 l 369 1203 q 393 1190 375 1190 q 431 1220 411 1190 q 457 1276 450 1250 q 594 1282 507 1282 l 597 1264 l 599 1253 m 585 1238 q 581 1268 585 1261 q 467 1264 468 1264 q 438 1206 458 1235 q 393 1176 417 1176 q 347 1202 369 1176 q 293 1253 324 1228 q 219 1279 263 1279 q 24 1051 86 1279 q 105 1053 47 1053 q 186 1047 163 1053 l 186 1049 q 181 1076 181 1061 q 190 1113 181 1093 q 261 1143 210 1143 q 310 1111 289 1143 q 419 1040 340 1040 q 542 1101 499 1040 q 585 1238 585 1161 m 361 397 l 292 396 q 274 397 285 396 q 258 397 264 397 q 270 488 264 435 q 281 569 276 540 q 289 631 285 599 q 308 688 299 688 q 361 397 325 688 m 326 569 q 304 411 325 560 l 344 411 q 334 502 340 449 q 326 569 328 556 z "},"":{"ha":603,"x_min":-12,"x_max":651,"o":"m 407 964 l 428 967 q 544 463 428 963 l 651 -39 q 547 -49 596 -49 q 438 -35 499 -49 q 434 -26 436 -29 q 431 -19 432 -22 q 428 -15 431 -17 q 426 -12 426 -14 q 423 -10 425 -11 q 419 -8 421 -10 q 410 -7 415 -7 q 384 85 397 31 q 363 167 371 140 q 344 193 354 193 l 306 192 q 283 87 299 172 q 243 -40 267 1 q 213 -43 243 -40 q 89 -40 208 -43 l 15 -39 l 19 -11 l -12 -11 l 7 92 q 207 985 103 638 q 247 988 221 988 l 267 986 q 400 994 307 986 q 407 964 406 969 m 268 233 l 308 235 l 326 235 q 354 232 329 235 q 389 117 368 203 q 419 6 410 32 l 421 6 q 522 -7 475 -7 q 607 0 569 -7 l 607 1 l 503 488 q 389 979 490 540 q 268 974 328 974 l 239 974 q 218 972 222 974 q 110 544 160 775 q 33 160 60 314 q 6 3 7 6 q 8 1 7 1 l 42 1 l 185 -1 q 207 1 199 -1 q 241 120 225 33 q 268 233 257 207 m 353 1013 l 349 1040 l 325 1040 q 319 1115 319 1068 l 322 1206 q 417 1218 363 1218 q 501 1204 472 1218 l 501 1185 q 529 1176 518 1179 q 517 1011 529 1111 l 353 1013 m 111 1013 l 107 1040 l 83 1040 q 78 1115 78 1068 l 81 1206 q 176 1218 121 1218 q 260 1204 231 1218 l 260 1185 q 288 1176 276 1179 q 275 1011 288 1111 l 111 1013 m 336 1194 l 333 1110 q 338 1054 333 1075 l 342 1054 l 476 1053 l 479 1053 l 479 1056 q 486 1165 479 1074 l 488 1196 q 418 1203 472 1203 q 336 1194 364 1203 m 94 1194 l 92 1110 q 96 1054 92 1075 l 100 1054 l 235 1053 l 238 1054 l 238 1056 q 244 1165 238 1074 l 246 1196 q 176 1203 231 1203 q 94 1194 122 1203 m 361 397 l 292 396 q 274 397 285 396 q 258 397 264 397 q 270 488 264 435 q 281 569 276 540 q 289 631 285 599 q 308 688 299 688 q 361 397 325 688 m 326 569 q 304 411 325 560 l 344 411 q 334 502 340 449 q 326 569 328 556 z "},"":{"ha":603,"x_min":-12,"x_max":651,"o":"m 407 964 l 428 967 q 544 463 428 963 l 651 -39 q 547 -49 596 -49 q 438 -35 499 -49 q 434 -26 436 -29 q 431 -19 432 -22 q 428 -15 431 -17 q 426 -12 426 -14 q 423 -10 425 -11 q 419 -8 421 -10 q 410 -7 415 -7 q 384 85 397 31 q 363 167 371 140 q 344 193 354 193 l 306 192 q 283 87 299 172 q 243 -40 267 1 q 213 -43 243 -40 q 89 -40 208 -43 l 15 -39 l 19 -11 l -12 -11 l 7 92 q 207 985 103 638 q 247 988 221 988 l 267 986 q 400 994 307 986 q 407 964 406 969 m 268 233 l 308 235 l 326 235 q 354 232 329 235 q 389 117 368 203 q 419 6 410 32 l 421 6 q 522 -7 475 -7 q 607 0 569 -7 l 607 1 l 503 488 q 389 979 490 540 q 268 974 328 974 l 239 974 q 218 972 222 974 q 110 544 160 775 q 33 160 60 314 q 6 3 7 6 q 8 1 7 1 l 42 1 l 185 -1 q 207 1 199 -1 q 241 120 225 33 q 268 233 257 207 m 313 1001 q 268 1003 282 1001 q 234 1014 254 1004 q 201 1043 214 1024 q 158 1174 158 1069 q 185 1279 158 1242 q 292 1313 226 1313 q 428 1263 392 1313 l 428 1260 q 460 1219 453 1244 q 467 1143 467 1194 q 446 1046 467 1092 l 444 1044 q 313 1001 415 1001 m 406 1079 q 425 1174 425 1131 q 414 1258 425 1217 q 283 1300 382 1300 q 198 1271 224 1300 q 172 1190 172 1242 q 174 1120 172 1139 q 186 1081 176 1101 q 295 1043 206 1043 q 406 1079 385 1043 m 361 397 l 292 396 q 274 397 285 396 q 258 397 264 397 q 270 488 264 435 q 281 569 276 540 q 289 631 285 599 q 308 688 299 688 q 361 397 325 688 m 235 1178 q 299 1238 235 1238 q 364 1179 364 1238 q 360 1138 364 1153 q 344 1115 357 1122 q 326 1108 331 1108 q 297 1104 321 1107 l 283 1104 q 235 1178 235 1104 m 337 1131 q 342 1136 337 1131 q 349 1150 347 1142 q 350 1174 350 1158 q 346 1193 350 1190 q 327 1196 342 1196 q 292 1189 313 1196 q 278 1118 271 1169 l 306 1118 q 337 1131 326 1119 m 326 569 q 304 411 325 560 l 344 411 q 334 502 340 449 q 326 569 328 556 z "},"":{"ha":994,"x_min":-14,"x_max":1013,"o":"m 983 176 l 1011 175 l 1011 160 q 1013 85 1013 139 q 997 -36 1013 31 q 621 -40 997 -36 q 406 -35 493 -40 q 403 -24 404 -31 q 400 -14 401 -17 q 378 -7 394 -7 q 361 53 371 22 q 343 121 351 85 q 290 122 333 122 q 279 93 283 101 l 281 94 q 235 -40 256 -19 l 125 -37 q 70 -40 107 -37 q 14 -43 33 -43 q 18 -12 15 -32 q 9 -15 15 -14 q -14 -15 3 -15 q 21 190 6 92 q 103 569 36 289 q 201 976 171 849 q 677 985 388 985 q 978 983 967 985 q 992 956 978 960 q 1006 956 993 954 q 1010 878 1010 889 l 1007 732 q 842 717 947 717 l 793 717 l 728 718 q 636 713 679 718 l 632 617 l 632 600 l 682 600 q 779 594 749 600 l 783 569 q 807 567 788 569 q 814 483 814 531 l 811 350 q 719 340 772 340 l 672 340 q 643 339 644 340 q 639 243 639 260 q 640 211 639 226 q 704 210 661 210 l 768 210 q 983 203 901 210 l 983 176 m 590 1 l 958 6 l 961 8 q 971 113 971 61 q 969 186 971 165 l 969 190 q 784 196 908 196 q 611 199 660 196 l 610 199 q 597 287 597 225 q 601 375 597 349 q 638 383 608 382 q 707 384 667 383 q 769 389 747 385 l 772 508 q 767 582 772 550 q 704 586 736 586 l 660 586 q 599 590 619 586 q 590 644 590 610 l 594 735 l 594 753 q 707 760 642 760 l 822 758 q 965 771 914 758 l 965 774 l 968 906 q 965 971 968 956 l 965 974 q 213 963 464 974 q 100 486 133 618 q 43 246 50 290 l 35 196 q 22 119 32 181 q 3 -1 13 57 l 86 3 l 201 1 l 206 4 q 250 161 213 33 l 254 164 l 350 161 l 350 160 q 369 80 356 131 q 389 7 383 29 q 590 1 476 1 m 329 393 l 278 396 q 261 394 265 396 l 258 394 q 271 485 264 456 q 303 585 278 515 l 328 500 q 353 399 347 433 q 329 393 347 393 m 306 408 q 326 404 318 404 q 335 405 333 404 q 338 406 336 406 q 327 447 335 418 q 318 482 319 476 q 304 408 314 469 l 306 408 z "},"":{"ha":661,"x_min":32,"x_max":676,"o":"m 336 -218 l 261 -221 q 229 -216 235 -221 q 224 -201 224 -211 l 224 -193 q 199 -190 203 -193 q 196 -174 196 -187 q 209 -115 196 -161 q 225 -51 222 -68 q 87 48 136 -40 q 35 256 38 136 l 35 269 q 32 507 32 389 q 40 744 32 713 q 131 947 53 882 q 253 976 174 976 l 314 976 q 564 882 481 976 q 647 768 617 836 q 676 628 676 700 q 670 561 676 599 q 647 524 664 524 q 573 515 610 515 q 449 528 536 515 q 446 535 447 531 q 444 542 444 540 q 441 547 443 544 q 436 550 439 550 q 421 556 426 554 q 408 624 411 581 q 397 688 406 667 q 366 708 389 708 q 328 700 343 708 q 306 674 314 692 q 292 639 297 657 q 285 547 285 611 l 286 457 l 286 397 q 293 278 286 300 q 313 228 306 236 q 326 217 321 219 q 348 215 331 215 q 381 223 365 215 q 403 250 396 231 q 414 285 411 269 q 420 338 417 301 q 426 394 424 374 l 538 397 q 631 386 594 397 q 638 365 633 369 q 658 358 642 361 q 676 250 676 297 q 604 44 676 133 q 415 -54 532 -46 q 408 -79 414 -56 q 374 -219 403 -103 q 336 -218 358 -218 m 244 483 l 243 581 q 251 672 243 650 q 268 714 258 694 q 335 750 288 750 q 400 720 382 750 q 422 637 418 690 q 431 568 425 583 l 433 568 q 547 557 511 557 q 621 567 592 557 q 635 656 635 607 q 587 829 635 747 q 460 943 539 911 q 314 963 413 963 l 253 963 q 143 939 179 963 q 53 728 53 865 q 46 512 46 624 q 49 269 46 400 l 49 256 q 66 128 51 185 q 120 31 81 72 q 221 -11 160 -11 q 246 -10 236 -11 l 246 -14 l 210 -174 q 233 -179 210 -179 l 313 -175 q 335 -176 313 -175 l 335 -174 q 358 -85 343 -146 q 376 -12 358 -85 l 381 -14 q 565 78 494 -8 q 635 278 635 164 q 619 375 635 322 q 539 383 593 383 q 439 381 539 383 q 435 341 438 367 q 432 299 433 315 q 424 263 431 283 q 408 231 418 242 q 339 201 388 201 q 271 244 292 201 q 247 331 250 289 q 243 432 243 417 l 244 483 z "},"":{"ha":668,"x_min":40,"x_max":688,"o":"m 657 188 l 658 175 q 685 176 675 175 l 685 160 q 688 74 688 118 q 671 -37 688 29 l 307 -42 q 76 -33 183 -42 l 76 -7 q 49 -6 76 -7 l 40 610 q 51 971 40 785 q 460 983 311 983 q 629 977 608 983 q 656 950 650 971 q 681 939 678 946 q 686 867 686 907 l 681 728 q 501 711 610 711 l 451 711 l 397 713 q 311 708 356 713 l 307 608 l 307 596 l 332 594 l 386 596 q 456 592 393 596 q 468 565 456 565 l 483 564 q 490 479 490 528 l 488 347 q 387 335 449 336 q 318 333 325 335 q 314 270 314 313 q 315 210 314 228 q 547 201 482 201 q 657 204 613 201 l 657 188 m 264 0 l 632 4 q 646 101 646 58 q 643 186 646 144 l 643 189 q 583 188 622 188 l 279 196 l 278 197 q 272 287 272 232 q 278 371 272 342 q 352 378 286 378 q 446 386 418 378 l 447 507 q 443 579 447 556 l 443 581 q 272 585 347 581 l 271 586 q 265 639 265 607 l 269 749 q 368 753 286 753 l 478 753 q 639 767 579 753 l 639 768 l 643 900 q 639 965 643 932 q 480 969 639 969 q 64 957 321 969 q 56 624 56 822 l 63 7 q 264 0 144 0 m 539 1011 q 410 997 475 997 q 315 1001 344 997 q 218 1097 276 1047 l 218 1096 q 135 1176 201 1110 l 249 1292 q 385 1164 308 1243 q 511 1039 499 1049 l 510 1038 q 539 1011 529 1018 m 296 1042 q 383 1039 310 1039 q 482 1047 456 1039 q 381 1149 474 1056 q 250 1274 289 1243 l 154 1176 q 222 1114 160 1171 q 296 1042 285 1057 z "},"":{"ha":668,"x_min":40,"x_max":688,"o":"m 657 188 l 658 175 q 685 176 675 175 l 685 160 q 688 74 688 118 q 671 -37 688 29 l 307 -42 q 76 -33 183 -42 l 76 -7 q 49 -6 76 -7 l 40 610 q 51 971 40 785 q 538 983 311 983 q 653 967 647 983 q 667 946 653 951 q 681 939 681 940 q 686 867 686 907 l 681 728 q 501 711 610 711 l 451 711 l 397 713 q 311 708 356 713 l 307 608 l 307 596 l 332 594 l 386 596 q 456 592 393 596 q 468 565 456 565 l 483 564 q 490 479 490 528 l 488 347 q 387 335 449 336 q 318 333 325 335 q 314 270 314 313 q 315 210 314 228 q 547 201 482 201 q 657 204 613 201 l 657 188 m 264 0 l 632 4 q 646 101 646 58 q 643 186 646 144 l 643 189 q 583 188 622 188 l 279 196 l 278 197 q 272 287 272 232 q 278 371 272 342 q 352 378 286 378 q 446 386 418 378 l 447 507 q 443 579 447 556 l 443 581 q 272 585 347 581 l 271 586 q 265 639 265 607 l 269 749 q 368 753 286 753 l 478 753 q 639 767 579 753 l 639 768 l 643 900 q 639 965 643 932 q 480 969 639 969 q 64 957 321 969 q 56 624 56 822 l 63 7 q 264 0 144 0 m 444 1001 q 343 997 415 997 q 221 1013 271 997 q 242 1031 233 1025 q 224 1033 235 1032 q 193 1040 201 1039 q 322 1167 240 1083 q 456 1292 404 1251 l 482 1263 l 483 1264 l 596 1147 q 543 1099 593 1144 l 544 1099 q 444 1001 460 1029 m 222 1047 q 321 1039 247 1039 q 408 1042 394 1039 q 481 1115 421 1063 q 550 1176 540 1167 l 454 1274 q 323 1149 415 1243 q 222 1047 231 1056 z "},"":{"ha":668,"x_min":40,"x_max":688,"o":"m 657 188 l 658 175 q 685 176 675 175 l 685 160 q 688 74 688 118 q 671 -37 688 29 l 307 -42 q 76 -33 183 -42 l 76 -7 q 49 -6 76 -7 l 40 610 q 51 971 40 785 q 538 983 311 983 q 653 967 647 983 q 667 946 653 951 q 681 939 681 940 q 686 867 686 907 l 681 728 q 501 711 610 711 l 451 711 l 397 713 q 311 708 356 713 l 307 608 l 307 596 l 332 594 l 386 596 q 456 592 393 596 q 468 565 456 565 l 483 564 q 490 479 490 528 l 488 347 q 387 335 449 336 q 318 333 325 335 q 314 270 314 313 q 315 210 314 228 q 547 201 482 201 q 657 204 613 201 l 657 188 m 264 0 l 632 4 q 646 101 646 58 q 643 186 646 144 l 643 189 q 583 188 622 188 l 279 196 l 278 197 q 272 287 272 232 q 278 371 272 342 q 352 378 286 378 q 446 386 418 378 l 447 507 q 443 579 447 556 l 443 581 q 272 585 347 581 l 271 586 q 265 639 265 607 l 269 749 q 368 753 286 753 l 478 753 q 639 767 579 753 l 639 768 l 643 900 q 639 965 643 932 q 480 969 639 969 q 64 957 321 969 q 56 624 56 822 l 63 7 q 264 0 144 0 m 594 1013 q 596 1010 596 1011 q 582 1006 596 1008 q 511 999 531 999 q 476 999 489 999 q 453 1000 463 999 q 440 1003 444 1001 q 427 1010 436 1006 q 411 1022 418 1015 q 369 1067 394 1039 q 344 1042 361 1061 q 276 999 310 999 q 253 1000 269 999 q 199 1003 236 1001 q 126 1008 163 1006 q 144 1032 128 1013 l 99 1036 q 207 1163 163 1121 q 263 1217 251 1206 q 308 1256 275 1228 q 350 1294 340 1285 l 614 1032 l 594 1013 m 125 1049 q 238 1040 224 1040 q 274 1043 251 1040 q 310 1077 281 1046 q 346 1111 339 1108 q 381 1075 353 1107 q 419 1042 408 1043 q 461 1040 429 1040 q 517 1042 493 1040 q 556 1047 540 1044 q 574 1050 571 1050 l 576 1050 l 350 1275 q 290 1220 332 1258 q 228 1163 249 1182 q 125 1049 172 1111 z "},"":{"ha":668,"x_min":40,"x_max":688,"o":"m 657 188 l 658 175 q 685 176 675 175 l 685 160 q 688 74 688 118 q 671 -37 688 29 l 307 -42 q 76 -33 183 -42 l 76 -7 q 49 -6 76 -7 l 40 610 q 51 971 40 785 q 538 983 311 983 q 653 967 647 983 q 667 946 653 951 q 681 938 681 940 q 686 867 686 907 l 681 728 q 501 711 610 711 l 451 711 l 397 713 q 311 708 356 713 l 307 608 l 307 596 l 332 594 l 386 596 q 456 592 393 596 q 468 565 456 565 l 483 564 q 490 479 490 528 l 488 347 q 387 335 449 336 q 318 333 325 335 q 314 270 314 313 q 315 210 314 228 q 547 201 482 201 q 657 204 613 201 l 657 188 m 264 0 l 632 4 q 646 101 646 58 q 643 186 646 144 l 643 189 q 583 188 622 188 l 279 196 l 278 197 q 272 287 272 232 q 278 371 272 342 q 352 378 286 378 q 446 386 418 378 l 447 507 q 443 579 447 556 l 443 581 q 272 585 347 581 l 271 586 q 265 639 265 607 l 269 749 q 368 753 286 753 l 478 753 q 639 767 579 753 l 639 768 l 643 900 q 639 965 643 932 q 480 969 639 969 q 64 957 321 969 q 56 624 56 822 l 63 7 q 264 0 144 0 m 407 1013 l 403 1040 l 379 1040 q 374 1115 374 1068 l 376 1206 q 472 1218 417 1218 q 556 1204 526 1218 l 556 1185 q 583 1176 572 1179 q 571 1011 583 1111 l 407 1013 m 165 1013 l 161 1040 l 138 1040 q 132 1115 132 1068 l 135 1206 q 230 1218 175 1218 q 314 1204 285 1218 l 314 1185 q 342 1176 325 1182 q 329 1011 342 1111 l 165 1013 m 390 1194 l 388 1110 q 392 1054 388 1075 l 396 1054 l 531 1053 l 533 1053 l 533 1056 q 539 1165 533 1074 l 542 1196 q 472 1203 526 1203 q 390 1194 417 1203 m 149 1194 l 146 1110 q 150 1054 146 1075 l 292 1054 l 292 1056 q 297 1165 292 1074 l 300 1196 q 230 1203 285 1203 q 149 1194 175 1203 z "},"":{"ha":361,"x_min":-42,"x_max":363,"o":"m 78 997 l 242 990 l 322 990 l 322 963 l 350 963 l 350 943 l 340 269 q 349 -26 340 117 q 247 -49 326 -49 l 126 -46 q 67 -53 96 -46 q 67 -36 67 -47 q 68 -19 68 -25 q 39 -25 44 -22 q 49 236 49 118 l 39 715 q 53 994 39 851 q 78 997 72 997 m 299 310 l 308 971 l 308 976 l 243 976 l 71 983 l 65 983 l 65 981 q 53 717 53 868 l 63 228 q 54 -6 63 111 q 86 -3 74 -3 l 225 -8 q 307 7 292 -8 q 299 310 299 157 m 363 1011 q 233 997 299 997 q 139 1001 168 997 q 42 1097 100 1047 l 42 1096 q -42 1176 25 1110 l 72 1292 q 207 1163 121 1253 q 335 1039 293 1072 l 333 1038 q 363 1011 353 1018 m 119 1042 q 206 1039 133 1039 q 306 1047 278 1039 q 205 1149 297 1056 q 74 1274 113 1243 l -22 1176 q 46 1114 -17 1171 q 119 1042 108 1057 z "},"":{"ha":360,"x_min":39,"x_max":456,"o":"m 78 997 l 242 990 l 322 990 l 322 963 l 350 963 l 350 943 l 340 269 q 349 -26 340 117 q 247 -49 326 -49 l 126 -46 q 67 -53 96 -46 q 67 -36 67 -47 q 68 -19 68 -25 q 39 -25 44 -22 q 49 236 49 118 l 39 715 q 53 994 39 851 q 78 997 72 997 m 299 310 l 308 971 l 308 976 l 243 976 l 71 983 l 65 983 l 65 981 q 53 717 53 868 l 63 228 q 54 -6 63 111 q 86 -3 74 -3 l 225 -8 q 307 7 292 -8 q 299 310 299 157 m 304 1001 q 203 997 275 997 q 81 1013 131 997 q 101 1031 89 1018 q 83 1033 94 1032 q 53 1040 61 1039 q 182 1167 100 1083 q 315 1292 264 1251 l 342 1263 l 343 1264 l 456 1147 q 403 1099 453 1144 l 404 1099 q 304 1001 319 1029 m 82 1047 q 181 1039 107 1039 q 268 1042 254 1039 q 340 1115 281 1063 q 410 1176 400 1167 l 314 1274 q 183 1149 275 1243 q 82 1047 90 1056 z "},"":{"ha":361,"x_min":-51,"x_max":464,"o":"m 78 997 l 242 990 l 322 990 l 322 963 l 350 963 l 350 943 l 340 269 q 349 -26 340 117 q 247 -49 326 -49 l 126 -46 q 67 -53 96 -46 q 67 -36 67 -47 q 68 -19 68 -25 q 39 -25 44 -22 q 49 236 49 118 l 39 715 q 53 994 39 851 q 78 997 72 997 m 299 310 l 308 971 l 308 976 l 243 976 l 71 983 l 65 983 l 65 981 q 53 717 53 868 l 63 228 q 54 -6 63 111 q 86 -3 74 -3 l 225 -8 q 307 7 292 -8 q 299 310 299 157 m 314 999 q 219 1067 271 999 q 194 1042 211 1061 q 126 999 160 999 q 103 1000 119 999 q 49 1003 86 1001 q -24 1008 13 1006 q -6 1032 -22 1013 l -51 1036 q 57 1163 13 1121 q 113 1217 101 1206 q 158 1256 125 1228 q 200 1294 190 1285 l 464 1032 l 444 1013 q 446 1010 446 1011 q 432 1006 446 1008 q 363 999 381 999 q 314 999 338 999 m -25 1049 q 88 1040 74 1040 q 124 1043 101 1040 q 160 1077 131 1046 q 196 1111 189 1108 q 231 1075 203 1107 q 269 1042 258 1043 q 311 1040 279 1040 q 367 1042 343 1040 q 406 1047 390 1044 q 424 1050 421 1050 l 426 1050 l 200 1275 q 140 1220 182 1258 q 78 1163 99 1182 q -25 1049 22 1111 z "},"":{"ha":361,"x_min":-15,"x_max":436,"o":"m 78 997 l 242 990 l 322 990 l 322 963 l 350 963 l 350 943 l 340 269 q 349 -26 340 117 q 247 -49 326 -49 l 126 -46 q 67 -53 96 -46 q 67 -36 67 -47 q 68 -19 68 -25 q 39 -25 44 -22 q 49 236 49 118 l 39 715 q 53 994 39 851 q 78 997 72 997 m 299 310 l 308 971 l 308 976 l 243 976 l 71 983 l 65 983 l 65 981 q 53 717 53 868 l 63 228 q 54 -6 63 111 q 86 -3 74 -3 l 225 -8 q 307 7 292 -8 q 299 310 299 157 m 18 1013 l 14 1040 l -10 1040 q -15 1115 -15 1068 l -12 1206 q 83 1218 28 1218 q 167 1204 138 1218 l 167 1185 q 194 1176 178 1182 q 182 1011 194 1111 l 18 1013 m 260 1013 l 256 1040 l 232 1040 q 226 1115 226 1068 l 229 1206 q 324 1218 269 1218 q 408 1204 379 1218 l 408 1185 l 436 1176 q 424 1011 436 1111 l 260 1013 m 243 1194 l 240 1110 q 244 1054 240 1075 l 249 1054 l 383 1053 l 386 1053 l 386 1056 q 392 1165 386 1074 l 394 1196 q 324 1203 379 1203 q 243 1194 269 1203 m 1 1194 l -1 1110 q 3 1054 -1 1075 l 144 1054 l 144 1056 q 150 1165 144 1074 l 153 1196 q 83 1203 138 1203 q 1 1194 28 1203 z "},"":{"ha":669,"x_min":-21,"x_max":682,"o":"m 58 582 l 60 758 q 57 967 60 831 q 297 993 207 993 q 509 924 418 993 q 644 704 600 854 q 682 472 682 583 q 661 274 682 361 q 576 49 626 119 q 473 -31 525 -21 q 332 -42 421 -42 l 115 -36 l 92 -36 l 90 -7 l 64 -8 q 58 336 58 154 l 13 336 l 13 364 l -15 364 l -21 554 l -21 583 l 58 582 m 74 758 l 72 568 l -7 569 l -7 547 l -1 378 l 33 378 q 72 376 60 378 q 78 6 72 183 l 111 6 l 310 0 q 443 11 394 0 q 619 304 560 38 q 640 482 640 404 q 544 858 640 697 q 297 979 472 979 q 71 954 253 979 q 74 758 74 818 m 233 564 l 235 656 q 232 728 235 686 q 306 742 268 742 q 369 728 344 742 q 408 694 393 714 q 435 643 424 674 q 451 590 446 613 q 458 535 456 567 q 461 493 461 504 l 461 467 q 425 285 461 346 q 372 239 401 250 q 301 228 342 228 q 249 231 260 228 q 229 267 229 238 l 232 307 l 232 386 l 319 385 l 315 563 l 233 564 m 275 243 l 321 244 l 331 244 q 413 292 385 251 q 447 484 447 350 q 396 686 447 618 l 393 689 q 341 700 368 700 q 275 690 314 700 q 276 628 276 669 l 275 578 q 329 576 296 576 l 329 549 l 357 549 l 361 343 l 274 344 l 275 243 z "},"":{"ha":717,"x_min":39,"x_max":703,"o":"m 431 714 l 422 890 q 429 982 422 935 q 556 994 481 994 q 672 986 631 994 l 672 963 q 700 958 688 961 l 699 503 q 700 246 700 422 q 703 -6 700 69 l 701 -25 q 638 -53 689 -53 l 524 -46 q 474 -50 497 -46 q 460 -19 465 -33 l 446 -22 q 322 276 394 89 q 319 115 319 168 l 321 -40 q 261 -50 285 -50 l 122 -39 q 72 -43 100 -39 l 72 -11 q 44 -15 57 -11 l 44 65 l 39 579 q 53 974 39 793 q 146 988 86 988 q 282 965 206 988 q 286 950 282 953 q 310 938 294 939 q 425 724 319 893 q 428 719 425 722 q 431 714 431 717 m 488 -4 l 608 -11 q 660 4 651 -11 l 661 24 q 658 225 658 68 l 658 361 q 657 531 658 475 l 658 975 q 547 981 608 981 q 442 971 486 981 l 442 967 q 436 892 436 939 l 444 714 q 439 658 444 676 q 378 761 424 685 q 269 954 274 929 l 269 956 q 144 974 200 974 q 67 965 89 974 q 53 594 53 790 l 58 88 l 58 1 l 60 0 q 92 3 79 3 l 231 -8 q 281 0 272 -8 q 278 189 278 100 q 288 408 278 278 q 454 -7 400 111 l 456 -7 q 488 -4 475 -4 m 269 1003 q 192 1008 246 1008 q 90 1006 138 1008 q 99 1035 92 1017 q 78 1034 90 1035 q 63 1033 67 1033 q 279 1290 128 1290 q 428 1199 358 1290 l 428 1200 q 451 1188 433 1188 q 489 1217 469 1188 q 515 1274 508 1247 q 622 1278 551 1278 q 656 1267 650 1281 q 657 1250 657 1260 q 678 1244 672 1250 q 685 1233 685 1238 q 686 1211 686 1228 q 636 1061 686 1125 q 511 997 586 997 q 419 1026 463 997 q 358 1096 375 1054 q 331 1099 344 1099 q 299 1085 317 1099 q 281 1053 281 1072 q 286 1022 281 1035 l 269 1003 m 644 1233 q 639 1265 644 1260 q 525 1261 526 1261 q 496 1203 517 1232 q 451 1174 475 1174 q 405 1199 428 1174 q 351 1251 382 1225 q 278 1276 321 1276 q 82 1049 144 1276 q 163 1050 106 1050 q 244 1044 221 1050 l 244 1046 q 239 1081 239 1058 q 260 1122 239 1103 q 315 1140 282 1140 q 368 1108 349 1140 q 483 1039 397 1039 q 598 1098 551 1039 q 644 1233 644 1157 z "},"":{"ha":674,"x_min":26,"x_max":676,"o":"m 476 1011 q 347 997 413 997 q 253 1001 282 997 q 156 1097 214 1047 l 156 1096 q 72 1176 139 1110 l 186 1292 q 320 1163 233 1254 q 449 1039 407 1072 q 476 1011 446 1036 m 443 590 q 432 690 443 653 q 407 738 421 728 q 374 747 393 747 q 294 714 331 747 q 246 628 258 681 q 235 414 226 549 q 244 325 239 393 q 264 213 253 240 q 337 196 290 196 q 418 233 383 196 q 442 288 439 261 q 446 424 446 314 l 446 490 l 443 585 l 443 590 m 339 -54 q 72 81 138 -54 l 72 79 q 39 197 44 124 q 33 329 33 249 q 26 583 26 447 q 42 790 26 719 q 143 951 68 908 q 319 994 231 994 q 583 899 504 994 q 653 800 629 853 q 676 628 676 747 q 668 292 674 349 l 664 246 q 608 51 653 118 q 494 -28 569 -3 q 339 -54 418 -54 m 460 424 q 451 267 460 290 q 328 182 424 182 q 224 244 249 182 q 201 354 206 289 q 193 453 196 419 q 190 510 190 486 q 344 789 190 789 q 457 585 457 789 l 460 490 l 460 424 m 335 979 q 118 914 183 979 q 64 814 78 868 q 54 777 58 790 q 47 737 50 764 q 43 699 44 710 q 41 659 42 689 q 40 622 40 629 l 40 551 q 51 240 40 518 q 120 42 54 97 q 311 -12 186 -12 q 460 13 388 -12 q 569 88 533 38 q 622 275 613 154 l 626 321 q 633 656 633 400 q 608 829 633 778 q 506 942 582 904 q 335 979 429 979 m 233 1042 q 319 1039 247 1039 q 419 1047 392 1039 q 319 1149 411 1056 q 188 1274 226 1243 l 92 1176 q 160 1114 97 1171 q 233 1042 222 1057 z "},"":{"ha":674,"x_min":26,"x_max":676,"o":"m 453 1001 q 351 997 424 997 q 229 1013 279 997 q 250 1031 238 1018 q 232 1033 243 1032 q 201 1040 210 1039 q 331 1167 249 1083 q 464 1292 413 1251 l 490 1263 l 492 1264 l 604 1147 q 551 1099 601 1144 l 553 1099 q 453 1001 468 1029 m 443 590 q 432 690 443 653 q 407 738 421 728 q 374 747 393 747 q 294 714 331 747 q 246 628 258 681 q 235 414 226 549 q 244 325 239 393 q 264 213 253 240 q 337 196 290 196 q 418 233 383 196 q 442 288 439 261 q 446 424 446 314 l 446 490 l 443 585 l 443 590 m 339 -54 q 72 81 138 -54 l 72 79 q 39 197 44 124 q 33 329 33 249 q 26 583 26 447 q 42 790 26 719 q 143 951 68 908 q 319 994 231 994 q 583 899 504 994 q 653 800 629 853 q 676 628 676 747 q 668 292 674 349 l 664 246 q 608 51 653 118 q 494 -28 569 -3 q 339 -54 418 -54 m 231 1047 q 329 1039 256 1039 q 417 1042 403 1039 q 489 1115 429 1063 q 558 1176 549 1167 l 463 1274 q 331 1149 424 1243 q 231 1047 239 1056 m 460 424 q 451 267 460 290 q 328 182 424 182 q 224 244 249 182 q 201 354 206 289 q 193 453 196 419 q 190 510 190 486 q 344 789 190 789 q 457 585 457 789 l 460 490 l 460 424 m 335 979 q 118 914 183 979 q 64 814 78 868 q 54 777 58 790 q 47 737 50 764 q 43 699 44 710 q 41 659 42 689 q 40 622 40 629 l 40 551 q 51 240 40 518 q 120 42 54 97 q 311 -12 186 -12 q 460 13 388 -12 q 569 88 533 38 q 622 275 613 154 l 626 321 q 633 656 633 400 q 608 829 633 778 q 506 942 582 904 q 335 979 429 979 z "},"":{"ha":672,"x_min":25,"x_max":675,"o":"m 588 1013 q 589 1010 589 1011 q 575 1006 589 1008 q 504 999 524 999 q 469 999 482 999 q 447 1000 456 999 q 433 1003 438 1001 q 420 1010 429 1006 q 403 1022 411 1015 q 363 1067 388 1039 q 339 1042 354 1061 q 269 999 303 999 q 246 1000 263 999 q 192 1003 229 1001 q 119 1008 156 1006 q 138 1032 122 1013 l 92 1036 q 200 1163 156 1121 q 256 1217 244 1206 q 301 1256 268 1228 q 343 1294 333 1285 l 607 1032 l 588 1013 m 442 590 q 431 690 442 653 q 406 738 419 728 q 372 747 392 747 q 293 714 329 747 q 244 628 257 681 q 233 414 225 549 q 244 325 238 393 q 263 213 251 240 q 335 196 289 196 q 417 233 382 196 q 441 288 438 261 q 444 424 444 314 l 444 490 l 442 585 l 442 590 m 338 -54 q 71 81 136 -54 l 71 79 q 36 197 43 124 q 32 329 32 249 q 25 583 25 447 q 40 790 25 719 q 142 951 67 908 q 317 994 229 994 q 582 899 503 994 q 651 800 628 853 q 675 628 675 747 q 667 292 672 349 l 663 246 q 607 51 651 118 q 492 -28 568 -3 q 338 -54 417 -54 m 458 424 q 450 267 458 290 q 326 182 422 182 q 222 244 247 182 q 199 354 204 289 q 192 453 194 419 q 189 510 189 486 q 343 789 189 789 q 456 585 456 789 l 458 490 l 458 424 m 333 979 q 117 914 182 979 q 63 814 76 868 q 53 777 57 790 q 46 737 49 764 q 42 699 43 710 q 40 659 40 689 q 39 622 39 629 l 39 551 q 50 240 39 518 q 119 42 53 97 q 310 -12 185 -12 q 459 13 386 -12 q 568 88 532 38 q 621 275 611 154 l 625 321 q 632 656 632 400 q 607 829 632 778 q 504 942 581 904 q 333 979 428 979 m 118 1049 q 231 1040 217 1040 q 267 1043 244 1040 q 303 1077 274 1046 q 339 1111 332 1108 q 374 1075 346 1107 q 412 1042 401 1043 q 454 1040 422 1040 q 510 1042 486 1040 q 549 1047 533 1044 q 567 1050 564 1050 l 569 1050 l 343 1275 q 283 1220 325 1258 q 221 1163 242 1182 q 118 1049 165 1111 z "},"":{"ha":672,"x_min":25,"x_max":675,"o":"m 338 -54 q 71 81 136 -54 l 71 79 q 36 197 43 124 q 32 329 32 249 q 25 583 25 447 q 40 790 25 719 q 142 951 67 908 q 317 994 229 994 q 582 899 503 994 q 651 800 628 853 q 675 628 675 747 q 667 292 672 349 l 663 246 q 607 51 651 118 q 492 -28 568 -3 q 338 -54 417 -54 m 333 979 q 117 914 182 979 q 63 814 76 868 q 53 777 57 790 q 46 737 49 764 q 42 699 43 710 q 40 659 40 689 q 39 622 39 629 l 39 551 q 50 240 39 518 q 119 42 53 97 q 310 -12 185 -12 q 459 13 386 -12 q 568 88 532 38 q 621 275 611 154 l 625 321 q 632 656 632 400 q 607 829 632 778 q 504 942 581 904 q 333 979 428 979 m 458 424 q 450 267 458 290 q 326 182 422 182 q 222 244 247 182 q 199 354 204 289 q 192 453 194 419 q 189 510 189 486 q 343 789 189 789 q 456 585 456 789 l 458 490 l 458 424 m 242 990 q 164 996 218 996 q 63 993 110 996 q 71 1022 64 1004 q 51 1022 63 1022 q 35 1021 39 1021 q 251 1278 100 1278 q 400 1186 331 1278 l 400 1188 q 424 1175 406 1175 q 461 1205 442 1175 q 488 1261 481 1235 q 594 1265 524 1265 q 628 1253 622 1268 q 629 1238 629 1247 q 651 1231 644 1238 q 658 1220 657 1225 q 658 1199 658 1215 q 608 1049 658 1113 q 483 985 558 985 q 391 1013 435 985 q 331 1083 347 1042 q 303 1086 317 1086 q 271 1073 289 1086 q 253 1041 253 1060 q 258 1010 253 1022 l 242 990 m 442 590 q 431 690 442 653 q 406 738 419 728 q 372 747 392 747 q 293 714 329 747 q 244 628 257 681 q 233 414 225 549 q 244 325 238 393 q 263 213 251 240 q 335 196 289 196 q 417 233 382 196 q 441 288 438 261 q 444 424 444 314 l 444 490 l 442 585 l 442 590 m 617 1221 q 611 1253 617 1247 q 497 1249 499 1249 q 468 1190 489 1219 q 424 1161 447 1161 q 377 1187 400 1161 q 324 1238 354 1213 q 250 1264 293 1264 q 54 1036 117 1264 q 135 1038 78 1038 q 217 1032 193 1038 l 217 1033 q 211 1068 211 1046 q 233 1109 211 1090 q 288 1128 254 1128 q 340 1096 321 1128 q 456 1026 369 1026 q 570 1085 524 1026 q 617 1221 617 1144 z "},"":{"ha":672,"x_min":25,"x_max":675,"o":"m 338 -54 q 71 81 136 -54 l 71 79 q 36 197 43 124 q 32 329 32 249 q 25 583 25 447 q 40 790 25 719 q 142 951 67 908 q 317 994 229 994 q 582 899 503 994 q 651 800 628 853 q 675 628 675 747 q 667 292 672 349 l 663 246 q 607 51 651 118 q 492 -28 568 -3 q 338 -54 417 -54 m 333 979 q 117 914 182 979 q 63 814 76 868 q 53 777 57 790 q 46 737 49 764 q 42 699 43 710 q 40 659 40 689 q 39 622 39 629 l 39 551 q 50 240 39 518 q 119 42 53 97 q 310 -12 185 -12 q 459 13 386 -12 q 568 88 532 38 q 621 275 611 154 l 625 321 q 632 656 632 400 q 607 829 632 778 q 504 942 581 904 q 333 979 428 979 m 458 424 q 450 267 458 290 q 326 182 422 182 q 222 244 247 182 q 199 354 204 289 q 192 453 194 419 q 189 510 189 486 q 343 789 189 789 q 456 585 456 789 l 458 490 l 458 424 m 442 590 q 431 690 442 653 q 406 738 419 728 q 372 747 392 747 q 293 714 329 747 q 244 628 257 681 q 233 414 225 549 q 244 325 238 393 q 263 213 251 240 q 335 196 289 196 q 417 233 382 196 q 441 288 438 261 q 444 424 444 314 l 444 490 l 442 585 l 442 590 m 163 1013 l 158 1040 l 135 1040 q 129 1115 129 1068 l 132 1206 q 227 1218 172 1218 q 311 1204 282 1218 l 311 1185 l 339 1176 q 326 1011 339 1111 l 163 1013 m 404 1013 l 400 1040 l 376 1040 q 371 1115 371 1068 l 374 1206 q 469 1218 414 1218 q 553 1204 524 1218 l 553 1185 q 581 1176 569 1179 q 568 1011 581 1111 l 404 1013 m 146 1194 l 143 1110 q 147 1054 143 1075 l 151 1054 l 286 1053 l 289 1053 l 289 1056 q 294 1165 289 1074 l 297 1196 q 227 1203 282 1203 q 146 1194 172 1203 m 388 1194 l 385 1110 q 389 1054 385 1075 l 531 1054 l 531 1056 q 536 1165 531 1074 l 539 1196 q 469 1203 524 1203 q 388 1194 414 1203 z "},"":{"ha":1021,"x_min":43,"x_max":1004,"o":"m 57 275 l 43 1022 l 969 1019 l 969 992 l 997 992 l 997 563 q 1004 -15 997 125 l 1003 -17 q 992 -35 1000 -29 q 734 -51 969 -51 q 78 -39 499 -51 q 79 -11 78 -21 l 50 -11 q 57 275 57 146 m 57 1008 l 71 275 q 64 3 71 160 q 640 -10 485 -10 q 840 -8 794 -10 q 908 -6 885 -7 q 944 -1 932 -6 q 959 4 957 3 q 961 11 961 6 q 963 18 961 17 q 954 510 954 167 l 954 693 l 956 1006 l 57 1008 m 813 886 l 815 392 q 813 149 815 197 q 728 315 801 175 q 646 514 654 454 q 729 719 654 572 q 813 886 804 865 m 201 317 q 206 893 201 732 q 299 696 281 753 q 333 588 318 639 q 354 517 347 538 q 309 392 346 497 q 201 140 272 288 l 201 317 m 643 143 q 508 132 610 132 q 360 135 407 132 q 431 312 375 185 q 494 456 488 439 l 643 143 m 504 889 q 578 890 532 889 q 638 890 624 890 q 557 700 614 818 q 496 569 500 582 q 487 592 494 575 q 435 715 479 608 q 371 889 390 822 l 504 889 m 801 400 l 800 668 q 799 738 799 694 q 728 606 761 682 q 688 486 696 531 q 718 395 696 442 q 767 298 740 349 q 800 236 794 247 q 801 400 801 290 m 243 264 l 306 428 q 339 515 317 465 q 318 589 329 543 q 244 788 294 683 q 243 264 243 617 m 442 146 q 624 154 549 146 l 517 376 q 415 146 443 229 l 442 146 m 532 847 l 417 847 q 504 622 439 775 q 515 644 508 631 q 547 709 521 657 q 607 849 572 761 q 532 847 585 847 z "},"":{"ha":665,"x_min":26,"x_max":671,"o":"m 433 1017 l 524 1019 q 603 1003 575 1019 q 601 986 603 990 q 631 975 611 983 q 617 916 631 946 q 604 879 604 886 l 604 876 q 671 649 671 796 q 668 574 671 626 l 668 510 q 644 151 668 276 q 351 -40 599 -40 q 283 -43 299 -40 q 254 -65 269 -61 q 207 -69 239 -69 l 163 -69 q 65 -71 92 -69 q 61 -54 61 -64 l 63 -42 q 38 -43 42 -42 q 65 86 25 -18 q 67 93 67 92 q 68 96 67 94 q 26 472 26 257 q 51 825 26 760 q 64 853 57 840 l 64 851 q 128 943 92 907 q 306 992 190 992 q 376 989 332 992 q 387 1015 379 1013 q 403 1017 394 1018 q 433 1017 413 1017 m 628 439 l 626 603 q 629 676 629 650 q 564 896 629 822 l 564 903 q 576 947 564 917 q 589 994 588 976 q 526 1004 576 1004 l 436 1003 q 401 1004 411 1003 l 400 1004 q 390 990 392 1004 q 386 974 389 975 q 306 978 307 978 q 136 932 196 978 q 82 856 100 896 q 60 794 64 817 q 51 716 56 772 q 44 613 47 660 q 40 471 40 567 q 82 99 40 260 l 82 93 q 69 60 81 88 q 44 -18 44 -8 q 46 -29 44 -28 q 97 -28 61 -28 l 169 -28 q 228 -25 217 -28 l 229 -24 q 247 -3 247 -11 l 250 -3 q 325 1 272 0 q 411 5 378 1 q 478 22 444 8 q 535 63 513 36 q 576 118 558 90 q 603 190 593 146 q 618 267 613 233 q 628 439 628 325 m 447 543 l 456 389 q 444 269 456 311 q 321 181 428 200 l 318 182 q 447 549 432 507 l 447 543 m 192 417 l 193 439 l 196 471 q 201 546 199 496 q 208 628 204 596 q 221 699 211 661 q 314 782 240 774 l 325 781 q 256 569 303 706 q 196 388 210 432 q 192 417 192 397 m 381 215 q 428 263 418 233 q 443 393 443 329 q 381 215 390 250 m 254 638 q 253 616 254 633 q 253 597 253 599 q 289 715 274 664 q 254 638 254 686 z "},"":{"ha":701,"x_min":38,"x_max":700,"o":"m 435 947 l 578 957 q 665 939 638 957 l 665 922 q 693 911 674 919 l 693 901 q 700 573 700 753 q 676 181 700 393 q 585 4 663 72 q 381 -64 507 -64 q 149 10 256 -64 q 38 204 43 85 l 44 817 q 43 958 44 915 l 154 961 q 267 947 219 961 q 265 926 267 947 l 294 919 q 307 231 278 618 q 342 206 311 206 q 422 264 408 206 q 430 619 428 388 q 435 947 432 851 m 58 813 l 51 204 q 148 37 54 96 q 361 -22 242 -22 q 551 40 481 -22 q 635 210 622 103 q 658 593 658 406 q 651 929 658 781 l 651 931 q 574 943 631 943 q 449 933 517 943 q 444 624 447 860 q 436 261 442 389 q 403 210 429 229 q 347 192 378 192 q 265 254 283 192 q 247 651 247 471 q 253 936 247 832 l 253 938 q 160 947 215 947 l 57 944 l 56 944 l 57 943 l 58 813 m 517 1011 q 388 997 453 997 q 293 1001 322 997 q 196 1097 254 1047 l 196 1096 q 113 1176 179 1110 l 226 1292 q 361 1163 275 1253 q 489 1039 447 1072 l 488 1038 q 517 1011 507 1018 m 274 1042 q 360 1039 288 1039 q 460 1047 433 1039 q 359 1149 451 1056 q 228 1274 267 1243 l 132 1176 q 200 1114 138 1171 q 274 1042 263 1057 z "},"":{"ha":701,"x_min":38,"x_max":700,"o":"m 435 947 l 578 957 q 665 939 638 957 l 665 922 q 693 911 674 919 l 693 901 q 700 573 700 753 q 676 181 700 393 q 585 4 663 72 q 381 -64 507 -64 q 149 10 256 -64 q 38 204 43 85 l 44 817 q 43 958 44 915 l 154 961 q 267 947 219 961 q 265 926 267 947 l 294 919 q 307 231 278 618 q 342 206 311 206 q 422 264 408 206 q 430 619 428 388 q 435 947 432 851 m 58 813 l 51 204 q 148 37 54 96 q 361 -22 242 -22 q 551 40 481 -22 q 635 210 622 103 q 658 593 658 406 q 651 929 658 781 l 651 931 q 574 943 631 943 q 449 933 517 943 q 444 624 447 860 q 436 261 442 389 q 403 210 429 229 q 347 192 378 192 q 265 254 283 192 q 247 651 247 471 q 253 936 247 832 l 253 938 q 160 947 215 947 l 57 944 l 56 944 l 57 943 l 58 813 m 476 1001 q 375 997 447 997 q 253 1013 303 997 q 274 1031 265 1025 q 256 1033 267 1032 q 225 1040 233 1039 q 354 1167 272 1083 q 488 1292 436 1251 l 514 1263 l 515 1264 l 628 1147 q 575 1099 625 1144 l 576 1099 q 476 1001 492 1029 m 254 1047 q 353 1039 279 1039 q 440 1042 426 1039 q 513 1115 453 1063 q 582 1176 572 1167 l 486 1274 q 355 1149 447 1243 q 254 1047 263 1056 z "},"":{"ha":701,"x_min":38,"x_max":700,"o":"m 435 947 l 578 957 q 665 939 638 957 l 665 922 q 693 911 674 919 l 693 901 q 700 573 700 753 q 676 181 700 393 q 585 4 663 72 q 381 -64 507 -64 q 149 10 256 -64 q 38 204 43 85 l 44 817 q 43 958 44 915 l 154 961 q 267 947 219 961 q 265 926 267 947 l 294 919 q 307 231 278 618 q 342 206 311 206 q 422 264 408 206 q 430 619 428 388 q 435 947 432 851 m 58 813 l 51 204 q 148 37 54 96 q 361 -22 242 -22 q 551 40 481 -22 q 635 210 622 103 q 658 593 658 406 q 651 929 658 781 l 651 931 q 574 943 631 943 q 449 933 517 943 q 444 624 447 860 q 436 261 442 389 q 403 210 429 229 q 347 192 378 192 q 265 254 283 192 q 247 651 247 471 q 253 936 247 832 l 253 938 q 160 947 215 947 l 57 944 l 56 944 l 57 943 l 58 813 m 458 999 q 364 1067 415 999 q 339 1042 356 1061 q 271 999 304 999 q 247 1000 264 999 q 194 1003 231 1001 q 121 1008 157 1006 q 139 1032 122 1013 l 93 1036 q 201 1163 157 1121 q 258 1217 246 1206 q 302 1256 269 1228 q 344 1294 335 1285 l 608 1032 l 589 1013 q 590 1010 590 1011 q 576 1006 590 1008 q 507 999 525 999 q 458 999 482 999 m 119 1049 q 232 1040 218 1040 q 268 1043 246 1040 q 304 1077 275 1046 q 340 1111 333 1108 q 375 1075 347 1107 q 413 1042 403 1043 q 456 1040 424 1040 q 511 1042 488 1040 q 550 1047 535 1044 q 568 1050 565 1050 l 571 1050 l 344 1275 q 285 1220 326 1258 q 222 1163 243 1182 q 119 1049 167 1111 z "},"":{"ha":701,"x_min":38,"x_max":700,"o":"m 435 947 l 578 957 q 665 939 638 957 l 665 922 q 693 911 674 919 l 693 901 q 700 573 700 753 q 676 181 700 393 q 585 4 663 72 q 381 -64 507 -64 q 149 10 256 -64 q 38 204 43 85 l 44 817 q 43 958 44 915 l 154 961 q 267 947 219 961 q 265 926 267 947 l 294 919 q 307 231 278 618 q 342 206 311 206 q 422 264 408 206 q 430 619 428 388 q 435 947 432 851 m 58 813 l 51 204 q 148 37 54 96 q 361 -22 242 -22 q 551 40 481 -22 q 635 210 622 103 q 658 593 658 406 q 651 929 658 781 l 651 931 q 574 943 631 943 q 449 933 517 943 q 444 624 447 860 q 436 261 442 389 q 403 210 429 229 q 347 192 378 192 q 265 254 283 192 q 247 651 247 471 q 253 936 247 832 l 253 938 q 160 947 215 947 l 57 944 l 56 944 l 57 943 l 58 813 m 413 1013 l 408 1040 l 385 1040 q 379 1115 379 1068 l 382 1206 q 477 1218 422 1218 q 561 1204 532 1218 l 561 1185 l 589 1176 q 576 1011 589 1111 l 413 1013 m 171 1013 l 167 1040 l 143 1040 q 138 1115 138 1068 l 140 1206 q 235 1218 181 1218 q 319 1204 290 1218 l 319 1185 q 347 1176 336 1179 q 335 1011 347 1111 l 171 1013 m 154 1194 l 151 1110 q 156 1054 151 1075 l 160 1054 l 294 1053 l 297 1053 l 297 1056 q 303 1165 297 1074 l 306 1196 q 235 1203 290 1203 q 154 1194 181 1203 m 396 1194 l 393 1110 q 397 1054 393 1075 l 539 1054 l 539 1056 q 544 1165 539 1074 l 547 1196 q 477 1203 532 1203 q 396 1194 422 1203 z "},"":{"ha":603,"x_min":-4,"x_max":664,"o":"m 636 951 l 633 944 q 664 940 649 944 l 664 924 q 458 433 611 754 q 251 -44 306 113 q 200 -42 221 -42 l 83 -44 q 24 -43 39 -44 l 28 -29 q 32 -15 29 -21 l -4 -15 q 95 253 24 72 q 182 476 167 433 q 94 717 163 560 q 4 969 26 875 l 156 978 q 246 963 201 978 l 250 942 q 274 935 261 940 q 324 760 300 819 q 418 964 361 835 q 561 974 508 974 q 636 968 614 974 l 636 951 m 51 -4 l 181 0 q 215 -1 204 0 q 418 468 268 153 q 622 956 568 783 l 622 957 q 547 960 600 960 q 428 951 494 960 l 425 950 q 315 713 360 793 q 233 953 271 804 q 172 964 210 964 q 86 960 133 964 q 22 956 39 956 q 109 718 42 876 q 196 478 176 560 l 196 475 q 136 324 179 432 q 15 -3 56 122 l 18 -3 q 51 -4 29 -4 m 429 1001 q 328 997 400 997 q 206 1013 256 997 q 226 1031 214 1018 q 208 1033 219 1032 q 178 1040 186 1039 q 307 1167 225 1083 q 440 1292 389 1251 l 467 1263 l 468 1264 l 581 1147 q 528 1099 578 1144 l 529 1099 q 429 1001 444 1029 m 207 1047 q 306 1039 232 1039 q 393 1042 379 1039 q 465 1115 406 1063 q 535 1176 525 1167 l 439 1274 q 308 1149 400 1243 q 207 1047 215 1056 z "},"":{"ha":664,"x_min":36,"x_max":678,"o":"m 47 317 l 42 779 q 47 1028 42 917 l 264 1024 l 264 996 l 292 996 q 293 934 292 965 q 294 879 294 903 q 403 892 324 892 q 593 784 508 886 q 678 529 678 682 q 583 208 678 329 q 451 143 531 143 q 296 201 372 143 q 293 57 296 106 q 290 -2 290 8 q 294 -25 290 -12 q 201 -47 274 -47 l 128 -46 q 64 -53 85 -46 q 65 -35 64 -47 q 65 -18 65 -24 q 36 -25 46 -21 q 47 317 47 164 m 79 -4 l 174 -6 q 251 6 240 -6 q 249 24 249 17 q 250 56 249 31 q 254 260 254 133 q 337 206 288 226 q 432 185 386 185 q 547 249 499 185 q 636 557 636 365 q 569 785 636 694 q 403 878 501 875 q 338 876 360 878 q 291 859 317 874 q 253 814 265 844 l 253 901 l 250 1010 l 61 1014 q 56 783 56 904 l 61 324 q 51 -6 61 115 q 79 -4 56 -4 m 329 692 q 356 692 329 692 q 415 666 382 692 q 457 608 449 640 q 465 520 465 575 q 432 422 465 465 q 342 379 399 379 q 294 389 307 379 q 275 404 282 399 q 265 424 268 410 q 259 447 261 438 q 256 475 257 456 q 256 506 256 494 l 256 582 q 266 674 256 657 q 329 692 276 692 m 356 650 q 305 633 313 650 q 297 539 297 617 l 297 503 q 307 399 297 422 q 342 393 318 393 q 422 431 393 393 q 451 520 451 469 q 443 599 451 571 l 443 600 q 356 650 428 650 z "},"":{"ha":653,"x_min":33,"x_max":681,"o":"m 317 485 l 317 496 q 394 635 328 558 q 408 701 422 669 q 379 718 396 713 q 316 724 351 724 q 265 718 281 724 l 265 717 q 263 542 257 651 q 269 308 269 432 l 274 85 q 247 -42 274 -42 q 123 -41 144 -42 q 94 -40 101 -40 q 83 -39 88 -40 q 75 -35 78 -37 q 65 -12 65 -28 q 39 -6 43 -7 q 33 326 33 140 l 36 785 l 36 974 q 264 1007 150 1007 q 533 924 424 1007 q 643 678 643 840 q 574 454 643 575 l 574 451 q 594 422 574 446 q 631 376 614 399 q 664 310 647 353 q 681 224 681 268 q 597 23 681 90 q 400 -44 514 -44 q 335 -42 376 -44 q 332 -31 333 -39 q 329 -22 331 -24 q 307 -14 324 -14 q 294 60 294 32 q 294 105 294 89 q 294 128 293 121 q 296 151 294 136 q 301 174 297 165 q 328 205 314 200 q 356 211 342 210 q 403 277 403 218 q 360 379 403 336 q 317 485 317 422 m 226 376 l 219 633 q 225 756 219 704 q 285 765 246 765 q 428 678 428 765 q 385 597 428 635 q 331 493 342 558 l 331 483 q 374 388 331 447 q 417 275 417 328 q 358 197 417 207 q 311 150 317 193 q 308 106 307 125 q 308 58 308 88 q 318 0 308 29 q 372 -3 360 -3 q 560 60 482 -3 q 639 251 639 124 q 622 333 639 293 q 590 396 606 374 q 551 444 574 418 q 529 477 529 471 q 533 489 529 483 q 601 693 601 603 q 574 841 601 783 q 497 931 546 899 q 264 993 403 993 q 50 963 161 993 l 49 961 q 50 768 50 896 l 47 324 q 53 4 47 147 q 67 1 64 1 l 83 1 q 219 0 117 0 q 232 139 232 0 q 226 376 232 278 z "},"":{"ha":661,"x_min":13,"x_max":656,"o":"m 624 693 l 625 678 l 639 678 l 651 665 q 654 631 654 643 l 654 617 q 653 508 653 579 l 656 196 q 653 61 656 114 q 651 -1 651 8 q 651 -13 651 -11 q 649 -20 650 -15 q 646 -27 647 -25 q 642 -33 644 -29 q 638 -37 640 -36 q 622 -43 635 -39 l 603 -43 l 513 -39 l 453 -43 q 424 -15 431 -37 q 401 0 406 -8 q 257 -44 329 -44 q 126 23 185 -44 q 40 183 68 90 q 13 369 13 276 q 91 615 13 526 q 290 704 169 704 q 351 699 329 704 q 390 671 372 693 q 392 690 390 685 q 394 701 393 696 q 396 707 394 706 q 399 711 397 708 q 403 714 400 714 q 418 717 411 717 l 461 713 l 474 713 q 611 706 510 713 l 624 693 m 615 238 l 611 546 q 613 644 611 611 l 613 658 q 610 692 613 669 q 474 699 571 694 l 458 699 l 421 700 q 401 633 401 700 l 401 626 q 366 672 389 657 q 323 688 343 686 q 260 690 303 690 q 94 597 161 688 q 26 369 26 507 q 115 61 26 178 q 231 -3 164 -3 q 328 20 278 -3 q 414 78 379 43 l 408 29 q 425 -1 408 6 l 485 3 l 575 -1 l 592 -1 q 610 36 610 3 l 610 56 q 615 238 615 138 m 206 420 q 210 436 206 420 q 247 478 214 453 q 322 504 281 504 q 377 502 364 504 q 398 481 390 500 q 406 444 406 461 q 407 386 407 428 l 407 328 q 392 223 407 254 q 321 192 378 192 q 231 235 264 192 q 197 333 197 278 q 206 420 197 388 m 543 785 q 414 771 479 771 q 319 775 349 771 q 222 871 281 821 l 222 869 q 139 950 206 883 l 253 1065 q 387 937 300 1028 q 515 813 474 846 l 514 811 q 543 785 533 792 m 300 815 q 386 813 314 813 q 486 821 458 813 q 385 923 478 829 q 254 1047 293 1017 l 158 950 q 226 888 164 944 q 300 815 289 831 m 393 379 l 394 419 q 376 461 394 457 q 363 463 371 463 q 285 440 314 463 q 247 385 256 418 l 247 383 q 239 314 239 356 q 321 206 239 206 q 378 228 358 206 q 392 277 390 244 q 393 343 393 310 l 393 379 z "},"":{"ha":661,"x_min":13,"x_max":656,"o":"m 624 693 l 625 678 l 639 678 l 651 665 q 654 631 654 643 l 654 617 q 653 508 653 579 l 656 196 q 653 61 656 114 q 651 -1 651 8 q 651 -13 651 -11 q 649 -20 650 -15 q 646 -27 647 -25 q 642 -33 644 -29 q 638 -37 640 -36 q 622 -43 635 -39 l 603 -43 l 513 -39 l 453 -43 q 424 -15 431 -37 q 401 0 406 -8 q 257 -44 329 -44 q 126 23 185 -44 q 40 183 68 90 q 13 369 13 276 q 91 615 13 526 q 290 704 169 704 q 351 699 329 704 q 390 671 372 693 q 392 690 390 685 q 394 701 393 696 q 396 707 394 706 q 399 711 397 708 q 403 714 400 714 q 418 717 411 717 l 461 713 l 474 713 q 611 706 510 713 l 624 693 m 615 238 l 611 546 q 613 644 611 611 l 613 658 q 610 692 613 669 q 474 699 571 694 l 458 699 l 421 700 q 401 633 401 700 l 401 626 q 366 672 389 657 q 323 688 343 686 q 260 690 303 690 q 94 597 161 688 q 26 369 26 507 q 115 61 26 178 q 231 -3 164 -3 q 328 20 278 -3 q 414 78 379 43 l 408 29 q 425 -1 408 6 l 485 3 l 575 -1 l 592 -1 q 610 36 610 3 l 610 56 q 615 238 615 138 m 443 775 q 342 771 414 771 q 219 786 269 771 q 240 804 228 792 q 222 808 233 806 q 192 814 200 811 q 321 941 239 857 q 454 1065 403 1025 l 481 1036 l 482 1038 l 594 921 q 542 872 592 918 l 543 872 q 443 775 458 803 m 206 420 q 210 436 206 420 q 247 478 214 453 q 322 504 281 504 q 377 502 364 504 q 398 481 390 500 q 406 444 406 461 q 407 386 407 428 l 407 328 q 392 223 407 254 q 321 192 378 192 q 231 235 264 192 q 197 333 197 278 q 206 420 197 388 m 221 821 q 319 813 246 813 q 407 815 393 813 q 479 888 419 836 q 549 950 539 940 l 453 1047 q 322 923 414 1017 q 221 821 229 829 m 393 379 l 394 419 q 376 461 394 457 q 363 463 371 463 q 285 440 314 463 q 247 385 256 418 l 247 383 q 239 314 239 356 q 321 206 239 206 q 378 228 358 206 q 392 277 390 244 q 393 343 393 310 l 393 379 z "},"":{"ha":661,"x_min":13,"x_max":656,"o":"m 624 693 l 625 678 l 639 678 l 651 665 q 654 631 654 643 l 654 617 q 653 508 653 579 l 656 196 q 653 61 656 114 q 651 -1 651 8 q 651 -13 651 -11 q 649 -20 650 -15 q 646 -27 647 -25 q 642 -33 644 -29 q 638 -37 640 -36 q 622 -43 635 -39 l 603 -43 l 513 -39 l 453 -43 q 424 -15 431 -37 q 401 0 406 -8 q 257 -44 329 -44 q 126 23 185 -44 q 40 183 68 90 q 13 369 13 276 q 91 615 13 526 q 290 704 169 704 q 351 699 329 704 q 390 671 372 693 q 392 690 390 685 q 394 701 393 696 q 396 707 394 706 q 399 711 397 708 q 403 714 400 714 q 418 717 411 717 l 461 713 l 474 713 q 611 706 510 713 l 624 693 m 615 238 l 611 546 q 613 644 611 611 l 613 658 q 610 692 613 669 q 474 699 571 694 l 458 699 l 421 700 q 401 633 401 700 l 401 626 q 366 672 389 657 q 323 688 343 686 q 260 690 303 690 q 94 597 161 688 q 26 369 26 507 q 115 61 26 178 q 231 -3 164 -3 q 328 20 278 -3 q 414 78 379 43 l 408 29 q 425 -1 408 6 l 485 3 l 575 -1 l 592 -1 q 610 36 610 3 l 610 56 q 615 238 615 138 m 464 775 q 369 843 421 775 q 344 818 361 838 q 276 775 310 775 q 253 776 269 775 q 199 780 236 778 q 126 785 163 782 q 144 808 128 789 l 99 813 q 207 940 163 897 q 263 993 251 982 q 308 1033 275 1004 q 350 1071 340 1061 l 614 808 l 594 789 q 596 786 596 788 q 582 783 596 785 q 513 775 531 775 q 464 775 488 775 m 206 420 q 210 436 206 420 q 247 478 214 453 q 322 504 281 504 q 377 502 364 504 q 398 481 390 500 q 406 444 406 461 q 407 386 407 428 l 407 328 q 392 223 407 254 q 321 192 378 192 q 231 235 264 192 q 197 333 197 278 q 206 420 197 388 m 125 825 q 238 817 224 817 q 274 819 251 817 q 310 853 281 822 q 346 888 339 885 q 381 851 353 883 q 419 818 408 819 q 461 817 429 817 q 517 819 493 817 q 556 824 540 822 q 574 826 571 826 l 576 826 l 350 1051 q 290 997 332 1035 q 228 939 249 958 q 125 825 172 888 m 393 379 l 394 419 q 376 461 394 457 q 363 463 371 463 q 285 440 314 463 q 247 385 256 418 l 247 383 q 239 314 239 356 q 321 206 239 206 q 378 228 358 206 q 392 277 390 244 q 393 343 393 310 l 393 379 z "},"":{"ha":661,"x_min":13,"x_max":668,"o":"m 624 693 l 625 678 l 639 678 l 651 665 q 654 631 654 643 l 654 617 q 653 508 653 579 l 656 196 q 653 61 656 114 q 651 -1 651 8 q 651 -13 651 -11 q 649 -20 650 -15 q 646 -27 647 -25 q 642 -33 644 -29 q 638 -37 640 -36 q 622 -43 635 -39 l 603 -43 l 513 -39 l 453 -43 q 424 -15 431 -37 q 401 0 406 -8 q 257 -44 329 -44 q 126 23 185 -44 q 40 183 68 90 q 13 369 13 276 q 91 615 13 526 q 290 704 169 704 q 351 699 329 704 q 390 671 372 693 q 392 690 390 685 q 394 701 393 696 q 396 707 394 706 q 399 711 397 708 q 403 714 400 714 q 418 717 411 717 l 461 713 l 474 713 q 611 706 510 713 l 624 693 m 615 238 l 611 546 q 613 644 611 611 l 613 658 q 610 692 613 669 q 474 699 571 694 l 458 699 l 421 700 q 401 633 401 700 l 401 626 q 366 672 389 657 q 323 688 343 686 q 260 690 303 690 q 94 597 161 688 q 26 369 26 507 q 115 61 26 178 q 231 -3 164 -3 q 328 20 278 -3 q 414 78 379 43 l 408 29 q 425 -1 408 6 l 485 3 l 575 -1 l 592 -1 q 610 36 610 3 l 610 56 q 615 238 615 138 m 342 869 l 331 872 q 268 843 286 872 q 264 819 264 831 q 269 796 264 808 l 253 776 q 175 782 229 782 q 74 779 121 782 q 82 808 75 790 q 62 808 74 808 q 46 807 50 807 q 263 1064 111 1064 q 411 972 342 1064 l 411 974 q 435 961 417 961 q 472 991 453 961 q 499 1047 492 1021 q 636 1053 549 1053 l 639 1035 l 640 1024 l 664 1025 l 667 1008 q 668 983 668 999 q 621 837 668 904 q 496 769 574 769 q 403 799 447 769 q 342 869 358 828 m 626 1008 q 622 1039 626 1033 q 508 1035 510 1035 q 479 976 500 1006 q 435 947 458 947 q 388 973 411 947 q 335 1024 365 999 q 261 1050 304 1050 q 65 822 128 1050 q 147 824 89 824 q 228 818 204 824 l 228 819 q 222 847 222 832 q 232 883 222 864 q 303 914 251 914 q 351 882 331 914 q 461 811 382 811 q 583 872 540 811 q 626 1008 626 932 m 206 420 q 210 436 206 420 q 247 478 214 453 q 322 504 281 504 q 377 502 364 504 q 398 481 390 500 q 406 444 406 461 q 407 386 407 428 l 407 328 q 392 223 407 254 q 321 192 378 192 q 231 235 264 192 q 197 333 197 278 q 206 420 197 388 m 393 379 l 394 419 q 376 461 394 457 q 363 463 371 463 q 285 440 314 463 q 247 385 256 418 l 247 383 q 239 314 239 356 q 321 206 239 206 q 378 228 358 206 q 392 277 390 244 q 393 343 393 310 l 393 379 z "},"":{"ha":661,"x_min":13,"x_max":656,"o":"m 624 693 l 625 678 l 639 678 l 651 665 q 654 631 654 643 l 654 617 q 653 508 653 579 l 656 196 q 653 61 656 114 q 651 -1 651 8 q 651 -13 651 -11 q 649 -20 650 -15 q 646 -27 647 -25 q 642 -33 644 -29 q 638 -37 640 -36 q 622 -43 635 -39 l 603 -43 l 513 -39 l 453 -43 q 424 -15 431 -37 q 401 0 406 -8 q 257 -44 329 -44 q 126 23 185 -44 q 40 183 68 90 q 13 369 13 276 q 91 615 13 526 q 290 704 169 704 q 351 699 329 704 q 390 671 372 693 q 392 690 390 685 q 394 701 393 696 q 396 707 394 706 q 399 711 397 708 q 403 714 400 714 q 418 717 411 717 l 461 713 l 474 713 q 611 706 510 713 l 624 693 m 615 238 l 611 546 q 613 644 611 611 l 613 658 q 610 692 613 669 q 474 699 571 694 l 458 699 l 421 700 q 401 633 401 700 l 401 626 q 366 672 389 657 q 323 688 343 686 q 260 690 303 690 q 94 597 161 688 q 26 369 26 507 q 115 61 26 178 q 231 -3 164 -3 q 328 20 278 -3 q 414 78 379 43 l 408 29 q 425 -1 408 6 l 485 3 l 575 -1 l 592 -1 q 610 36 610 3 l 610 56 q 615 238 615 138 m 151 849 l 146 1040 l 146 1069 l 363 1065 l 363 1038 l 390 1038 l 394 842 q 328 818 379 818 q 275 821 315 818 l 228 822 q 179 821 200 822 l 179 850 l 151 849 m 407 849 l 401 1040 l 401 1069 l 618 1065 l 618 1038 l 646 1038 l 650 842 q 583 818 635 818 q 531 821 571 818 l 483 822 q 435 821 456 822 l 435 850 l 407 849 m 206 415 q 247 478 214 453 q 322 504 281 504 q 377 502 364 504 q 398 481 390 500 q 406 444 406 461 q 407 386 407 428 l 407 328 q 392 223 407 254 q 321 192 378 192 q 231 235 264 192 q 197 336 197 278 q 206 415 197 394 m 608 874 l 604 1051 l 415 1056 l 415 1033 l 421 864 l 444 864 l 554 860 q 608 874 600 860 m 353 874 l 349 1051 l 160 1056 l 160 1033 l 165 864 l 189 864 l 299 860 q 353 874 344 860 m 393 379 l 394 419 q 376 461 394 457 q 363 463 371 463 q 285 440 314 463 q 247 385 256 418 l 247 383 q 239 314 239 356 q 321 206 239 206 q 378 228 358 206 q 392 277 390 244 q 393 343 393 310 l 393 379 z "},"":{"ha":661,"x_min":13,"x_max":656,"o":"m 624 693 l 625 678 l 639 678 l 651 665 q 654 631 654 643 l 654 617 q 653 508 653 579 l 656 196 q 653 61 656 114 q 651 -1 651 8 q 651 -13 651 -11 q 649 -20 650 -15 q 646 -27 647 -25 q 642 -33 644 -29 q 638 -37 640 -36 q 622 -43 635 -39 l 603 -43 l 513 -39 l 453 -43 q 424 -15 431 -37 q 401 0 406 -8 q 257 -44 329 -44 q 126 23 185 -44 q 40 183 68 90 q 13 369 13 276 q 91 615 13 526 q 290 704 169 704 q 351 699 329 704 q 390 671 372 693 q 392 690 390 685 q 394 701 393 696 q 396 707 394 706 q 399 711 397 708 q 403 714 400 714 q 418 717 411 717 l 461 713 l 474 713 q 611 706 510 713 l 624 693 m 615 238 l 611 546 q 613 644 611 611 l 613 658 q 610 692 613 669 q 474 699 571 694 l 458 699 l 421 700 q 401 633 401 700 l 401 626 q 366 672 389 657 q 323 688 343 686 q 260 690 303 690 q 94 597 161 688 q 26 369 26 507 q 115 61 26 178 q 231 -3 164 -3 q 328 20 278 -3 q 414 78 379 43 l 408 29 q 425 -1 408 6 l 485 3 l 575 -1 l 592 -1 q 610 36 610 3 l 610 56 q 615 238 615 138 m 361 747 q 317 749 331 747 q 283 760 303 750 q 250 789 263 769 q 207 919 207 815 q 233 1025 207 988 q 340 1058 275 1058 q 476 1008 440 1058 l 476 1006 q 508 965 501 990 q 515 889 515 940 q 494 792 515 838 l 493 790 q 361 747 464 747 m 454 825 q 474 919 474 876 q 463 1004 474 963 q 332 1046 431 1046 q 247 1017 272 1046 q 221 936 221 988 q 223 866 221 885 q 236 826 225 847 q 344 789 254 789 q 454 825 433 789 m 206 420 q 210 436 206 420 q 247 478 214 453 q 322 504 281 504 q 377 502 364 504 q 398 481 390 500 q 406 444 406 461 q 407 386 407 428 l 407 328 q 392 223 407 254 q 321 192 378 192 q 231 235 264 192 q 197 333 197 278 q 206 420 197 388 m 393 379 l 394 419 q 376 461 394 457 q 363 463 371 463 q 285 440 314 463 q 247 385 256 418 l 247 383 q 239 314 239 356 q 321 206 239 206 q 378 228 358 206 q 392 277 390 244 q 393 343 393 310 l 393 379 m 283 924 q 348 983 283 983 q 413 925 413 983 q 409 883 413 899 q 392 861 406 868 q 374 853 379 854 q 346 850 369 853 l 332 850 q 283 924 283 850 m 387 876 q 392 882 387 876 q 398 895 397 888 q 399 919 399 903 q 394 939 399 936 q 376 942 390 942 q 340 935 361 942 q 326 864 319 915 l 353 864 q 387 876 376 865 z "},"":{"ha":976,"x_min":-1,"x_max":993,"o":"m 958 254 l 989 249 q 980 155 985 215 q 969 65 975 94 q 947 21 963 35 q 781 -42 899 -42 q 606 -28 663 -42 q 511 31 550 -15 q 508 32 510 32 q 287 -53 400 -53 q 86 22 174 -53 q -1 195 -1 97 q 65 356 -1 293 q 247 418 132 418 q 374 396 319 418 l 374 468 q 332 511 374 511 q 281 489 303 511 q 258 431 258 467 q 132 421 207 421 q 57 453 57 421 q 35 463 39 456 q 31 479 31 469 l 31 490 q 116 641 31 589 q 316 693 201 693 q 492 644 431 693 q 685 706 571 706 q 913 615 833 706 q 993 389 993 524 q 990 318 993 360 q 668 300 929 300 q 639 301 649 300 l 639 281 q 642 222 639 243 q 661 185 646 201 q 704 168 676 168 q 749 193 732 168 q 767 269 767 218 l 767 283 q 811 281 792 281 l 901 283 q 961 276 926 283 q 958 254 958 257 m 896 269 l 801 267 q 782 268 786 267 l 782 257 q 760 180 782 206 q 706 154 739 154 q 597 322 601 154 l 597 346 q 752 342 614 342 q 949 357 890 342 q 951 417 951 399 q 893 618 951 544 q 685 692 835 692 q 492 626 565 692 q 320 679 435 679 q 124 631 206 679 q 43 494 43 583 q 53 470 43 478 q 74 462 64 463 q 120 461 85 461 q 217 471 156 461 q 243 530 217 507 q 303 553 269 553 q 362 531 336 553 q 388 471 388 510 l 388 421 q 389 372 388 393 q 234 404 332 404 q 74 345 136 404 q 13 197 13 286 q 86 48 13 107 q 265 -11 160 -11 q 485 82 369 -11 q 576 15 521 31 q 747 0 631 0 q 917 69 874 0 q 936 144 932 93 q 941 206 940 196 q 943 235 942 215 q 946 265 944 256 q 896 269 928 269 m 160 201 q 194 273 160 247 q 269 299 229 299 q 344 279 310 299 q 378 219 378 260 q 278 131 378 131 q 235 135 258 131 q 160 201 160 147 m 725 447 l 638 446 q 599 460 599 446 q 711 561 599 561 q 757 549 729 561 q 807 463 807 525 l 807 449 q 799 444 807 444 l 725 447 m 238 149 q 292 144 261 144 q 344 165 322 144 q 365 213 365 185 q 296 257 365 257 q 232 235 261 257 q 203 174 203 214 q 210 155 203 160 q 236 149 218 150 l 238 149 m 646 460 l 665 461 l 725 461 q 793 457 789 461 l 793 463 q 779 508 792 482 q 722 519 749 519 q 646 460 663 519 z "},"":{"ha":615,"x_min":18,"x_max":629,"o":"m 451 282 l 536 285 q 600 278 561 285 q 599 254 599 268 l 628 250 q 585 13 614 46 q 429 -57 540 -50 q 365 -247 379 -181 l 249 -247 q 189 -231 189 -247 q 193 -219 189 -228 q 161 -203 161 -217 q 215 -47 203 -92 l 215 -46 q 122 11 158 -25 l 110 24 q 22 288 22 89 l 22 331 q 18 447 22 413 q 46 622 18 547 l 44 621 q 122 699 57 672 q 272 725 186 725 q 324 724 283 724 l 357 725 q 476 703 419 725 q 564 639 533 682 q 569 635 565 638 q 618 542 607 607 q 629 363 629 478 q 562 356 585 356 q 426 368 539 356 l 424 381 q 421 388 424 386 q 415 391 418 389 q 408 394 413 393 q 399 396 404 394 q 382 443 394 428 q 339 458 369 458 q 316 455 333 458 q 288 441 299 451 q 271 422 276 431 q 263 394 265 414 q 259 367 260 375 q 259 336 258 360 q 260 308 260 313 l 256 221 q 303 194 256 194 q 368 207 350 194 l 367 207 q 397 285 378 213 q 451 282 431 282 m 36 369 l 35 290 q 128 25 35 92 q 224 -12 167 -3 l 242 -14 l 229 -51 q 211 -102 225 -62 q 175 -204 197 -142 q 194 -206 175 -206 l 326 -204 q 358 -110 331 -186 q 390 -17 385 -35 q 546 49 506 -10 q 585 267 571 74 q 532 271 565 271 l 429 268 q 408 269 413 268 q 380 201 399 222 q 316 179 361 179 q 243 197 271 179 q 215 251 215 215 q 226 436 215 400 q 315 501 244 501 q 411 408 394 501 q 526 396 483 396 q 588 401 569 396 q 570 594 582 556 q 533 651 558 633 q 351 711 472 711 l 299 710 q 271 711 281 710 q 83 653 135 711 q 32 449 32 594 q 36 369 36 411 m 589 -122 l 590 -125 l 589 -122 z "},"":{"ha":617,"x_min":15,"x_max":633,"o":"m 600 275 l 599 251 l 628 247 q 597 36 628 96 q 562 -16 579 4 q 514 -44 544 -36 q 424 -60 463 -60 q 347 -60 385 -60 q 278 -58 310 -60 q 207 -40 247 -56 q 140 6 167 -25 q 46 157 76 58 q 15 381 15 256 q 47 592 15 506 q 149 694 76 658 q 310 729 221 729 q 551 632 468 729 q 633 392 633 535 q 629 321 633 383 q 289 303 567 303 q 258 304 268 303 l 258 281 q 283 172 258 214 l 283 169 q 329 160 301 160 q 376 187 357 160 q 396 268 396 214 l 396 282 q 442 279 426 279 l 538 282 q 600 275 561 282 m 532 268 l 432 265 q 411 267 415 265 l 411 256 q 387 174 411 201 q 328 146 363 146 q 217 324 221 146 l 217 349 q 379 344 233 344 q 589 360 525 344 q 592 443 592 401 q 579 535 592 485 q 536 628 567 586 q 310 715 474 715 q 156 681 226 715 q 60 588 86 647 q 28 357 28 501 q 76 107 28 213 q 228 -14 125 1 l 363 -18 q 547 47 501 -18 q 586 264 572 68 q 532 268 565 268 m 513 785 q 383 771 449 771 q 289 775 318 771 q 192 871 250 821 l 192 869 q 108 950 175 883 l 222 1065 q 358 938 282 1017 q 485 813 472 822 l 483 811 q 513 785 503 792 m 269 815 q 356 813 283 813 q 456 821 428 813 q 355 923 447 829 q 224 1047 263 1017 l 128 950 q 196 888 133 944 q 269 815 258 831 m 351 457 l 261 456 q 226 458 235 456 q 218 471 218 461 q 336 578 218 578 q 385 564 363 578 q 439 474 439 536 l 439 458 q 429 454 439 454 l 351 457 m 425 474 q 364 536 425 536 q 294 519 315 536 q 264 469 272 503 l 290 471 l 351 471 l 411 469 l 425 468 l 425 474 z "},"":{"ha":617,"x_min":15,"x_max":633,"o":"m 600 275 l 599 251 l 628 247 q 597 36 628 96 q 562 -16 579 4 q 514 -44 544 -36 q 424 -60 463 -60 q 347 -60 385 -60 q 278 -58 310 -60 q 207 -40 247 -56 q 140 6 167 -25 q 46 157 76 58 q 15 381 15 256 q 47 592 15 506 q 149 694 76 658 q 310 729 221 729 q 551 632 468 729 q 633 392 633 535 q 629 321 633 383 q 290 303 564 303 q 258 304 268 303 l 258 281 q 283 172 258 214 l 283 169 q 329 160 301 160 q 376 187 357 160 q 396 268 396 214 l 396 282 q 442 279 426 279 l 538 282 q 600 275 561 282 m 532 268 l 432 265 q 411 267 415 265 l 411 256 q 387 174 411 201 q 328 146 363 146 q 217 324 221 146 l 217 349 q 379 344 233 344 q 589 360 525 344 q 592 443 592 401 q 579 535 592 485 q 536 628 567 586 q 310 715 474 715 q 156 681 226 715 q 60 588 86 647 q 28 357 28 501 q 76 107 28 213 q 228 -14 125 1 l 363 -18 q 547 47 501 -18 q 586 264 572 68 q 532 268 565 268 m 422 775 q 321 771 393 771 q 199 786 249 771 q 219 804 207 792 q 201 808 213 806 q 171 814 179 811 q 300 941 218 857 q 433 1065 382 1025 l 460 1036 l 461 1038 l 574 921 q 521 872 571 918 l 522 872 q 422 775 438 803 m 200 821 q 299 813 225 813 q 386 815 372 813 q 458 888 399 836 q 528 950 518 940 l 432 1047 q 301 923 393 1017 q 200 821 208 829 m 351 457 l 261 456 q 226 458 235 456 q 218 471 218 461 q 336 578 218 578 q 385 564 363 578 q 439 474 439 536 l 439 458 q 429 454 439 454 l 351 457 m 425 474 q 364 536 425 536 q 294 519 315 536 q 264 469 272 503 l 290 471 l 351 471 l 411 469 l 425 468 l 425 474 z "},"":{"ha":617,"x_min":15,"x_max":633,"o":"m 600 275 l 599 251 l 628 247 q 597 36 628 96 q 562 -16 579 4 q 514 -44 544 -36 q 424 -60 463 -60 q 347 -60 385 -60 q 278 -58 310 -60 q 207 -40 247 -56 q 140 6 167 -25 q 46 157 76 58 q 15 381 15 256 q 47 592 15 506 q 149 694 76 658 q 310 729 221 729 q 551 632 468 729 q 633 392 633 535 q 629 321 633 383 q 290 303 564 303 q 258 304 268 303 l 258 281 q 283 172 258 214 l 283 169 q 329 160 301 160 q 376 187 357 160 q 396 268 396 214 l 396 282 q 442 279 426 279 l 538 282 q 600 275 561 282 m 532 268 l 432 265 q 411 267 415 265 l 411 256 q 387 174 411 201 q 328 146 363 146 q 217 324 221 146 l 217 349 q 379 344 233 344 q 589 360 525 344 q 592 443 592 401 q 579 535 592 485 q 536 628 567 586 q 310 715 474 715 q 156 681 226 715 q 60 588 86 647 q 28 357 28 501 q 76 107 28 213 q 228 -14 125 1 l 363 -18 q 547 47 501 -18 q 586 264 572 68 q 532 268 565 268 m 439 775 q 344 843 396 775 q 319 818 336 838 q 251 775 285 775 q 228 776 244 775 q 174 780 211 778 q 101 785 138 782 q 119 808 103 789 l 74 813 q 182 940 138 897 q 238 993 226 982 q 283 1033 250 1004 q 325 1071 315 1061 l 589 808 l 569 789 q 571 786 571 788 q 557 783 571 785 q 488 775 506 775 q 439 775 463 775 m 100 825 q 213 817 199 817 q 249 819 226 817 q 285 853 256 822 q 321 888 314 885 q 356 851 328 883 q 394 818 383 819 q 436 817 404 817 q 492 819 468 817 q 531 824 515 822 q 549 826 546 826 l 551 826 l 325 1051 q 265 997 307 1035 q 203 939 224 958 q 100 825 147 888 m 351 457 l 261 456 q 226 458 235 456 q 218 471 218 461 q 336 578 218 578 q 385 564 363 578 q 439 474 439 536 l 439 458 q 429 454 439 454 l 351 457 m 425 474 q 364 536 425 536 q 294 519 315 536 q 264 469 272 503 l 290 471 l 351 471 l 411 469 l 425 468 l 425 474 z "},"":{"ha":617,"x_min":15,"x_max":633,"o":"m 600 275 l 599 251 l 628 247 q 597 36 628 96 q 562 -16 579 4 q 514 -44 544 -36 q 424 -60 463 -60 q 347 -60 385 -60 q 278 -58 310 -60 q 207 -40 247 -56 q 140 6 167 -25 q 46 157 76 58 q 15 381 15 256 q 47 592 15 506 q 149 694 76 658 q 310 729 221 729 q 551 632 468 729 q 633 392 633 535 q 629 321 633 383 q 289 303 567 303 q 258 304 268 303 l 258 281 q 283 172 258 214 l 283 169 q 329 160 301 160 q 376 187 357 160 q 396 268 396 214 l 396 282 q 442 279 426 279 l 538 282 q 600 275 561 282 m 532 268 l 432 265 q 411 267 415 265 l 411 256 q 387 174 411 201 q 328 146 363 146 q 217 324 221 146 l 217 349 q 379 344 233 344 q 589 360 525 344 q 592 443 592 401 q 579 535 592 485 q 536 628 567 586 q 310 715 474 715 q 156 681 226 715 q 60 588 86 647 q 28 357 28 501 q 76 107 28 213 q 228 -14 125 1 l 363 -18 q 547 47 501 -18 q 586 264 572 68 q 532 268 565 268 m 78 849 l 72 1040 l 72 1069 l 289 1065 l 289 1038 l 317 1038 l 321 842 q 254 818 306 818 q 201 821 242 818 l 154 822 q 106 821 126 822 l 106 850 l 78 849 m 333 849 l 328 1040 l 328 1069 l 544 1065 l 544 1038 l 572 1038 l 576 842 q 510 818 561 818 q 457 821 497 818 l 410 822 q 361 821 382 822 l 361 850 l 333 849 m 535 874 l 531 1051 l 342 1056 l 342 1033 l 347 864 l 371 864 l 481 860 q 535 874 526 860 m 279 874 l 275 1051 l 86 1056 l 86 1033 l 92 864 l 115 864 l 225 860 q 279 874 271 860 m 351 457 l 261 456 q 226 458 235 456 q 218 471 218 461 q 336 578 218 578 q 385 564 363 578 q 439 474 439 536 l 439 458 q 429 454 439 454 l 351 457 m 425 474 q 364 536 425 536 q 294 519 315 536 q 264 469 272 503 l 290 471 l 351 471 l 411 469 l 425 468 l 425 474 z "},"":{"ha":288,"x_min":-97,"x_max":307,"o":"m 307 785 q 178 771 243 771 q 83 775 113 771 q -14 871 44 821 l -14 869 q -97 950 -31 883 l 17 1065 q 153 938 76 1017 q 279 813 267 822 l 278 811 q 307 785 297 792 m 285 678 l 278 190 q 283 -24 278 67 q 143 -42 260 -49 l 110 -40 q 58 -47 79 -40 q 61 -12 58 -37 q 31 -19 40 -15 q 38 172 38 74 l 32 508 q 42 713 32 606 l 78 717 l 188 713 l 219 713 l 257 706 l 257 682 l 285 678 m 64 815 q 150 813 78 813 q 250 821 222 813 q 149 923 242 829 q 18 1047 57 1017 l -78 950 q -10 888 -72 944 q 64 815 53 831 m 236 232 l 243 694 l 243 699 l 188 699 l 60 703 l 54 703 l 54 701 q 46 511 46 628 l 51 171 q 46 0 51 76 q 68 1 49 1 l 178 -1 q 242 8 235 -1 q 236 232 236 107 z "},"":{"ha":288,"x_min":8,"x_max":411,"o":"m 260 775 q 158 771 231 771 q 36 786 86 771 q 57 804 44 792 q 39 808 50 806 q 8 814 17 811 q 138 941 56 857 q 271 1065 219 1025 l 297 1036 l 299 1038 l 411 921 q 358 872 408 918 l 360 872 q 260 775 275 803 m 38 218 l 31 713 l 100 713 l 224 717 q 249 689 246 708 l 253 689 q 275 682 261 689 q 283 481 283 589 l 278 144 q 285 -47 278 46 q 233 -40 263 -40 l 140 -43 q 60 -24 78 -43 l 60 -11 q 32 4 40 -7 q 38 218 38 94 m 38 821 q 136 813 63 813 q 224 815 210 813 q 296 888 236 836 q 365 950 356 940 l 269 1047 q 138 923 231 1017 q 38 821 46 829 m 228 703 l 100 699 l 44 699 l 44 694 l 51 232 q 46 8 51 107 q 108 -1 53 -1 l 219 1 q 242 0 239 1 q 236 171 236 76 l 242 511 q 233 701 242 610 l 233 703 l 228 703 z "},"":{"ha":288,"x_min":-101,"x_max":414,"o":"m 394 789 q 396 786 396 788 q 382 783 396 785 q 311 775 331 775 q 276 775 289 775 q 253 776 263 775 q 240 780 244 778 q 227 787 236 782 q 211 800 218 792 q 169 843 194 815 q 144 818 161 838 q 76 775 110 775 q 53 776 69 775 q -1 780 36 778 q -74 785 -37 782 q -56 808 -72 789 l -101 813 q 7 940 -37 897 q 63 993 51 982 q 108 1033 75 1004 q 150 1071 140 1061 l 414 808 l 394 789 m 285 678 l 278 190 q 283 -24 278 67 q 143 -42 260 -49 l 110 -40 q 58 -47 79 -40 q 61 -12 58 -37 q 31 -19 40 -15 q 38 172 38 74 l 32 508 q 42 713 32 606 l 78 717 l 188 713 l 219 713 l 257 706 l 257 682 l 285 678 m -75 825 q 38 817 24 817 q 74 819 51 817 q 110 853 81 822 q 146 888 139 885 q 181 851 153 883 q 219 818 208 819 q 261 817 229 817 q 317 819 293 817 q 356 824 340 822 q 374 826 371 826 l 376 826 l 150 1051 q 90 997 132 1035 q 28 939 49 958 q -75 825 -28 888 m 236 232 l 243 694 l 243 699 l 188 699 l 60 703 l 54 703 l 54 701 q 46 511 46 628 l 51 171 q 46 0 51 76 q 68 1 49 1 l 178 -1 q 242 8 235 -1 q 236 232 236 107 z "},"":{"ha":288,"x_min":-90,"x_max":414,"o":"m 171 849 l 165 1040 l 165 1069 l 382 1065 l 382 1038 l 410 1038 l 414 842 q 347 818 399 818 q 294 821 335 818 l 247 822 q 199 821 219 822 l 199 850 l 171 849 m -85 849 l -90 1040 l -90 1069 l 126 1065 l 126 1038 l 154 1038 l 158 842 q 92 818 143 818 q 39 821 79 818 l -8 822 q -57 821 -36 822 l -57 850 l -85 849 m 285 678 l 278 190 q 283 -24 278 67 q 143 -42 260 -49 l 110 -40 q 58 -47 79 -40 q 61 -12 58 -37 q 31 -19 40 -15 q 38 172 38 74 l 32 508 q 42 713 32 606 l 78 717 l 188 713 l 219 713 l 257 706 l 257 682 l 285 678 m 236 232 l 243 694 l 243 699 l 188 699 l 60 703 l 54 703 l 54 701 q 46 511 46 628 l 51 171 q 46 0 51 76 q 68 1 49 1 l 178 -1 q 242 8 235 -1 q 236 232 236 107 m 372 874 l 368 1051 l 179 1056 l 179 1033 l 185 864 l 208 864 l 318 860 q 372 874 364 860 m 117 874 l 113 1051 l -76 1056 l -76 1033 l -71 864 l -47 864 l 63 860 q 117 874 108 860 z "}}}
